G75*
%MOIN*%
%OFA0B0*%
%FSLAX25Y25*%
%IPPOS*%
%LPD*%
%AMOC8*
5,1,8,0,0,1.08239X$1,22.5*
%
%ADD10C,0.01000*%
%ADD11R,0.09600X0.40000*%
%ADD12C,0.00000*%
%ADD13R,0.27559X0.39370*%
D10*
X0048300Y0044300D02*
X0221900Y0044300D01*
X0222059Y0044317D01*
X0222218Y0044337D01*
X0222376Y0044361D01*
X0222534Y0044389D01*
X0222691Y0044421D01*
X0222847Y0044456D01*
X0223003Y0044495D01*
X0223157Y0044538D01*
X0223310Y0044585D01*
X0223462Y0044636D01*
X0223613Y0044690D01*
X0223762Y0044747D01*
X0223910Y0044809D01*
X0224056Y0044873D01*
X0224201Y0044942D01*
X0224344Y0045014D01*
X0224486Y0045089D01*
X0224625Y0045168D01*
X0224763Y0045250D01*
X0224898Y0045335D01*
X0225032Y0045424D01*
X0225163Y0045515D01*
X0225292Y0045610D01*
X0225419Y0045708D01*
X0225543Y0045809D01*
X0225665Y0045913D01*
X0225784Y0046020D01*
X0225900Y0046130D01*
X0226014Y0046243D01*
X0226126Y0046358D01*
X0226234Y0046476D01*
X0226339Y0046596D01*
X0226442Y0046719D01*
X0226541Y0046845D01*
X0226638Y0046973D01*
X0226731Y0047103D01*
X0226821Y0047235D01*
X0226908Y0047370D01*
X0226992Y0047506D01*
X0227072Y0047645D01*
X0227149Y0047785D01*
X0227223Y0047927D01*
X0227293Y0048071D01*
X0227360Y0048217D01*
X0227423Y0048364D01*
X0227482Y0048513D01*
X0227538Y0048663D01*
X0227590Y0048814D01*
X0227639Y0048967D01*
X0227684Y0049121D01*
X0227725Y0049275D01*
X0227762Y0049431D01*
X0227796Y0049588D01*
X0227826Y0049745D01*
X0227852Y0049903D01*
X0227874Y0050062D01*
X0227892Y0050221D01*
X0227907Y0050380D01*
X0227917Y0050540D01*
X0227924Y0050700D01*
X0227927Y0050860D01*
X0227926Y0051020D01*
X0227921Y0051180D01*
X0227912Y0051340D01*
X0227900Y0051500D01*
X0226465Y0061044D01*
X0225256Y0070620D01*
X0224274Y0080222D01*
X0223521Y0089844D01*
X0222995Y0099482D01*
X0222699Y0109129D01*
X0222631Y0118781D01*
X0222792Y0128432D01*
X0223181Y0138076D01*
X0223799Y0147708D01*
X0224645Y0157322D01*
X0225719Y0166914D01*
X0227020Y0176478D01*
X0228548Y0186008D01*
X0230300Y0195500D01*
X0230315Y0195688D01*
X0230325Y0195875D01*
X0230331Y0196063D01*
X0230332Y0196252D01*
X0230328Y0196440D01*
X0230320Y0196628D01*
X0230307Y0196815D01*
X0230290Y0197003D01*
X0230268Y0197190D01*
X0230242Y0197376D01*
X0230211Y0197562D01*
X0230176Y0197746D01*
X0230136Y0197930D01*
X0230092Y0198113D01*
X0230043Y0198295D01*
X0229990Y0198475D01*
X0229932Y0198654D01*
X0229870Y0198832D01*
X0229804Y0199008D01*
X0229734Y0199183D01*
X0229659Y0199355D01*
X0229580Y0199526D01*
X0229497Y0199695D01*
X0229410Y0199862D01*
X0229319Y0200027D01*
X0229224Y0200189D01*
X0229125Y0200349D01*
X0229022Y0200506D01*
X0228915Y0200661D01*
X0228805Y0200814D01*
X0228691Y0200963D01*
X0228573Y0201110D01*
X0228452Y0201254D01*
X0228327Y0201395D01*
X0228199Y0201533D01*
X0228067Y0201667D01*
X0227933Y0201799D01*
X0227795Y0201927D01*
X0227654Y0202052D01*
X0227510Y0202173D01*
X0227363Y0202291D01*
X0227214Y0202405D01*
X0227061Y0202515D01*
X0226906Y0202622D01*
X0226749Y0202725D01*
X0226589Y0202824D01*
X0226427Y0202919D01*
X0226262Y0203010D01*
X0226095Y0203097D01*
X0225926Y0203180D01*
X0225755Y0203259D01*
X0225583Y0203334D01*
X0225408Y0203404D01*
X0225232Y0203470D01*
X0225054Y0203532D01*
X0224875Y0203590D01*
X0224695Y0203643D01*
X0224513Y0203692D01*
X0224330Y0203736D01*
X0224146Y0203776D01*
X0223962Y0203811D01*
X0223776Y0203842D01*
X0223590Y0203868D01*
X0223403Y0203890D01*
X0223215Y0203907D01*
X0223028Y0203920D01*
X0222840Y0203928D01*
X0222652Y0203932D01*
X0222463Y0203931D01*
X0222275Y0203925D01*
X0222088Y0203915D01*
X0221900Y0203900D01*
X0051500Y0203900D01*
X0051273Y0203932D01*
X0051046Y0203957D01*
X0050818Y0203978D01*
X0050590Y0203992D01*
X0050361Y0204001D01*
X0050132Y0204005D01*
X0049903Y0204003D01*
X0049674Y0203995D01*
X0049446Y0203982D01*
X0049218Y0203964D01*
X0048990Y0203939D01*
X0048763Y0203910D01*
X0048537Y0203874D01*
X0048312Y0203833D01*
X0048088Y0203787D01*
X0047865Y0203736D01*
X0047643Y0203678D01*
X0047423Y0203616D01*
X0047205Y0203548D01*
X0046988Y0203475D01*
X0046773Y0203397D01*
X0046560Y0203313D01*
X0046349Y0203224D01*
X0046140Y0203131D01*
X0045933Y0203032D01*
X0045730Y0202928D01*
X0045528Y0202819D01*
X0045330Y0202705D01*
X0045134Y0202587D01*
X0044941Y0202464D01*
X0044751Y0202336D01*
X0044564Y0202203D01*
X0044381Y0202066D01*
X0044201Y0201925D01*
X0044025Y0201779D01*
X0043852Y0201629D01*
X0043682Y0201475D01*
X0043517Y0201317D01*
X0043356Y0201155D01*
X0043198Y0200989D01*
X0043045Y0200819D01*
X0042895Y0200646D01*
X0042750Y0200468D01*
X0042610Y0200288D01*
X0042474Y0200104D01*
X0042342Y0199917D01*
X0042215Y0199726D01*
X0042093Y0199533D01*
X0041975Y0199337D01*
X0041862Y0199138D01*
X0041754Y0198936D01*
X0041651Y0198731D01*
X0041553Y0198525D01*
X0041460Y0198315D01*
X0041372Y0198104D01*
X0041289Y0197891D01*
X0041212Y0197675D01*
X0041140Y0197458D01*
X0041073Y0197239D01*
X0041011Y0197019D01*
X0040955Y0196797D01*
X0040904Y0196574D01*
X0040859Y0196350D01*
X0040819Y0196124D01*
X0040785Y0195898D01*
X0040756Y0195671D01*
X0040733Y0195443D01*
X0040715Y0195215D01*
X0040703Y0194986D01*
X0040696Y0194758D01*
X0040695Y0194529D01*
X0040700Y0194300D01*
X0042470Y0184866D01*
X0044016Y0175392D01*
X0045337Y0165885D01*
X0046433Y0156349D01*
X0047302Y0146790D01*
X0047944Y0137212D01*
X0048359Y0127622D01*
X0048547Y0118026D01*
X0048507Y0108427D01*
X0048240Y0098832D01*
X0047745Y0089246D01*
X0047023Y0079674D01*
X0046074Y0070123D01*
X0044900Y0060596D01*
X0043500Y0051100D01*
X0043461Y0050961D01*
X0043427Y0050820D01*
X0043396Y0050679D01*
X0043369Y0050536D01*
X0043346Y0050393D01*
X0043327Y0050250D01*
X0043312Y0050106D01*
X0043301Y0049962D01*
X0043294Y0049817D01*
X0043290Y0049673D01*
X0043291Y0049528D01*
X0043295Y0049383D01*
X0043304Y0049239D01*
X0043316Y0049095D01*
X0043332Y0048951D01*
X0043352Y0048807D01*
X0043376Y0048665D01*
X0043404Y0048523D01*
X0043436Y0048381D01*
X0043471Y0048241D01*
X0043511Y0048102D01*
X0043554Y0047964D01*
X0043601Y0047827D01*
X0043651Y0047691D01*
X0043705Y0047557D01*
X0043763Y0047424D01*
X0043825Y0047293D01*
X0043890Y0047164D01*
X0043958Y0047036D01*
X0044030Y0046911D01*
X0044105Y0046787D01*
X0044184Y0046666D01*
X0044266Y0046546D01*
X0044351Y0046429D01*
X0044439Y0046314D01*
X0044530Y0046202D01*
X0044624Y0046092D01*
X0044722Y0045985D01*
X0044822Y0045881D01*
X0044925Y0045779D01*
X0045030Y0045680D01*
X0045139Y0045584D01*
X0045249Y0045491D01*
X0045363Y0045401D01*
X0045479Y0045314D01*
X0045597Y0045230D01*
X0045717Y0045150D01*
X0045839Y0045073D01*
X0045964Y0044999D01*
X0046090Y0044929D01*
X0046219Y0044862D01*
X0046349Y0044798D01*
X0046480Y0044738D01*
X0046614Y0044682D01*
X0046749Y0044629D01*
X0046885Y0044580D01*
X0047022Y0044535D01*
X0047161Y0044494D01*
X0047301Y0044456D01*
X0047441Y0044422D01*
X0047583Y0044392D01*
X0047725Y0044366D01*
X0047868Y0044343D01*
X0048012Y0044325D01*
X0048156Y0044310D01*
X0048300Y0044300D01*
D11*
X0046300Y0140700D03*
X0224700Y0140700D03*
D12*
X0199994Y0103100D02*
X0199996Y0103253D01*
X0200002Y0103407D01*
X0200012Y0103560D01*
X0200026Y0103712D01*
X0200044Y0103865D01*
X0200066Y0104016D01*
X0200091Y0104167D01*
X0200121Y0104318D01*
X0200155Y0104468D01*
X0200192Y0104616D01*
X0200233Y0104764D01*
X0200278Y0104910D01*
X0200327Y0105056D01*
X0200380Y0105200D01*
X0200436Y0105342D01*
X0200496Y0105483D01*
X0200560Y0105623D01*
X0200627Y0105761D01*
X0200698Y0105897D01*
X0200773Y0106031D01*
X0200850Y0106163D01*
X0200932Y0106293D01*
X0201016Y0106421D01*
X0201104Y0106547D01*
X0201195Y0106670D01*
X0201289Y0106791D01*
X0201387Y0106909D01*
X0201487Y0107025D01*
X0201591Y0107138D01*
X0201697Y0107249D01*
X0201806Y0107357D01*
X0201918Y0107462D01*
X0202032Y0107563D01*
X0202150Y0107662D01*
X0202269Y0107758D01*
X0202391Y0107851D01*
X0202516Y0107940D01*
X0202643Y0108027D01*
X0202772Y0108109D01*
X0202903Y0108189D01*
X0203036Y0108265D01*
X0203171Y0108338D01*
X0203308Y0108407D01*
X0203447Y0108472D01*
X0203587Y0108534D01*
X0203729Y0108592D01*
X0203872Y0108647D01*
X0204017Y0108698D01*
X0204163Y0108745D01*
X0204310Y0108788D01*
X0204458Y0108827D01*
X0204607Y0108863D01*
X0204757Y0108894D01*
X0204908Y0108922D01*
X0205059Y0108946D01*
X0205212Y0108966D01*
X0205364Y0108982D01*
X0205517Y0108994D01*
X0205670Y0109002D01*
X0205823Y0109006D01*
X0205977Y0109006D01*
X0206130Y0109002D01*
X0206283Y0108994D01*
X0206436Y0108982D01*
X0206588Y0108966D01*
X0206741Y0108946D01*
X0206892Y0108922D01*
X0207043Y0108894D01*
X0207193Y0108863D01*
X0207342Y0108827D01*
X0207490Y0108788D01*
X0207637Y0108745D01*
X0207783Y0108698D01*
X0207928Y0108647D01*
X0208071Y0108592D01*
X0208213Y0108534D01*
X0208353Y0108472D01*
X0208492Y0108407D01*
X0208629Y0108338D01*
X0208764Y0108265D01*
X0208897Y0108189D01*
X0209028Y0108109D01*
X0209157Y0108027D01*
X0209284Y0107940D01*
X0209409Y0107851D01*
X0209531Y0107758D01*
X0209650Y0107662D01*
X0209768Y0107563D01*
X0209882Y0107462D01*
X0209994Y0107357D01*
X0210103Y0107249D01*
X0210209Y0107138D01*
X0210313Y0107025D01*
X0210413Y0106909D01*
X0210511Y0106791D01*
X0210605Y0106670D01*
X0210696Y0106547D01*
X0210784Y0106421D01*
X0210868Y0106293D01*
X0210950Y0106163D01*
X0211027Y0106031D01*
X0211102Y0105897D01*
X0211173Y0105761D01*
X0211240Y0105623D01*
X0211304Y0105483D01*
X0211364Y0105342D01*
X0211420Y0105200D01*
X0211473Y0105056D01*
X0211522Y0104910D01*
X0211567Y0104764D01*
X0211608Y0104616D01*
X0211645Y0104468D01*
X0211679Y0104318D01*
X0211709Y0104167D01*
X0211734Y0104016D01*
X0211756Y0103865D01*
X0211774Y0103712D01*
X0211788Y0103560D01*
X0211798Y0103407D01*
X0211804Y0103253D01*
X0211806Y0103100D01*
X0211804Y0102947D01*
X0211798Y0102793D01*
X0211788Y0102640D01*
X0211774Y0102488D01*
X0211756Y0102335D01*
X0211734Y0102184D01*
X0211709Y0102033D01*
X0211679Y0101882D01*
X0211645Y0101732D01*
X0211608Y0101584D01*
X0211567Y0101436D01*
X0211522Y0101290D01*
X0211473Y0101144D01*
X0211420Y0101000D01*
X0211364Y0100858D01*
X0211304Y0100717D01*
X0211240Y0100577D01*
X0211173Y0100439D01*
X0211102Y0100303D01*
X0211027Y0100169D01*
X0210950Y0100037D01*
X0210868Y0099907D01*
X0210784Y0099779D01*
X0210696Y0099653D01*
X0210605Y0099530D01*
X0210511Y0099409D01*
X0210413Y0099291D01*
X0210313Y0099175D01*
X0210209Y0099062D01*
X0210103Y0098951D01*
X0209994Y0098843D01*
X0209882Y0098738D01*
X0209768Y0098637D01*
X0209650Y0098538D01*
X0209531Y0098442D01*
X0209409Y0098349D01*
X0209284Y0098260D01*
X0209157Y0098173D01*
X0209028Y0098091D01*
X0208897Y0098011D01*
X0208764Y0097935D01*
X0208629Y0097862D01*
X0208492Y0097793D01*
X0208353Y0097728D01*
X0208213Y0097666D01*
X0208071Y0097608D01*
X0207928Y0097553D01*
X0207783Y0097502D01*
X0207637Y0097455D01*
X0207490Y0097412D01*
X0207342Y0097373D01*
X0207193Y0097337D01*
X0207043Y0097306D01*
X0206892Y0097278D01*
X0206741Y0097254D01*
X0206588Y0097234D01*
X0206436Y0097218D01*
X0206283Y0097206D01*
X0206130Y0097198D01*
X0205977Y0097194D01*
X0205823Y0097194D01*
X0205670Y0097198D01*
X0205517Y0097206D01*
X0205364Y0097218D01*
X0205212Y0097234D01*
X0205059Y0097254D01*
X0204908Y0097278D01*
X0204757Y0097306D01*
X0204607Y0097337D01*
X0204458Y0097373D01*
X0204310Y0097412D01*
X0204163Y0097455D01*
X0204017Y0097502D01*
X0203872Y0097553D01*
X0203729Y0097608D01*
X0203587Y0097666D01*
X0203447Y0097728D01*
X0203308Y0097793D01*
X0203171Y0097862D01*
X0203036Y0097935D01*
X0202903Y0098011D01*
X0202772Y0098091D01*
X0202643Y0098173D01*
X0202516Y0098260D01*
X0202391Y0098349D01*
X0202269Y0098442D01*
X0202150Y0098538D01*
X0202032Y0098637D01*
X0201918Y0098738D01*
X0201806Y0098843D01*
X0201697Y0098951D01*
X0201591Y0099062D01*
X0201487Y0099175D01*
X0201387Y0099291D01*
X0201289Y0099409D01*
X0201195Y0099530D01*
X0201104Y0099653D01*
X0201016Y0099779D01*
X0200932Y0099907D01*
X0200850Y0100037D01*
X0200773Y0100169D01*
X0200698Y0100303D01*
X0200627Y0100439D01*
X0200560Y0100577D01*
X0200496Y0100717D01*
X0200436Y0100858D01*
X0200380Y0101000D01*
X0200327Y0101144D01*
X0200278Y0101290D01*
X0200233Y0101436D01*
X0200192Y0101584D01*
X0200155Y0101732D01*
X0200121Y0101882D01*
X0200091Y0102033D01*
X0200066Y0102184D01*
X0200044Y0102335D01*
X0200026Y0102488D01*
X0200012Y0102640D01*
X0200002Y0102793D01*
X0199996Y0102947D01*
X0199994Y0103100D01*
X0140107Y0060161D02*
X0140109Y0060242D01*
X0140115Y0060324D01*
X0140125Y0060405D01*
X0140139Y0060485D01*
X0140156Y0060564D01*
X0140178Y0060643D01*
X0140203Y0060720D01*
X0140232Y0060797D01*
X0140265Y0060871D01*
X0140302Y0060944D01*
X0140341Y0061015D01*
X0140385Y0061084D01*
X0140431Y0061151D01*
X0140481Y0061215D01*
X0140534Y0061277D01*
X0140590Y0061337D01*
X0140648Y0061393D01*
X0140710Y0061447D01*
X0140774Y0061498D01*
X0140840Y0061545D01*
X0140908Y0061589D01*
X0140979Y0061630D01*
X0141051Y0061667D01*
X0141126Y0061701D01*
X0141201Y0061731D01*
X0141279Y0061757D01*
X0141357Y0061780D01*
X0141436Y0061798D01*
X0141516Y0061813D01*
X0141597Y0061824D01*
X0141678Y0061831D01*
X0141760Y0061834D01*
X0141841Y0061833D01*
X0141922Y0061828D01*
X0142003Y0061819D01*
X0142084Y0061806D01*
X0142164Y0061789D01*
X0142242Y0061769D01*
X0142320Y0061744D01*
X0142397Y0061716D01*
X0142472Y0061684D01*
X0142545Y0061649D01*
X0142616Y0061610D01*
X0142686Y0061567D01*
X0142753Y0061522D01*
X0142819Y0061473D01*
X0142881Y0061421D01*
X0142941Y0061365D01*
X0142998Y0061307D01*
X0143053Y0061247D01*
X0143104Y0061183D01*
X0143152Y0061118D01*
X0143197Y0061050D01*
X0143239Y0060980D01*
X0143277Y0060908D01*
X0143312Y0060834D01*
X0143343Y0060759D01*
X0143370Y0060682D01*
X0143393Y0060604D01*
X0143413Y0060525D01*
X0143429Y0060445D01*
X0143441Y0060364D01*
X0143449Y0060283D01*
X0143453Y0060202D01*
X0143453Y0060120D01*
X0143449Y0060039D01*
X0143441Y0059958D01*
X0143429Y0059877D01*
X0143413Y0059797D01*
X0143393Y0059718D01*
X0143370Y0059640D01*
X0143343Y0059563D01*
X0143312Y0059488D01*
X0143277Y0059414D01*
X0143239Y0059342D01*
X0143197Y0059272D01*
X0143152Y0059204D01*
X0143104Y0059139D01*
X0143053Y0059075D01*
X0142998Y0059015D01*
X0142941Y0058957D01*
X0142881Y0058901D01*
X0142819Y0058849D01*
X0142753Y0058800D01*
X0142686Y0058755D01*
X0142617Y0058712D01*
X0142545Y0058673D01*
X0142472Y0058638D01*
X0142397Y0058606D01*
X0142320Y0058578D01*
X0142242Y0058553D01*
X0142164Y0058533D01*
X0142084Y0058516D01*
X0142003Y0058503D01*
X0141922Y0058494D01*
X0141841Y0058489D01*
X0141760Y0058488D01*
X0141678Y0058491D01*
X0141597Y0058498D01*
X0141516Y0058509D01*
X0141436Y0058524D01*
X0141357Y0058542D01*
X0141279Y0058565D01*
X0141201Y0058591D01*
X0141126Y0058621D01*
X0141051Y0058655D01*
X0140979Y0058692D01*
X0140908Y0058733D01*
X0140840Y0058777D01*
X0140774Y0058824D01*
X0140710Y0058875D01*
X0140648Y0058929D01*
X0140590Y0058985D01*
X0140534Y0059045D01*
X0140481Y0059107D01*
X0140431Y0059171D01*
X0140385Y0059238D01*
X0140341Y0059307D01*
X0140302Y0059378D01*
X0140265Y0059451D01*
X0140232Y0059525D01*
X0140203Y0059602D01*
X0140178Y0059679D01*
X0140156Y0059758D01*
X0140139Y0059837D01*
X0140125Y0059917D01*
X0140115Y0059998D01*
X0140109Y0060080D01*
X0140107Y0060161D01*
X0125147Y0060161D02*
X0125149Y0060242D01*
X0125155Y0060324D01*
X0125165Y0060405D01*
X0125179Y0060485D01*
X0125196Y0060564D01*
X0125218Y0060643D01*
X0125243Y0060720D01*
X0125272Y0060797D01*
X0125305Y0060871D01*
X0125342Y0060944D01*
X0125381Y0061015D01*
X0125425Y0061084D01*
X0125471Y0061151D01*
X0125521Y0061215D01*
X0125574Y0061277D01*
X0125630Y0061337D01*
X0125688Y0061393D01*
X0125750Y0061447D01*
X0125814Y0061498D01*
X0125880Y0061545D01*
X0125948Y0061589D01*
X0126019Y0061630D01*
X0126091Y0061667D01*
X0126166Y0061701D01*
X0126241Y0061731D01*
X0126319Y0061757D01*
X0126397Y0061780D01*
X0126476Y0061798D01*
X0126556Y0061813D01*
X0126637Y0061824D01*
X0126718Y0061831D01*
X0126800Y0061834D01*
X0126881Y0061833D01*
X0126962Y0061828D01*
X0127043Y0061819D01*
X0127124Y0061806D01*
X0127204Y0061789D01*
X0127282Y0061769D01*
X0127360Y0061744D01*
X0127437Y0061716D01*
X0127512Y0061684D01*
X0127585Y0061649D01*
X0127656Y0061610D01*
X0127726Y0061567D01*
X0127793Y0061522D01*
X0127859Y0061473D01*
X0127921Y0061421D01*
X0127981Y0061365D01*
X0128038Y0061307D01*
X0128093Y0061247D01*
X0128144Y0061183D01*
X0128192Y0061118D01*
X0128237Y0061050D01*
X0128279Y0060980D01*
X0128317Y0060908D01*
X0128352Y0060834D01*
X0128383Y0060759D01*
X0128410Y0060682D01*
X0128433Y0060604D01*
X0128453Y0060525D01*
X0128469Y0060445D01*
X0128481Y0060364D01*
X0128489Y0060283D01*
X0128493Y0060202D01*
X0128493Y0060120D01*
X0128489Y0060039D01*
X0128481Y0059958D01*
X0128469Y0059877D01*
X0128453Y0059797D01*
X0128433Y0059718D01*
X0128410Y0059640D01*
X0128383Y0059563D01*
X0128352Y0059488D01*
X0128317Y0059414D01*
X0128279Y0059342D01*
X0128237Y0059272D01*
X0128192Y0059204D01*
X0128144Y0059139D01*
X0128093Y0059075D01*
X0128038Y0059015D01*
X0127981Y0058957D01*
X0127921Y0058901D01*
X0127859Y0058849D01*
X0127793Y0058800D01*
X0127726Y0058755D01*
X0127657Y0058712D01*
X0127585Y0058673D01*
X0127512Y0058638D01*
X0127437Y0058606D01*
X0127360Y0058578D01*
X0127282Y0058553D01*
X0127204Y0058533D01*
X0127124Y0058516D01*
X0127043Y0058503D01*
X0126962Y0058494D01*
X0126881Y0058489D01*
X0126800Y0058488D01*
X0126718Y0058491D01*
X0126637Y0058498D01*
X0126556Y0058509D01*
X0126476Y0058524D01*
X0126397Y0058542D01*
X0126319Y0058565D01*
X0126241Y0058591D01*
X0126166Y0058621D01*
X0126091Y0058655D01*
X0126019Y0058692D01*
X0125948Y0058733D01*
X0125880Y0058777D01*
X0125814Y0058824D01*
X0125750Y0058875D01*
X0125688Y0058929D01*
X0125630Y0058985D01*
X0125574Y0059045D01*
X0125521Y0059107D01*
X0125471Y0059171D01*
X0125425Y0059238D01*
X0125381Y0059307D01*
X0125342Y0059378D01*
X0125305Y0059451D01*
X0125272Y0059525D01*
X0125243Y0059602D01*
X0125218Y0059679D01*
X0125196Y0059758D01*
X0125179Y0059837D01*
X0125165Y0059917D01*
X0125155Y0059998D01*
X0125149Y0060080D01*
X0125147Y0060161D01*
X0058794Y0103100D02*
X0058796Y0103253D01*
X0058802Y0103407D01*
X0058812Y0103560D01*
X0058826Y0103712D01*
X0058844Y0103865D01*
X0058866Y0104016D01*
X0058891Y0104167D01*
X0058921Y0104318D01*
X0058955Y0104468D01*
X0058992Y0104616D01*
X0059033Y0104764D01*
X0059078Y0104910D01*
X0059127Y0105056D01*
X0059180Y0105200D01*
X0059236Y0105342D01*
X0059296Y0105483D01*
X0059360Y0105623D01*
X0059427Y0105761D01*
X0059498Y0105897D01*
X0059573Y0106031D01*
X0059650Y0106163D01*
X0059732Y0106293D01*
X0059816Y0106421D01*
X0059904Y0106547D01*
X0059995Y0106670D01*
X0060089Y0106791D01*
X0060187Y0106909D01*
X0060287Y0107025D01*
X0060391Y0107138D01*
X0060497Y0107249D01*
X0060606Y0107357D01*
X0060718Y0107462D01*
X0060832Y0107563D01*
X0060950Y0107662D01*
X0061069Y0107758D01*
X0061191Y0107851D01*
X0061316Y0107940D01*
X0061443Y0108027D01*
X0061572Y0108109D01*
X0061703Y0108189D01*
X0061836Y0108265D01*
X0061971Y0108338D01*
X0062108Y0108407D01*
X0062247Y0108472D01*
X0062387Y0108534D01*
X0062529Y0108592D01*
X0062672Y0108647D01*
X0062817Y0108698D01*
X0062963Y0108745D01*
X0063110Y0108788D01*
X0063258Y0108827D01*
X0063407Y0108863D01*
X0063557Y0108894D01*
X0063708Y0108922D01*
X0063859Y0108946D01*
X0064012Y0108966D01*
X0064164Y0108982D01*
X0064317Y0108994D01*
X0064470Y0109002D01*
X0064623Y0109006D01*
X0064777Y0109006D01*
X0064930Y0109002D01*
X0065083Y0108994D01*
X0065236Y0108982D01*
X0065388Y0108966D01*
X0065541Y0108946D01*
X0065692Y0108922D01*
X0065843Y0108894D01*
X0065993Y0108863D01*
X0066142Y0108827D01*
X0066290Y0108788D01*
X0066437Y0108745D01*
X0066583Y0108698D01*
X0066728Y0108647D01*
X0066871Y0108592D01*
X0067013Y0108534D01*
X0067153Y0108472D01*
X0067292Y0108407D01*
X0067429Y0108338D01*
X0067564Y0108265D01*
X0067697Y0108189D01*
X0067828Y0108109D01*
X0067957Y0108027D01*
X0068084Y0107940D01*
X0068209Y0107851D01*
X0068331Y0107758D01*
X0068450Y0107662D01*
X0068568Y0107563D01*
X0068682Y0107462D01*
X0068794Y0107357D01*
X0068903Y0107249D01*
X0069009Y0107138D01*
X0069113Y0107025D01*
X0069213Y0106909D01*
X0069311Y0106791D01*
X0069405Y0106670D01*
X0069496Y0106547D01*
X0069584Y0106421D01*
X0069668Y0106293D01*
X0069750Y0106163D01*
X0069827Y0106031D01*
X0069902Y0105897D01*
X0069973Y0105761D01*
X0070040Y0105623D01*
X0070104Y0105483D01*
X0070164Y0105342D01*
X0070220Y0105200D01*
X0070273Y0105056D01*
X0070322Y0104910D01*
X0070367Y0104764D01*
X0070408Y0104616D01*
X0070445Y0104468D01*
X0070479Y0104318D01*
X0070509Y0104167D01*
X0070534Y0104016D01*
X0070556Y0103865D01*
X0070574Y0103712D01*
X0070588Y0103560D01*
X0070598Y0103407D01*
X0070604Y0103253D01*
X0070606Y0103100D01*
X0070604Y0102947D01*
X0070598Y0102793D01*
X0070588Y0102640D01*
X0070574Y0102488D01*
X0070556Y0102335D01*
X0070534Y0102184D01*
X0070509Y0102033D01*
X0070479Y0101882D01*
X0070445Y0101732D01*
X0070408Y0101584D01*
X0070367Y0101436D01*
X0070322Y0101290D01*
X0070273Y0101144D01*
X0070220Y0101000D01*
X0070164Y0100858D01*
X0070104Y0100717D01*
X0070040Y0100577D01*
X0069973Y0100439D01*
X0069902Y0100303D01*
X0069827Y0100169D01*
X0069750Y0100037D01*
X0069668Y0099907D01*
X0069584Y0099779D01*
X0069496Y0099653D01*
X0069405Y0099530D01*
X0069311Y0099409D01*
X0069213Y0099291D01*
X0069113Y0099175D01*
X0069009Y0099062D01*
X0068903Y0098951D01*
X0068794Y0098843D01*
X0068682Y0098738D01*
X0068568Y0098637D01*
X0068450Y0098538D01*
X0068331Y0098442D01*
X0068209Y0098349D01*
X0068084Y0098260D01*
X0067957Y0098173D01*
X0067828Y0098091D01*
X0067697Y0098011D01*
X0067564Y0097935D01*
X0067429Y0097862D01*
X0067292Y0097793D01*
X0067153Y0097728D01*
X0067013Y0097666D01*
X0066871Y0097608D01*
X0066728Y0097553D01*
X0066583Y0097502D01*
X0066437Y0097455D01*
X0066290Y0097412D01*
X0066142Y0097373D01*
X0065993Y0097337D01*
X0065843Y0097306D01*
X0065692Y0097278D01*
X0065541Y0097254D01*
X0065388Y0097234D01*
X0065236Y0097218D01*
X0065083Y0097206D01*
X0064930Y0097198D01*
X0064777Y0097194D01*
X0064623Y0097194D01*
X0064470Y0097198D01*
X0064317Y0097206D01*
X0064164Y0097218D01*
X0064012Y0097234D01*
X0063859Y0097254D01*
X0063708Y0097278D01*
X0063557Y0097306D01*
X0063407Y0097337D01*
X0063258Y0097373D01*
X0063110Y0097412D01*
X0062963Y0097455D01*
X0062817Y0097502D01*
X0062672Y0097553D01*
X0062529Y0097608D01*
X0062387Y0097666D01*
X0062247Y0097728D01*
X0062108Y0097793D01*
X0061971Y0097862D01*
X0061836Y0097935D01*
X0061703Y0098011D01*
X0061572Y0098091D01*
X0061443Y0098173D01*
X0061316Y0098260D01*
X0061191Y0098349D01*
X0061069Y0098442D01*
X0060950Y0098538D01*
X0060832Y0098637D01*
X0060718Y0098738D01*
X0060606Y0098843D01*
X0060497Y0098951D01*
X0060391Y0099062D01*
X0060287Y0099175D01*
X0060187Y0099291D01*
X0060089Y0099409D01*
X0059995Y0099530D01*
X0059904Y0099653D01*
X0059816Y0099779D01*
X0059732Y0099907D01*
X0059650Y0100037D01*
X0059573Y0100169D01*
X0059498Y0100303D01*
X0059427Y0100439D01*
X0059360Y0100577D01*
X0059296Y0100717D01*
X0059236Y0100858D01*
X0059180Y0101000D01*
X0059127Y0101144D01*
X0059078Y0101290D01*
X0059033Y0101436D01*
X0058992Y0101584D01*
X0058955Y0101732D01*
X0058921Y0101882D01*
X0058891Y0102033D01*
X0058866Y0102184D01*
X0058844Y0102335D01*
X0058826Y0102488D01*
X0058812Y0102640D01*
X0058802Y0102793D01*
X0058796Y0102947D01*
X0058794Y0103100D01*
D13*
X0063406Y0140700D03*
X0208394Y0140700D03*
M02*
