G75*
%MOIN*%
%OFA0B0*%
%FSLAX25Y25*%
%IPPOS*%
%LPD*%
%AMOC8*
5,1,8,0,0,1.08239X$1,22.5*
%
%ADD10C,0.05600*%
%ADD11R,0.05906X0.05906*%
%ADD12C,0.06400*%
%ADD13C,0.03937*%
%ADD14C,0.03962*%
%ADD15C,0.02200*%
%ADD16C,0.01600*%
%ADD17C,0.02000*%
%ADD18C,0.01200*%
%ADD19C,0.01000*%
%ADD20C,0.02978*%
D10*
X0065900Y0054900D02*
X0071500Y0054900D01*
X0071500Y0064900D02*
X0065900Y0064900D01*
X0061300Y0076300D02*
X0061300Y0081900D01*
X0071300Y0081900D02*
X0071300Y0076300D01*
X0187500Y0062500D02*
X0193100Y0062500D01*
X0193100Y0052500D02*
X0187500Y0052500D01*
D11*
X0159300Y0125700D03*
X0159300Y0155700D03*
X0112500Y0155700D03*
X0112500Y0125700D03*
D12*
X0200300Y0062500D03*
X0210300Y0062500D03*
X0220300Y0062500D03*
X0220300Y0052500D03*
X0210300Y0052500D03*
X0200300Y0052500D03*
D13*
X0217500Y0080700D03*
X0051100Y0053500D03*
X0050300Y0169500D03*
D14*
X0051100Y0190300D03*
X0080700Y0197500D03*
X0098300Y0191900D03*
X0101500Y0183100D03*
X0106300Y0178300D03*
X0107900Y0186300D03*
X0130300Y0185500D03*
X0136700Y0178300D03*
X0134300Y0196700D03*
X0163100Y0185500D03*
X0163900Y0195900D03*
X0175100Y0188700D03*
X0190300Y0184700D03*
X0201500Y0180700D03*
X0200700Y0191900D03*
X0219100Y0189500D03*
X0190300Y0169500D03*
X0162300Y0165500D03*
X0172700Y0136700D03*
X0183100Y0127900D03*
X0163100Y0110300D03*
X0159100Y0107100D03*
X0153500Y0111100D03*
X0143100Y0106300D03*
X0126300Y0103900D03*
X0119900Y0102300D03*
X0111900Y0104700D03*
X0101500Y0098300D03*
X0099900Y0091100D03*
X0101500Y0084700D03*
X0103100Y0078300D03*
X0121500Y0091900D03*
X0129500Y0091900D03*
X0129500Y0083900D03*
X0131900Y0075900D03*
X0139100Y0083100D03*
X0147100Y0079900D03*
X0152700Y0086300D03*
X0155900Y0081500D03*
X0161500Y0079100D03*
X0152700Y0066300D03*
X0166300Y0065500D03*
X0174300Y0069500D03*
X0184700Y0069500D03*
X0184700Y0075100D03*
X0190300Y0075100D03*
X0197500Y0080700D03*
X0203100Y0077500D03*
X0201500Y0071900D03*
X0188700Y0083900D03*
X0184700Y0091900D03*
X0184700Y0097500D03*
X0174300Y0108700D03*
X0151900Y0134300D03*
X0137500Y0138300D03*
X0132700Y0135100D03*
X0132700Y0127900D03*
X0122300Y0144700D03*
X0127900Y0148700D03*
X0123100Y0151100D03*
X0127100Y0162300D03*
X0110354Y0145554D03*
X0093500Y0143900D03*
X0099900Y0163900D03*
X0087900Y0116700D03*
X0083100Y0082300D03*
X0126300Y0048700D03*
X0213500Y0086300D03*
D15*
X0220300Y0052500D02*
X0219900Y0052100D01*
X0219900Y0048700D01*
X0218300Y0047100D01*
X0128700Y0047100D01*
X0119742Y0060981D02*
X0112362Y0068362D01*
X0114300Y0070300D01*
X0114300Y0098300D01*
X0111900Y0100700D01*
X0111900Y0104700D01*
X0087900Y0116700D02*
X0087900Y0159900D01*
X0106300Y0178300D01*
X0101500Y0183100D02*
X0083900Y0165500D01*
X0083900Y0114300D01*
X0084700Y0113500D01*
X0084700Y0091900D01*
X0083100Y0090300D01*
X0083100Y0082300D01*
X0079900Y0079100D01*
X0079900Y0067100D01*
X0085500Y0072700D01*
X0108023Y0072700D01*
X0112362Y0068362D01*
X0085500Y0063100D02*
X0077300Y0054900D01*
X0068700Y0054900D01*
X0068900Y0064700D02*
X0068700Y0064900D01*
X0068900Y0064700D02*
X0077500Y0064700D01*
X0079900Y0067100D01*
X0071100Y0078900D02*
X0071300Y0079100D01*
X0079100Y0116700D02*
X0080700Y0118300D01*
X0080700Y0163100D01*
X0078300Y0165500D01*
X0071900Y0165500D01*
X0059100Y0178300D01*
X0092700Y0153500D02*
X0092700Y0144700D01*
X0093500Y0143900D01*
X0092700Y0153500D02*
X0099900Y0160700D01*
X0099900Y0161500D01*
X0102300Y0163900D01*
X0124700Y0163900D01*
X0126300Y0162300D01*
X0127100Y0162300D01*
X0110354Y0145554D02*
X0111100Y0144807D01*
X0111100Y0135100D01*
X0111900Y0134300D01*
X0118300Y0134300D01*
X0124700Y0127900D01*
X0132700Y0127900D01*
X0099900Y0161500D02*
X0099900Y0163900D01*
D16*
X0106300Y0178300D02*
X0107100Y0179100D01*
X0135900Y0179100D01*
X0136700Y0178300D01*
X0136700Y0178883D01*
X0137500Y0178083D01*
X0190083Y0178083D01*
X0195100Y0183100D01*
X0195100Y0189500D01*
X0193500Y0191100D01*
X0177500Y0191100D01*
X0175100Y0188700D01*
X0163900Y0195900D02*
X0195100Y0195900D01*
X0197500Y0193500D01*
X0197500Y0180700D01*
X0197500Y0177500D01*
X0190300Y0170300D01*
X0190300Y0169500D01*
X0190300Y0164700D01*
X0187900Y0162300D01*
X0163100Y0162300D01*
X0127100Y0162300D01*
X0136117Y0178083D02*
X0137500Y0178083D01*
X0130300Y0183100D02*
X0130300Y0185500D01*
X0130300Y0192700D01*
X0134300Y0196700D01*
X0130300Y0183100D02*
X0163100Y0183100D01*
X0163100Y0185500D01*
X0163100Y0183100D02*
X0188700Y0183100D01*
X0190300Y0184700D01*
X0130300Y0183100D02*
X0101500Y0183100D01*
D17*
X0119742Y0060981D02*
X0124023Y0056700D01*
X0171900Y0056700D01*
X0172700Y0057500D01*
X0199100Y0057500D01*
X0200300Y0056300D01*
X0200300Y0052500D01*
X0128700Y0047100D02*
X0127100Y0048700D01*
X0126300Y0048700D01*
D18*
X0107100Y0078300D02*
X0103100Y0078300D01*
X0107100Y0078300D02*
X0108700Y0079900D01*
X0108700Y0101500D01*
X0107100Y0103100D01*
X0107100Y0107900D01*
X0108700Y0109500D01*
X0126300Y0109500D01*
X0128700Y0111900D01*
X0145500Y0111900D01*
X0159300Y0125700D01*
X0140700Y0128700D02*
X0140700Y0151900D01*
X0144700Y0155900D01*
X0159100Y0155900D01*
X0159300Y0155700D01*
X0159900Y0155100D01*
X0163100Y0162300D02*
X0162300Y0163100D01*
X0162300Y0165500D01*
X0175100Y0188700D02*
X0174300Y0189500D01*
X0160700Y0189500D01*
X0157500Y0192700D01*
X0157500Y0197500D01*
X0159900Y0199900D01*
X0210300Y0199900D01*
X0219100Y0191100D01*
X0219100Y0189500D01*
X0140700Y0128700D02*
X0125500Y0113500D01*
X0109500Y0113500D01*
X0104700Y0108700D01*
X0104700Y0102300D01*
X0106300Y0100700D01*
X0106300Y0086300D01*
X0104700Y0084700D01*
X0101500Y0084700D01*
X0099900Y0091100D02*
X0098300Y0092700D01*
X0098300Y0111100D01*
X0104700Y0117500D01*
X0104700Y0147900D01*
X0112500Y0155700D01*
X0112500Y0125700D02*
X0107100Y0120300D01*
X0107100Y0115100D01*
X0101500Y0109500D01*
X0101500Y0098300D01*
X0107900Y0186300D02*
X0107900Y0190300D01*
X0098300Y0199900D01*
X0083100Y0199900D01*
X0080700Y0197500D01*
D19*
X0045989Y0046693D02*
X0047517Y0045842D01*
X0048369Y0045694D01*
X0221804Y0045694D01*
X0222782Y0045881D01*
X0224590Y0046830D01*
X0225897Y0048398D01*
X0226504Y0050348D01*
X0226512Y0051353D01*
X0224581Y0063229D01*
X0224581Y0063230D01*
X0222118Y0087324D01*
X0221654Y0098210D01*
X0219533Y0093805D01*
X0216188Y0090200D01*
X0216188Y0090200D01*
X0216188Y0090200D01*
X0211928Y0087741D01*
X0211928Y0087741D01*
X0207133Y0086646D01*
X0207133Y0086646D01*
X0202228Y0087014D01*
X0202228Y0087014D01*
X0197650Y0088811D01*
X0197650Y0088811D01*
X0193805Y0091877D01*
X0193805Y0091877D01*
X0193805Y0091877D01*
X0191034Y0095941D01*
X0191034Y0095941D01*
X0189584Y0100641D01*
X0189584Y0105559D01*
X0191034Y0110259D01*
X0191034Y0110259D01*
X0193805Y0114323D01*
X0193805Y0114323D01*
X0197650Y0117389D01*
X0197650Y0117389D01*
X0202228Y0119186D01*
X0202228Y0119186D01*
X0206824Y0119531D01*
X0193424Y0119531D01*
X0193131Y0119824D01*
X0193131Y0161576D01*
X0193424Y0161869D01*
X0223365Y0161869D01*
X0223570Y0161665D01*
X0226592Y0183888D01*
X0228912Y0195666D01*
X0228915Y0196735D01*
X0228348Y0198871D01*
X0227082Y0200682D01*
X0225271Y0201948D01*
X0223135Y0202515D01*
X0222484Y0202513D01*
X0222477Y0202506D01*
X0221963Y0202506D01*
X0221451Y0202460D01*
X0221395Y0202506D01*
X0051959Y0202506D01*
X0051863Y0202436D01*
X0051396Y0202506D01*
X0050923Y0202506D01*
X0050882Y0202547D01*
X0049893Y0202608D01*
X0047157Y0202051D01*
X0044778Y0200588D01*
X0043046Y0198397D01*
X0042171Y0195744D01*
X0042097Y0194420D01*
X0044428Y0182763D01*
X0046011Y0171372D01*
X0046021Y0171378D01*
X0046111Y0171571D01*
X0046098Y0171644D01*
X0046238Y0171845D01*
X0046342Y0172067D01*
X0046412Y0172092D01*
X0046534Y0172267D01*
X0046534Y0172341D01*
X0046707Y0172515D01*
X0046848Y0172715D01*
X0046921Y0172728D01*
X0047072Y0172879D01*
X0047085Y0172952D01*
X0047285Y0173093D01*
X0047459Y0173266D01*
X0047533Y0173266D01*
X0047708Y0173388D01*
X0047733Y0173458D01*
X0047955Y0173562D01*
X0048156Y0173702D01*
X0048229Y0173689D01*
X0048422Y0173779D01*
X0048459Y0173844D01*
X0048696Y0173907D01*
X0048918Y0174011D01*
X0048988Y0173985D01*
X0049194Y0174040D01*
X0049241Y0174097D01*
X0049486Y0174119D01*
X0049722Y0174182D01*
X0049787Y0174145D01*
X0049999Y0174164D01*
X0050056Y0174211D01*
X0050300Y0174190D01*
X0050544Y0174211D01*
X0050601Y0174164D01*
X0050813Y0174145D01*
X0050878Y0174182D01*
X0051114Y0174119D01*
X0051358Y0174097D01*
X0051406Y0174040D01*
X0051612Y0173985D01*
X0051682Y0174011D01*
X0051904Y0173907D01*
X0052141Y0173844D01*
X0052178Y0173779D01*
X0052371Y0173689D01*
X0052444Y0173702D01*
X0052645Y0173562D01*
X0052867Y0173458D01*
X0052892Y0173388D01*
X0053067Y0173266D01*
X0053141Y0173266D01*
X0053315Y0173093D01*
X0053515Y0172952D01*
X0053528Y0172879D01*
X0053679Y0172728D01*
X0053752Y0172715D01*
X0053893Y0172515D01*
X0054066Y0172341D01*
X0054066Y0172267D01*
X0054188Y0172092D01*
X0054258Y0172067D01*
X0054362Y0171845D01*
X0054502Y0171644D01*
X0054489Y0171571D01*
X0054579Y0171378D01*
X0054644Y0171341D01*
X0054707Y0171104D01*
X0054811Y0170882D01*
X0054785Y0170812D01*
X0054840Y0170606D01*
X0054897Y0170558D01*
X0054919Y0170314D01*
X0054982Y0170078D01*
X0054945Y0170013D01*
X0054964Y0169801D01*
X0055011Y0169744D01*
X0054990Y0169500D01*
X0055011Y0169256D01*
X0054964Y0169199D01*
X0054945Y0168987D01*
X0054982Y0168922D01*
X0054919Y0168686D01*
X0054897Y0168441D01*
X0054840Y0168394D01*
X0054785Y0168188D01*
X0054811Y0168118D01*
X0054707Y0167896D01*
X0054644Y0167659D01*
X0054579Y0167622D01*
X0054489Y0167429D01*
X0054502Y0167356D01*
X0054362Y0167155D01*
X0054258Y0166933D01*
X0054188Y0166908D01*
X0054066Y0166733D01*
X0054066Y0166659D01*
X0053893Y0166485D01*
X0053752Y0166285D01*
X0053679Y0166272D01*
X0053528Y0166121D01*
X0053515Y0166048D01*
X0053315Y0165907D01*
X0053141Y0165734D01*
X0053067Y0165734D01*
X0052892Y0165612D01*
X0052867Y0165542D01*
X0052645Y0165438D01*
X0052444Y0165298D01*
X0052371Y0165311D01*
X0052178Y0165221D01*
X0052141Y0165156D01*
X0051904Y0165093D01*
X0051682Y0164989D01*
X0051612Y0165015D01*
X0051406Y0164960D01*
X0051358Y0164903D01*
X0051114Y0164881D01*
X0050878Y0164818D01*
X0050813Y0164855D01*
X0050601Y0164836D01*
X0050544Y0164789D01*
X0050300Y0164810D01*
X0050056Y0164789D01*
X0049999Y0164836D01*
X0049787Y0164855D01*
X0049722Y0164818D01*
X0049486Y0164881D01*
X0049241Y0164903D01*
X0049194Y0164960D01*
X0048988Y0165015D01*
X0048918Y0164989D01*
X0048696Y0165093D01*
X0048459Y0165156D01*
X0048422Y0165221D01*
X0048229Y0165311D01*
X0048156Y0165298D01*
X0047955Y0165438D01*
X0047733Y0165542D01*
X0047708Y0165612D01*
X0047533Y0165734D01*
X0047459Y0165734D01*
X0047285Y0165907D01*
X0047085Y0166048D01*
X0047072Y0166121D01*
X0046921Y0166272D01*
X0046848Y0166285D01*
X0046707Y0166485D01*
X0046687Y0166505D01*
X0047744Y0158906D01*
X0048142Y0153864D01*
X0048142Y0161576D01*
X0048435Y0161869D01*
X0078376Y0161869D01*
X0078669Y0161576D01*
X0078669Y0119824D01*
X0078376Y0119531D01*
X0066034Y0119531D01*
X0070728Y0118459D01*
X0070728Y0118459D01*
X0074988Y0116000D01*
X0074988Y0116000D01*
X0078333Y0112395D01*
X0078333Y0112395D01*
X0080467Y0107963D01*
X0080467Y0107963D01*
X0081200Y0103100D01*
X0080467Y0098237D01*
X0080467Y0098237D01*
X0078333Y0093805D01*
X0078333Y0093805D01*
X0074988Y0090200D01*
X0074988Y0090200D01*
X0070728Y0087741D01*
X0070728Y0087741D01*
X0065933Y0086646D01*
X0065933Y0086646D01*
X0061028Y0087014D01*
X0061028Y0087014D01*
X0056450Y0088811D01*
X0056450Y0088811D01*
X0052605Y0091877D01*
X0052605Y0091877D01*
X0052605Y0091877D01*
X0049834Y0095941D01*
X0049834Y0095941D01*
X0049556Y0096843D01*
X0049155Y0086743D01*
X0046774Y0062773D01*
X0044952Y0051354D01*
X0044999Y0051268D01*
X0044863Y0050795D01*
X0044785Y0050310D01*
X0044768Y0050298D01*
X0044691Y0049846D01*
X0044981Y0048121D01*
X0045989Y0046693D01*
X0045706Y0047094D02*
X0224810Y0047094D01*
X0225642Y0048093D02*
X0221945Y0048093D01*
X0222104Y0048144D02*
X0222763Y0048480D01*
X0223362Y0048915D01*
X0223885Y0049438D01*
X0224320Y0050037D01*
X0224656Y0050696D01*
X0224884Y0051399D01*
X0224997Y0052114D01*
X0220686Y0052114D01*
X0220686Y0052886D01*
X0219914Y0052886D01*
X0219914Y0057197D01*
X0219199Y0057084D01*
X0218496Y0056856D01*
X0217837Y0056520D01*
X0217238Y0056085D01*
X0216715Y0055562D01*
X0216280Y0054963D01*
X0215944Y0054304D01*
X0215716Y0053601D01*
X0215603Y0052886D01*
X0219914Y0052886D01*
X0219914Y0052114D01*
X0215603Y0052114D01*
X0215716Y0051399D01*
X0215944Y0050696D01*
X0216280Y0050037D01*
X0216715Y0049438D01*
X0217238Y0048915D01*
X0217837Y0048480D01*
X0218496Y0048144D01*
X0219199Y0047916D01*
X0219914Y0047803D01*
X0219914Y0052114D01*
X0220686Y0052114D01*
X0220686Y0047803D01*
X0221401Y0047916D01*
X0222104Y0048144D01*
X0220686Y0048093D02*
X0219914Y0048093D01*
X0219914Y0049091D02*
X0220686Y0049091D01*
X0220686Y0050090D02*
X0219914Y0050090D01*
X0219914Y0051088D02*
X0220686Y0051088D01*
X0220686Y0052087D02*
X0219914Y0052087D01*
X0219914Y0053085D02*
X0220686Y0053085D01*
X0220686Y0052886D02*
X0220686Y0057197D01*
X0221401Y0057084D01*
X0222104Y0056856D01*
X0222763Y0056520D01*
X0223362Y0056085D01*
X0223885Y0055562D01*
X0224320Y0054963D01*
X0224656Y0054304D01*
X0224884Y0053601D01*
X0224997Y0052886D01*
X0220686Y0052886D01*
X0220686Y0054084D02*
X0219914Y0054084D01*
X0219914Y0055082D02*
X0220686Y0055082D01*
X0220686Y0056081D02*
X0219914Y0056081D01*
X0219914Y0057079D02*
X0220686Y0057079D01*
X0221416Y0057079D02*
X0225581Y0057079D01*
X0225743Y0056081D02*
X0223366Y0056081D01*
X0224233Y0055082D02*
X0225906Y0055082D01*
X0226068Y0054084D02*
X0224727Y0054084D01*
X0224966Y0053085D02*
X0226230Y0053085D01*
X0226393Y0052087D02*
X0224993Y0052087D01*
X0224783Y0051088D02*
X0226510Y0051088D01*
X0226424Y0050090D02*
X0224347Y0050090D01*
X0223538Y0049091D02*
X0226113Y0049091D01*
X0223191Y0046096D02*
X0047061Y0046096D01*
X0045001Y0048093D02*
X0218655Y0048093D01*
X0217062Y0049091D02*
X0212831Y0049091D01*
X0212679Y0048939D02*
X0213861Y0050121D01*
X0214500Y0051665D01*
X0214500Y0053335D01*
X0213861Y0054879D01*
X0212679Y0056061D01*
X0211135Y0056700D01*
X0209465Y0056700D01*
X0207921Y0056061D01*
X0206739Y0054879D01*
X0206100Y0053335D01*
X0206100Y0051665D01*
X0206739Y0050121D01*
X0207921Y0048939D01*
X0209465Y0048300D01*
X0211135Y0048300D01*
X0212679Y0048939D01*
X0213829Y0050090D02*
X0216253Y0050090D01*
X0215817Y0051088D02*
X0214261Y0051088D01*
X0214500Y0052087D02*
X0215607Y0052087D01*
X0215634Y0053085D02*
X0214500Y0053085D01*
X0214190Y0054084D02*
X0215873Y0054084D01*
X0216367Y0055082D02*
X0213658Y0055082D01*
X0212631Y0056081D02*
X0217234Y0056081D01*
X0219184Y0057079D02*
X0202300Y0057079D01*
X0202300Y0057128D02*
X0201128Y0058300D01*
X0201135Y0058300D01*
X0202679Y0058939D01*
X0203861Y0060121D01*
X0204500Y0061665D01*
X0204500Y0063335D01*
X0203861Y0064879D01*
X0202679Y0066061D01*
X0201135Y0066700D01*
X0199465Y0066700D01*
X0198585Y0066336D01*
X0196600Y0068321D01*
X0196600Y0076521D01*
X0195721Y0077400D01*
X0191721Y0081400D01*
X0190416Y0081400D01*
X0191227Y0082211D01*
X0191681Y0083307D01*
X0191681Y0084398D01*
X0194597Y0081482D01*
X0194519Y0081293D01*
X0194519Y0080107D01*
X0194973Y0079011D01*
X0195811Y0078173D01*
X0196907Y0077719D01*
X0198093Y0077719D01*
X0199189Y0078173D01*
X0200027Y0079011D01*
X0200481Y0080107D01*
X0200481Y0081293D01*
X0200027Y0082389D01*
X0199189Y0083227D01*
X0198093Y0083681D01*
X0196907Y0083681D01*
X0196718Y0083603D01*
X0190121Y0090200D01*
X0187216Y0090200D01*
X0187227Y0090211D01*
X0187681Y0091307D01*
X0187681Y0092493D01*
X0187603Y0092682D01*
X0188521Y0093600D01*
X0189400Y0094479D01*
X0189400Y0100521D01*
X0188521Y0101400D01*
X0187000Y0102921D01*
X0187000Y0113321D01*
X0186121Y0114200D01*
X0179800Y0120521D01*
X0179800Y0154921D01*
X0178921Y0155800D01*
X0173321Y0161400D01*
X0153679Y0161400D01*
X0152800Y0160521D01*
X0152079Y0159800D01*
X0118479Y0159800D01*
X0116800Y0158121D01*
X0116800Y0151279D01*
X0117600Y0150479D01*
X0117600Y0150479D01*
X0118479Y0149600D01*
X0120495Y0149600D01*
X0120573Y0149411D01*
X0121411Y0148573D01*
X0122507Y0148119D01*
X0123693Y0148119D01*
X0124789Y0148573D01*
X0124919Y0148703D01*
X0124919Y0148107D01*
X0125154Y0147539D01*
X0124521Y0146695D01*
X0123989Y0147227D01*
X0122893Y0147681D01*
X0121707Y0147681D01*
X0120611Y0147227D01*
X0119773Y0146389D01*
X0119319Y0145293D01*
X0119319Y0144107D01*
X0119397Y0143918D01*
X0118400Y0142921D01*
X0118400Y0136879D01*
X0119279Y0136000D01*
X0121679Y0133600D01*
X0130095Y0133600D01*
X0130173Y0133411D01*
X0131011Y0132573D01*
X0132107Y0132119D01*
X0133293Y0132119D01*
X0134389Y0132573D01*
X0135227Y0133411D01*
X0135681Y0134507D01*
X0135681Y0135693D01*
X0135533Y0136051D01*
X0135811Y0135773D01*
X0136907Y0135319D01*
X0138093Y0135319D01*
X0139100Y0135736D01*
X0139100Y0129363D01*
X0124837Y0115100D01*
X0108837Y0115100D01*
X0108700Y0114963D01*
X0108700Y0119637D01*
X0110810Y0121747D01*
X0115867Y0121747D01*
X0116453Y0122333D01*
X0116453Y0129067D01*
X0115867Y0129653D01*
X0109133Y0129653D01*
X0108547Y0129067D01*
X0108547Y0124010D01*
X0106300Y0121763D01*
X0106300Y0147237D01*
X0110810Y0151747D01*
X0115867Y0151747D01*
X0116453Y0152333D01*
X0116453Y0159067D01*
X0115867Y0159653D01*
X0109133Y0159653D01*
X0108547Y0159067D01*
X0108547Y0154010D01*
X0104037Y0149500D01*
X0103100Y0148563D01*
X0103100Y0118163D01*
X0096700Y0111763D01*
X0096700Y0092037D01*
X0096956Y0091782D01*
X0096919Y0091693D01*
X0096919Y0090507D01*
X0097373Y0089411D01*
X0098211Y0088573D01*
X0099307Y0088119D01*
X0100493Y0088119D01*
X0101589Y0088573D01*
X0102427Y0089411D01*
X0102881Y0090507D01*
X0102881Y0091693D01*
X0102427Y0092789D01*
X0101589Y0093627D01*
X0100493Y0094081D01*
X0099900Y0094081D01*
X0099900Y0095736D01*
X0100907Y0095319D01*
X0102093Y0095319D01*
X0103189Y0095773D01*
X0104027Y0096611D01*
X0104481Y0097707D01*
X0104481Y0098893D01*
X0104027Y0099989D01*
X0103189Y0100827D01*
X0103100Y0100864D01*
X0103100Y0108837D01*
X0103100Y0108837D01*
X0103100Y0101637D01*
X0104700Y0100037D01*
X0104700Y0086963D01*
X0104056Y0086319D01*
X0104027Y0086389D01*
X0103189Y0087227D01*
X0102093Y0087681D01*
X0100907Y0087681D01*
X0099811Y0087227D01*
X0098973Y0086389D01*
X0098519Y0085293D01*
X0098519Y0084107D01*
X0098973Y0083011D01*
X0099811Y0082173D01*
X0100907Y0081719D01*
X0102093Y0081719D01*
X0103189Y0082173D01*
X0104027Y0083011D01*
X0104064Y0083100D01*
X0105363Y0083100D01*
X0106963Y0084700D01*
X0107100Y0084837D01*
X0107100Y0080563D01*
X0106437Y0079900D01*
X0105664Y0079900D01*
X0105627Y0079989D01*
X0104789Y0080827D01*
X0103693Y0081281D01*
X0102507Y0081281D01*
X0101411Y0080827D01*
X0100573Y0079989D01*
X0100119Y0078893D01*
X0100119Y0077707D01*
X0100573Y0076611D01*
X0101411Y0075773D01*
X0102507Y0075319D01*
X0103693Y0075319D01*
X0104789Y0075773D01*
X0105627Y0076611D01*
X0105664Y0076700D01*
X0107763Y0076700D01*
X0109363Y0078300D01*
X0110300Y0079237D01*
X0110300Y0099330D01*
X0112200Y0097430D01*
X0112200Y0071493D01*
X0110123Y0073570D01*
X0108893Y0074800D01*
X0084630Y0074800D01*
X0083400Y0073570D01*
X0082000Y0072170D01*
X0082000Y0078230D01*
X0083089Y0079319D01*
X0083693Y0079319D01*
X0084789Y0079773D01*
X0085627Y0080611D01*
X0086081Y0081707D01*
X0086081Y0082893D01*
X0085627Y0083989D01*
X0085200Y0084416D01*
X0085200Y0089430D01*
X0086800Y0091030D01*
X0086800Y0113929D01*
X0087307Y0113719D01*
X0088493Y0113719D01*
X0089589Y0114173D01*
X0090427Y0115011D01*
X0090881Y0116107D01*
X0090881Y0117293D01*
X0090427Y0118389D01*
X0090000Y0118816D01*
X0090000Y0159030D01*
X0106289Y0175319D01*
X0106893Y0175319D01*
X0107989Y0175773D01*
X0108827Y0176611D01*
X0109112Y0177300D01*
X0133887Y0177300D01*
X0134173Y0176611D01*
X0135011Y0175773D01*
X0136107Y0175319D01*
X0137293Y0175319D01*
X0138389Y0175773D01*
X0138899Y0176283D01*
X0190828Y0176283D01*
X0195846Y0181300D01*
X0196900Y0182354D01*
X0196900Y0190246D01*
X0195300Y0191846D01*
X0194246Y0192900D01*
X0176754Y0192900D01*
X0175536Y0191681D01*
X0174507Y0191681D01*
X0173411Y0191227D01*
X0173284Y0191100D01*
X0161363Y0191100D01*
X0159100Y0193363D01*
X0159100Y0196837D01*
X0160563Y0198300D01*
X0209637Y0198300D01*
X0216661Y0191277D01*
X0216573Y0191189D01*
X0216119Y0190093D01*
X0216119Y0188907D01*
X0216573Y0187811D01*
X0217411Y0186973D01*
X0218507Y0186519D01*
X0219693Y0186519D01*
X0220789Y0186973D01*
X0221627Y0187811D01*
X0222081Y0188907D01*
X0222081Y0190093D01*
X0221627Y0191189D01*
X0220789Y0192027D01*
X0220186Y0192277D01*
X0211900Y0200563D01*
X0210963Y0201500D01*
X0159237Y0201500D01*
X0156837Y0199100D01*
X0155900Y0198163D01*
X0155900Y0192037D01*
X0159100Y0188837D01*
X0160037Y0187900D01*
X0161284Y0187900D01*
X0160573Y0187189D01*
X0160119Y0186093D01*
X0160119Y0184907D01*
X0160122Y0184900D01*
X0133278Y0184900D01*
X0133281Y0184907D01*
X0133281Y0186093D01*
X0132827Y0187189D01*
X0132100Y0187916D01*
X0132100Y0191954D01*
X0133864Y0193719D01*
X0134893Y0193719D01*
X0135989Y0194173D01*
X0136827Y0195011D01*
X0137281Y0196107D01*
X0137281Y0197293D01*
X0136827Y0198389D01*
X0135989Y0199227D01*
X0134893Y0199681D01*
X0133707Y0199681D01*
X0132611Y0199227D01*
X0131773Y0198389D01*
X0131319Y0197293D01*
X0131319Y0196264D01*
X0128500Y0193446D01*
X0128500Y0187916D01*
X0127773Y0187189D01*
X0127319Y0186093D01*
X0127319Y0184907D01*
X0127322Y0184900D01*
X0110547Y0184900D01*
X0110881Y0185707D01*
X0110881Y0186893D01*
X0110427Y0187989D01*
X0109589Y0188827D01*
X0109500Y0188864D01*
X0109500Y0190963D01*
X0099900Y0200563D01*
X0098963Y0201500D01*
X0082437Y0201500D01*
X0081382Y0200444D01*
X0081293Y0200481D01*
X0080107Y0200481D01*
X0079011Y0200027D01*
X0078173Y0199189D01*
X0077719Y0198093D01*
X0077719Y0196907D01*
X0078173Y0195811D01*
X0079011Y0194973D01*
X0080107Y0194519D01*
X0081293Y0194519D01*
X0082389Y0194973D01*
X0083227Y0195811D01*
X0083681Y0196907D01*
X0083681Y0198093D01*
X0083644Y0198182D01*
X0083763Y0198300D01*
X0097637Y0198300D01*
X0106300Y0189637D01*
X0106300Y0188864D01*
X0106211Y0188827D01*
X0105373Y0187989D01*
X0104919Y0186893D01*
X0104919Y0185707D01*
X0105253Y0184900D01*
X0103916Y0184900D01*
X0103189Y0185627D01*
X0102093Y0186081D01*
X0100907Y0186081D01*
X0099811Y0185627D01*
X0098973Y0184789D01*
X0098519Y0183693D01*
X0098519Y0183089D01*
X0081800Y0166370D01*
X0081800Y0113430D01*
X0082600Y0112630D01*
X0082600Y0092770D01*
X0082230Y0092400D01*
X0081000Y0091170D01*
X0081000Y0084416D01*
X0080573Y0083989D01*
X0080119Y0082893D01*
X0080119Y0082289D01*
X0077800Y0079970D01*
X0077800Y0067970D01*
X0076630Y0066800D01*
X0074826Y0066800D01*
X0074721Y0067053D01*
X0073653Y0068121D01*
X0072256Y0068700D01*
X0065144Y0068700D01*
X0063747Y0068121D01*
X0062679Y0067053D01*
X0062100Y0065656D01*
X0062100Y0064144D01*
X0062679Y0062747D01*
X0063747Y0061679D01*
X0065144Y0061100D01*
X0072256Y0061100D01*
X0073653Y0061679D01*
X0074574Y0062600D01*
X0078370Y0062600D01*
X0079600Y0063830D01*
X0082000Y0066230D01*
X0086370Y0070600D01*
X0107153Y0070600D01*
X0110262Y0067492D01*
X0110262Y0067492D01*
X0111492Y0066262D01*
X0118872Y0058881D01*
X0119013Y0058881D01*
X0123195Y0054700D01*
X0172728Y0054700D01*
X0173528Y0055500D01*
X0185126Y0055500D01*
X0184279Y0054653D01*
X0183700Y0053256D01*
X0183700Y0051744D01*
X0184279Y0050347D01*
X0185347Y0049279D01*
X0186744Y0048700D01*
X0193856Y0048700D01*
X0195253Y0049279D01*
X0196321Y0050347D01*
X0196484Y0050739D01*
X0196739Y0050121D01*
X0197921Y0048939D01*
X0199465Y0048300D01*
X0201135Y0048300D01*
X0202679Y0048939D01*
X0203861Y0050121D01*
X0204500Y0051665D01*
X0204500Y0053335D01*
X0203861Y0054879D01*
X0202679Y0056061D01*
X0202300Y0056218D01*
X0202300Y0057128D01*
X0202631Y0056081D02*
X0207969Y0056081D01*
X0206942Y0055082D02*
X0203658Y0055082D01*
X0204190Y0054084D02*
X0206410Y0054084D01*
X0206100Y0053085D02*
X0204500Y0053085D01*
X0204500Y0052087D02*
X0206100Y0052087D01*
X0206339Y0051088D02*
X0204261Y0051088D01*
X0203829Y0050090D02*
X0206771Y0050090D01*
X0207769Y0049091D02*
X0202831Y0049091D01*
X0197769Y0049091D02*
X0194800Y0049091D01*
X0196064Y0050090D02*
X0196771Y0050090D01*
X0201351Y0058078D02*
X0225419Y0058078D01*
X0225257Y0059076D02*
X0222816Y0059076D01*
X0222679Y0058939D02*
X0223861Y0060121D01*
X0224500Y0061665D01*
X0224500Y0063335D01*
X0223861Y0064879D01*
X0222679Y0066061D01*
X0221135Y0066700D01*
X0219465Y0066700D01*
X0217921Y0066061D01*
X0216739Y0064879D01*
X0216100Y0063335D01*
X0216100Y0061665D01*
X0216739Y0060121D01*
X0217921Y0058939D01*
X0219465Y0058300D01*
X0221135Y0058300D01*
X0222679Y0058939D01*
X0223814Y0060075D02*
X0225094Y0060075D01*
X0224932Y0061073D02*
X0224255Y0061073D01*
X0224500Y0062072D02*
X0224770Y0062072D01*
X0224607Y0063070D02*
X0224500Y0063070D01*
X0224496Y0064069D02*
X0224196Y0064069D01*
X0224394Y0065067D02*
X0223672Y0065067D01*
X0224291Y0066066D02*
X0222667Y0066066D01*
X0224189Y0067064D02*
X0208457Y0067064D01*
X0209010Y0066512D02*
X0204403Y0071118D01*
X0204481Y0071307D01*
X0204481Y0072493D01*
X0204027Y0073589D01*
X0203189Y0074427D01*
X0202093Y0074881D01*
X0200907Y0074881D01*
X0199811Y0074427D01*
X0198973Y0073589D01*
X0198519Y0072493D01*
X0198519Y0071307D01*
X0198973Y0070211D01*
X0199811Y0069373D01*
X0200907Y0068919D01*
X0202093Y0068919D01*
X0202282Y0068997D01*
X0206640Y0064639D01*
X0206100Y0063335D01*
X0206100Y0061665D01*
X0206739Y0060121D01*
X0207921Y0058939D01*
X0209465Y0058300D01*
X0211135Y0058300D01*
X0212679Y0058939D01*
X0213861Y0060121D01*
X0214500Y0061665D01*
X0214500Y0063335D01*
X0213861Y0064879D01*
X0212679Y0066061D01*
X0211135Y0066700D01*
X0209465Y0066700D01*
X0209010Y0066512D01*
X0207459Y0068063D02*
X0224087Y0068063D01*
X0223985Y0069061D02*
X0206460Y0069061D01*
X0205461Y0070060D02*
X0223883Y0070060D01*
X0223781Y0071058D02*
X0204463Y0071058D01*
X0204481Y0072057D02*
X0223679Y0072057D01*
X0223577Y0073055D02*
X0204248Y0073055D01*
X0203562Y0074054D02*
X0223475Y0074054D01*
X0223373Y0075052D02*
X0196600Y0075052D01*
X0196600Y0074054D02*
X0199438Y0074054D01*
X0198752Y0073055D02*
X0196600Y0073055D01*
X0196600Y0072057D02*
X0198519Y0072057D01*
X0198622Y0071058D02*
X0196600Y0071058D01*
X0196600Y0070060D02*
X0199124Y0070060D01*
X0200563Y0069061D02*
X0196600Y0069061D01*
X0196859Y0068063D02*
X0203216Y0068063D01*
X0204214Y0067064D02*
X0197857Y0067064D01*
X0195100Y0067900D02*
X0195000Y0067800D01*
X0200300Y0062500D01*
X0204196Y0064069D02*
X0206404Y0064069D01*
X0206211Y0065067D02*
X0203672Y0065067D01*
X0202667Y0066066D02*
X0205213Y0066066D01*
X0204500Y0063070D02*
X0206100Y0063070D01*
X0206100Y0062072D02*
X0204500Y0062072D01*
X0204255Y0061073D02*
X0206345Y0061073D01*
X0206786Y0060075D02*
X0203814Y0060075D01*
X0202816Y0059076D02*
X0207784Y0059076D01*
X0210300Y0062500D02*
X0210300Y0063100D01*
X0201500Y0071900D01*
X0196600Y0076051D02*
X0216799Y0076051D01*
X0216686Y0076081D02*
X0216922Y0076018D01*
X0216987Y0076055D01*
X0217199Y0076036D01*
X0217256Y0075989D01*
X0217500Y0076010D01*
X0217744Y0075989D01*
X0217801Y0076036D01*
X0218013Y0076055D01*
X0218078Y0076018D01*
X0218314Y0076081D01*
X0218558Y0076103D01*
X0218606Y0076160D01*
X0218812Y0076215D01*
X0218882Y0076189D01*
X0219104Y0076293D01*
X0219341Y0076356D01*
X0219378Y0076421D01*
X0219571Y0076511D01*
X0219644Y0076498D01*
X0219845Y0076638D01*
X0220067Y0076742D01*
X0220092Y0076812D01*
X0220267Y0076934D01*
X0220341Y0076934D01*
X0220515Y0077107D01*
X0220715Y0077248D01*
X0220728Y0077321D01*
X0220879Y0077472D01*
X0220952Y0077485D01*
X0221093Y0077685D01*
X0221266Y0077859D01*
X0221266Y0077933D01*
X0221388Y0078108D01*
X0221458Y0078133D01*
X0221562Y0078355D01*
X0221702Y0078556D01*
X0221689Y0078629D01*
X0221779Y0078822D01*
X0221844Y0078859D01*
X0221907Y0079096D01*
X0222011Y0079318D01*
X0221985Y0079388D01*
X0222040Y0079594D01*
X0222097Y0079641D01*
X0222119Y0079886D01*
X0222182Y0080122D01*
X0222145Y0080187D01*
X0222164Y0080399D01*
X0222211Y0080456D01*
X0222190Y0080700D01*
X0222211Y0080944D01*
X0222164Y0081001D01*
X0222145Y0081213D01*
X0222182Y0081278D01*
X0222119Y0081514D01*
X0222097Y0081758D01*
X0222040Y0081806D01*
X0221985Y0082012D01*
X0222011Y0082082D01*
X0221907Y0082304D01*
X0221844Y0082541D01*
X0221779Y0082578D01*
X0221689Y0082771D01*
X0221702Y0082844D01*
X0221562Y0083045D01*
X0221458Y0083267D01*
X0221388Y0083292D01*
X0221266Y0083467D01*
X0221266Y0083541D01*
X0221093Y0083715D01*
X0220952Y0083915D01*
X0220879Y0083928D01*
X0220728Y0084079D01*
X0220715Y0084152D01*
X0220515Y0084293D01*
X0220341Y0084466D01*
X0220267Y0084466D01*
X0220092Y0084588D01*
X0220067Y0084658D01*
X0219845Y0084762D01*
X0219644Y0084902D01*
X0219571Y0084889D01*
X0219378Y0084979D01*
X0219341Y0085044D01*
X0219104Y0085107D01*
X0218882Y0085211D01*
X0218812Y0085185D01*
X0218606Y0085240D01*
X0218558Y0085297D01*
X0218314Y0085319D01*
X0218078Y0085382D01*
X0218013Y0085345D01*
X0217801Y0085364D01*
X0217744Y0085411D01*
X0217500Y0085390D01*
X0217256Y0085411D01*
X0217199Y0085364D01*
X0216987Y0085345D01*
X0216922Y0085382D01*
X0216686Y0085319D01*
X0216441Y0085297D01*
X0216394Y0085240D01*
X0216188Y0085185D01*
X0216118Y0085211D01*
X0215896Y0085107D01*
X0215659Y0085044D01*
X0215622Y0084979D01*
X0215429Y0084889D01*
X0215356Y0084902D01*
X0215155Y0084762D01*
X0214933Y0084658D01*
X0214908Y0084588D01*
X0214733Y0084466D01*
X0214659Y0084466D01*
X0214485Y0084293D01*
X0214285Y0084152D01*
X0214272Y0084079D01*
X0214121Y0083928D01*
X0214048Y0083915D01*
X0213907Y0083715D01*
X0213734Y0083541D01*
X0213734Y0083467D01*
X0213612Y0083292D01*
X0213542Y0083267D01*
X0213438Y0083045D01*
X0213298Y0082844D01*
X0213311Y0082771D01*
X0213221Y0082578D01*
X0213156Y0082541D01*
X0213093Y0082304D01*
X0212989Y0082082D01*
X0213015Y0082012D01*
X0212960Y0081806D01*
X0212903Y0081758D01*
X0212881Y0081514D01*
X0212818Y0081278D01*
X0212855Y0081213D01*
X0212836Y0081001D01*
X0212789Y0080944D01*
X0212810Y0080700D01*
X0212789Y0080456D01*
X0212836Y0080399D01*
X0212855Y0080187D01*
X0212818Y0080122D01*
X0212881Y0079886D01*
X0212903Y0079641D01*
X0212960Y0079594D01*
X0213015Y0079388D01*
X0212989Y0079318D01*
X0213093Y0079096D01*
X0213156Y0078859D01*
X0213221Y0078822D01*
X0213311Y0078629D01*
X0213298Y0078556D01*
X0213438Y0078355D01*
X0213542Y0078133D01*
X0213612Y0078108D01*
X0213734Y0077933D01*
X0213734Y0077859D01*
X0213907Y0077685D01*
X0214048Y0077485D01*
X0214121Y0077472D01*
X0214272Y0077321D01*
X0214285Y0077248D01*
X0214485Y0077107D01*
X0214659Y0076934D01*
X0214733Y0076934D01*
X0214908Y0076812D01*
X0214933Y0076742D01*
X0215155Y0076638D01*
X0215356Y0076498D01*
X0215429Y0076511D01*
X0215622Y0076421D01*
X0215659Y0076356D01*
X0215896Y0076293D01*
X0216118Y0076189D01*
X0216188Y0076215D01*
X0216394Y0076160D01*
X0216441Y0076103D01*
X0216686Y0076081D01*
X0216979Y0076051D02*
X0217034Y0076051D01*
X0217966Y0076051D02*
X0218021Y0076051D01*
X0218200Y0076051D02*
X0223271Y0076051D01*
X0223169Y0077049D02*
X0220457Y0077049D01*
X0221346Y0078048D02*
X0223067Y0078048D01*
X0222965Y0079046D02*
X0221894Y0079046D01*
X0222161Y0080045D02*
X0222862Y0080045D01*
X0222760Y0081043D02*
X0222160Y0081043D01*
X0221996Y0082042D02*
X0222658Y0082042D01*
X0222556Y0083040D02*
X0221565Y0083040D01*
X0220768Y0084039D02*
X0222454Y0084039D01*
X0222352Y0085037D02*
X0219344Y0085037D01*
X0222250Y0086036D02*
X0194285Y0086036D01*
X0193287Y0087034D02*
X0202175Y0087034D01*
X0199631Y0088033D02*
X0192288Y0088033D01*
X0191290Y0089032D02*
X0197373Y0089032D01*
X0196121Y0090030D02*
X0190291Y0090030D01*
X0189500Y0088700D02*
X0197500Y0080700D01*
X0200171Y0082042D02*
X0213004Y0082042D01*
X0212840Y0081043D02*
X0200481Y0081043D01*
X0200455Y0080045D02*
X0212839Y0080045D01*
X0213106Y0079046D02*
X0200042Y0079046D01*
X0198887Y0078048D02*
X0213654Y0078048D01*
X0214543Y0077049D02*
X0196072Y0077049D01*
X0196113Y0078048D02*
X0195073Y0078048D01*
X0194958Y0079046D02*
X0194075Y0079046D01*
X0194545Y0080045D02*
X0193076Y0080045D01*
X0192078Y0081043D02*
X0194519Y0081043D01*
X0194037Y0082042D02*
X0191058Y0082042D01*
X0191571Y0083040D02*
X0193038Y0083040D01*
X0192040Y0084039D02*
X0191681Y0084039D01*
X0188700Y0083900D02*
X0175900Y0083900D01*
X0163100Y0096700D01*
X0163100Y0110300D01*
X0161818Y0112996D02*
X0155820Y0112996D01*
X0156027Y0112789D02*
X0155189Y0113627D01*
X0154093Y0114081D01*
X0152907Y0114081D01*
X0151811Y0113627D01*
X0150973Y0112789D01*
X0150519Y0111693D01*
X0150519Y0110507D01*
X0150626Y0110248D01*
X0145892Y0105250D01*
X0146081Y0105707D01*
X0146081Y0106893D01*
X0145627Y0107989D01*
X0144789Y0108827D01*
X0143693Y0109281D01*
X0142507Y0109281D01*
X0141411Y0108827D01*
X0140573Y0107989D01*
X0140119Y0106893D01*
X0140119Y0105707D01*
X0140197Y0105518D01*
X0133679Y0099000D01*
X0128079Y0099000D01*
X0127200Y0098121D01*
X0123347Y0094269D01*
X0123189Y0094427D01*
X0123000Y0094505D01*
X0123000Y0101321D01*
X0122803Y0101518D01*
X0122881Y0101707D01*
X0122881Y0102893D01*
X0122427Y0103989D01*
X0121589Y0104827D01*
X0120493Y0105281D01*
X0119307Y0105281D01*
X0118211Y0104827D01*
X0117373Y0103989D01*
X0116919Y0102893D01*
X0116919Y0101707D01*
X0117373Y0100611D01*
X0118211Y0099773D01*
X0119307Y0099319D01*
X0120000Y0099319D01*
X0120000Y0094505D01*
X0119811Y0094427D01*
X0118973Y0093589D01*
X0118519Y0092493D01*
X0118519Y0091307D01*
X0118973Y0090211D01*
X0119811Y0089373D01*
X0120907Y0088919D01*
X0122093Y0088919D01*
X0123189Y0089373D01*
X0123200Y0089384D01*
X0123200Y0080079D01*
X0124079Y0079200D01*
X0128879Y0074400D01*
X0129295Y0074400D01*
X0129373Y0074211D01*
X0130211Y0073373D01*
X0131307Y0072919D01*
X0132493Y0072919D01*
X0133589Y0073373D01*
X0134427Y0074211D01*
X0134881Y0075307D01*
X0134881Y0076493D01*
X0134427Y0077589D01*
X0133589Y0078427D01*
X0132493Y0078881D01*
X0131307Y0078881D01*
X0130211Y0078427D01*
X0129653Y0077869D01*
X0126200Y0081321D01*
X0126200Y0092879D01*
X0129321Y0096000D01*
X0134921Y0096000D01*
X0142318Y0103397D01*
X0142507Y0103319D01*
X0143693Y0103319D01*
X0144301Y0103571D01*
X0138025Y0096946D01*
X0137600Y0096521D01*
X0137600Y0096498D01*
X0137584Y0096481D01*
X0137600Y0095880D01*
X0137600Y0085705D01*
X0137411Y0085627D01*
X0136573Y0084789D01*
X0136119Y0083693D01*
X0136119Y0082507D01*
X0136573Y0081411D01*
X0137411Y0080573D01*
X0138507Y0080119D01*
X0139693Y0080119D01*
X0140789Y0080573D01*
X0141627Y0081411D01*
X0142081Y0082507D01*
X0142081Y0083693D01*
X0141627Y0084789D01*
X0140789Y0085627D01*
X0140600Y0085705D01*
X0140600Y0095302D01*
X0142400Y0097202D01*
X0142400Y0083983D01*
X0142341Y0083448D01*
X0142400Y0083374D01*
X0142400Y0083279D01*
X0142781Y0082898D01*
X0144319Y0080975D01*
X0144119Y0080493D01*
X0144119Y0079307D01*
X0144573Y0078211D01*
X0145411Y0077373D01*
X0146507Y0076919D01*
X0147693Y0076919D01*
X0148789Y0077373D01*
X0149627Y0078211D01*
X0150081Y0079307D01*
X0150081Y0080493D01*
X0149627Y0081589D01*
X0148789Y0082427D01*
X0147693Y0082881D01*
X0146636Y0082881D01*
X0145400Y0084426D01*
X0145400Y0096079D01*
X0150121Y0100800D01*
X0154921Y0100800D01*
X0158318Y0104197D01*
X0158507Y0104119D01*
X0159693Y0104119D01*
X0160789Y0104573D01*
X0161600Y0105384D01*
X0161600Y0096079D01*
X0175279Y0082400D01*
X0186095Y0082400D01*
X0186173Y0082211D01*
X0186984Y0081400D01*
X0182479Y0081400D01*
X0181600Y0080521D01*
X0180879Y0079800D01*
X0174921Y0079800D01*
X0166921Y0087800D01*
X0155305Y0087800D01*
X0155227Y0087989D01*
X0154389Y0088827D01*
X0153293Y0089281D01*
X0152107Y0089281D01*
X0151011Y0088827D01*
X0150173Y0087989D01*
X0149719Y0086893D01*
X0149719Y0085707D01*
X0150173Y0084611D01*
X0151011Y0083773D01*
X0152107Y0083319D01*
X0153293Y0083319D01*
X0153651Y0083467D01*
X0153373Y0083189D01*
X0152919Y0082093D01*
X0152919Y0080907D01*
X0153373Y0079811D01*
X0154211Y0078973D01*
X0155307Y0078519D01*
X0156493Y0078519D01*
X0157589Y0078973D01*
X0158427Y0079811D01*
X0158881Y0080907D01*
X0158881Y0081600D01*
X0159784Y0081600D01*
X0158973Y0080789D01*
X0158519Y0079693D01*
X0158519Y0078507D01*
X0158973Y0077411D01*
X0159811Y0076573D01*
X0160907Y0076119D01*
X0162093Y0076119D01*
X0162282Y0076197D01*
X0164800Y0073679D01*
X0164800Y0068105D01*
X0164611Y0068027D01*
X0163773Y0067189D01*
X0163319Y0066093D01*
X0163319Y0064907D01*
X0163773Y0063811D01*
X0164611Y0062973D01*
X0165707Y0062519D01*
X0166893Y0062519D01*
X0167989Y0062973D01*
X0168827Y0063811D01*
X0169281Y0064907D01*
X0169281Y0066093D01*
X0168827Y0067189D01*
X0167989Y0068027D01*
X0167800Y0068105D01*
X0167800Y0074921D01*
X0164403Y0078318D01*
X0164481Y0078507D01*
X0164481Y0079693D01*
X0164027Y0080789D01*
X0163216Y0081600D01*
X0164879Y0081600D01*
X0172879Y0073600D01*
X0182095Y0073600D01*
X0182173Y0073411D01*
X0183011Y0072573D01*
X0183670Y0072300D01*
X0183011Y0072027D01*
X0182173Y0071189D01*
X0182095Y0071000D01*
X0176905Y0071000D01*
X0176827Y0071189D01*
X0175989Y0072027D01*
X0174893Y0072481D01*
X0173707Y0072481D01*
X0172611Y0072027D01*
X0171773Y0071189D01*
X0171319Y0070093D01*
X0171319Y0068907D01*
X0171773Y0067811D01*
X0172611Y0066973D01*
X0173707Y0066519D01*
X0174893Y0066519D01*
X0175989Y0066973D01*
X0176827Y0067811D01*
X0176905Y0068000D01*
X0182095Y0068000D01*
X0182173Y0067811D01*
X0183011Y0066973D01*
X0184107Y0066519D01*
X0185293Y0066519D01*
X0186389Y0066973D01*
X0187227Y0067811D01*
X0187681Y0068907D01*
X0187681Y0070093D01*
X0187227Y0071189D01*
X0186389Y0072027D01*
X0185730Y0072300D01*
X0186389Y0072573D01*
X0187227Y0073411D01*
X0187500Y0074070D01*
X0187773Y0073411D01*
X0188611Y0072573D01*
X0188800Y0072495D01*
X0188800Y0066300D01*
X0186744Y0066300D01*
X0185347Y0065721D01*
X0184279Y0064653D01*
X0183700Y0063256D01*
X0183700Y0061744D01*
X0184279Y0060347D01*
X0185126Y0059500D01*
X0171872Y0059500D01*
X0171072Y0058700D01*
X0143949Y0058700D01*
X0143956Y0058707D01*
X0144347Y0059651D01*
X0144347Y0060672D01*
X0143956Y0061615D01*
X0143234Y0062338D01*
X0142291Y0062728D01*
X0141270Y0062728D01*
X0140326Y0062338D01*
X0139604Y0061615D01*
X0139213Y0060672D01*
X0139213Y0059651D01*
X0139604Y0058707D01*
X0139612Y0058700D01*
X0128988Y0058700D01*
X0128996Y0058707D01*
X0129387Y0059651D01*
X0129387Y0060672D01*
X0128996Y0061615D01*
X0128274Y0062338D01*
X0127330Y0062728D01*
X0126309Y0062728D01*
X0125366Y0062338D01*
X0124644Y0061615D01*
X0124253Y0060672D01*
X0124253Y0059651D01*
X0124502Y0059050D01*
X0121842Y0061710D01*
X0121842Y0061851D01*
X0115331Y0068362D01*
X0116400Y0069430D01*
X0116400Y0099170D01*
X0115170Y0100400D01*
X0114000Y0101570D01*
X0114000Y0102584D01*
X0114427Y0103011D01*
X0114881Y0104107D01*
X0114881Y0105293D01*
X0114427Y0106389D01*
X0113589Y0107227D01*
X0112493Y0107681D01*
X0111307Y0107681D01*
X0110211Y0107227D01*
X0109373Y0106389D01*
X0108919Y0105293D01*
X0108919Y0104107D01*
X0109317Y0103146D01*
X0108700Y0103763D01*
X0108700Y0107237D01*
X0109363Y0107900D01*
X0126963Y0107900D01*
X0129363Y0110300D01*
X0146163Y0110300D01*
X0157610Y0121747D01*
X0162667Y0121747D01*
X0163253Y0122333D01*
X0163253Y0129067D01*
X0162667Y0129653D01*
X0155933Y0129653D01*
X0155347Y0129067D01*
X0155347Y0124010D01*
X0144837Y0113500D01*
X0128037Y0113500D01*
X0127100Y0112563D01*
X0125637Y0111100D01*
X0109363Y0111100D01*
X0110163Y0111900D01*
X0126163Y0111900D01*
X0141363Y0127100D01*
X0142300Y0128037D01*
X0142300Y0151237D01*
X0145363Y0154300D01*
X0155347Y0154300D01*
X0155347Y0152333D01*
X0155933Y0151747D01*
X0162667Y0151747D01*
X0163253Y0152333D01*
X0163253Y0158400D01*
X0172079Y0158400D01*
X0176800Y0153679D01*
X0176800Y0120321D01*
X0161321Y0135800D01*
X0154505Y0135800D01*
X0154427Y0135989D01*
X0153589Y0136827D01*
X0152493Y0137281D01*
X0151307Y0137281D01*
X0150211Y0136827D01*
X0149373Y0135989D01*
X0148919Y0134893D01*
X0148919Y0133707D01*
X0149373Y0132611D01*
X0150211Y0131773D01*
X0151307Y0131319D01*
X0152493Y0131319D01*
X0153589Y0131773D01*
X0154427Y0132611D01*
X0154505Y0132800D01*
X0160079Y0132800D01*
X0181600Y0111279D01*
X0181600Y0098479D01*
X0181797Y0098282D01*
X0181719Y0098093D01*
X0181719Y0096907D01*
X0182173Y0095811D01*
X0183011Y0094973D01*
X0183670Y0094700D01*
X0183011Y0094427D01*
X0182173Y0093589D01*
X0181719Y0092493D01*
X0181719Y0091307D01*
X0182173Y0090211D01*
X0182184Y0090200D01*
X0175721Y0090200D01*
X0168600Y0097321D01*
X0168600Y0099279D01*
X0175144Y0105823D01*
X0175989Y0106173D01*
X0176827Y0107011D01*
X0177281Y0108107D01*
X0177281Y0109293D01*
X0176827Y0110389D01*
X0175989Y0111227D01*
X0174893Y0111681D01*
X0173707Y0111681D01*
X0172611Y0111227D01*
X0171773Y0110389D01*
X0171319Y0109293D01*
X0171319Y0108107D01*
X0171773Y0107011D01*
X0171931Y0106853D01*
X0166479Y0101400D01*
X0165600Y0100521D01*
X0165600Y0096321D01*
X0164600Y0097321D01*
X0164600Y0107695D01*
X0164789Y0107773D01*
X0165627Y0108611D01*
X0166081Y0109707D01*
X0166081Y0110893D01*
X0165627Y0111989D01*
X0164789Y0112827D01*
X0163693Y0113281D01*
X0162507Y0113281D01*
X0161411Y0112827D01*
X0160573Y0111989D01*
X0160119Y0110893D01*
X0160119Y0109905D01*
X0159693Y0110081D01*
X0158507Y0110081D01*
X0157411Y0109627D01*
X0156573Y0108789D01*
X0156119Y0107693D01*
X0156119Y0106507D01*
X0156197Y0106318D01*
X0153679Y0103800D01*
X0148879Y0103800D01*
X0148000Y0102921D01*
X0144542Y0099463D01*
X0152789Y0108168D01*
X0152907Y0108119D01*
X0154093Y0108119D01*
X0155189Y0108573D01*
X0156027Y0109411D01*
X0156481Y0110507D01*
X0156481Y0111693D01*
X0156027Y0112789D01*
X0156355Y0111997D02*
X0160581Y0111997D01*
X0160163Y0110999D02*
X0156481Y0110999D01*
X0156271Y0110000D02*
X0158312Y0110000D01*
X0159888Y0110000D02*
X0160119Y0110000D01*
X0156786Y0109002D02*
X0155618Y0109002D01*
X0156247Y0108003D02*
X0152632Y0108003D01*
X0151687Y0107005D02*
X0156119Y0107005D01*
X0155885Y0106006D02*
X0150741Y0106006D01*
X0149795Y0105008D02*
X0154886Y0105008D01*
X0153888Y0104009D02*
X0148849Y0104009D01*
X0148089Y0103011D02*
X0147903Y0103011D01*
X0147091Y0102012D02*
X0146957Y0102012D01*
X0146092Y0101014D02*
X0146011Y0101014D01*
X0145094Y0100015D02*
X0145065Y0100015D01*
X0142824Y0102012D02*
X0140933Y0102012D01*
X0141878Y0101014D02*
X0139935Y0101014D01*
X0140932Y0100015D02*
X0138936Y0100015D01*
X0137938Y0099017D02*
X0139986Y0099017D01*
X0139040Y0098018D02*
X0136939Y0098018D01*
X0135941Y0097020D02*
X0138094Y0097020D01*
X0137596Y0096021D02*
X0134942Y0096021D01*
X0134300Y0097500D02*
X0143100Y0106300D01*
X0141833Y0109002D02*
X0128064Y0109002D01*
X0127066Y0108003D02*
X0140587Y0108003D01*
X0140165Y0107005D02*
X0113811Y0107005D01*
X0114586Y0106006D02*
X0140119Y0106006D01*
X0139686Y0105008D02*
X0121153Y0105008D01*
X0122407Y0104009D02*
X0138688Y0104009D01*
X0137689Y0103011D02*
X0122832Y0103011D01*
X0122881Y0102012D02*
X0136691Y0102012D01*
X0135692Y0101014D02*
X0123000Y0101014D01*
X0123000Y0100015D02*
X0134694Y0100015D01*
X0133695Y0099017D02*
X0123000Y0099017D01*
X0123000Y0098018D02*
X0127097Y0098018D01*
X0126098Y0097020D02*
X0123000Y0097020D01*
X0123000Y0096021D02*
X0125100Y0096021D01*
X0124101Y0095023D02*
X0123000Y0095023D01*
X0124700Y0093500D02*
X0128700Y0097500D01*
X0134300Y0097500D01*
X0137600Y0095023D02*
X0128344Y0095023D01*
X0128907Y0094881D02*
X0127811Y0094427D01*
X0126973Y0093589D01*
X0126519Y0092493D01*
X0126519Y0091307D01*
X0126973Y0090211D01*
X0127811Y0089373D01*
X0128000Y0089295D01*
X0128000Y0086505D01*
X0127811Y0086427D01*
X0126973Y0085589D01*
X0126519Y0084493D01*
X0126519Y0083307D01*
X0126973Y0082211D01*
X0127811Y0081373D01*
X0128907Y0080919D01*
X0130093Y0080919D01*
X0131189Y0081373D01*
X0132027Y0082211D01*
X0132481Y0083307D01*
X0132481Y0084493D01*
X0132027Y0085589D01*
X0131189Y0086427D01*
X0131000Y0086505D01*
X0131000Y0089295D01*
X0131189Y0089373D01*
X0132027Y0090211D01*
X0132481Y0091307D01*
X0132481Y0092493D01*
X0132027Y0093589D01*
X0131189Y0094427D01*
X0130093Y0094881D01*
X0128907Y0094881D01*
X0127408Y0094024D02*
X0127345Y0094024D01*
X0126740Y0093026D02*
X0126347Y0093026D01*
X0126200Y0092027D02*
X0126519Y0092027D01*
X0126634Y0091029D02*
X0126200Y0091029D01*
X0126200Y0090030D02*
X0127154Y0090030D01*
X0128000Y0089032D02*
X0126200Y0089032D01*
X0126200Y0088033D02*
X0128000Y0088033D01*
X0128000Y0087034D02*
X0126200Y0087034D01*
X0126200Y0086036D02*
X0127420Y0086036D01*
X0126744Y0085037D02*
X0126200Y0085037D01*
X0126200Y0084039D02*
X0126519Y0084039D01*
X0126629Y0083040D02*
X0126200Y0083040D01*
X0126200Y0082042D02*
X0127142Y0082042D01*
X0126478Y0081043D02*
X0128606Y0081043D01*
X0127476Y0080045D02*
X0144119Y0080045D01*
X0144227Y0079046D02*
X0128475Y0079046D01*
X0129473Y0078048D02*
X0129832Y0078048D01*
X0129500Y0075900D02*
X0124700Y0080700D01*
X0124700Y0093500D01*
X0121500Y0091900D02*
X0121500Y0100700D01*
X0119900Y0102300D01*
X0118647Y0105008D02*
X0114881Y0105008D01*
X0114841Y0104009D02*
X0117393Y0104009D01*
X0116968Y0103011D02*
X0114427Y0103011D01*
X0114000Y0102012D02*
X0116919Y0102012D01*
X0117206Y0101014D02*
X0114556Y0101014D01*
X0115555Y0100015D02*
X0117969Y0100015D01*
X0116400Y0099017D02*
X0120000Y0099017D01*
X0120000Y0098018D02*
X0116400Y0098018D01*
X0116400Y0097020D02*
X0120000Y0097020D01*
X0120000Y0096021D02*
X0116400Y0096021D01*
X0116400Y0095023D02*
X0120000Y0095023D01*
X0119408Y0094024D02*
X0116400Y0094024D01*
X0116400Y0093026D02*
X0118740Y0093026D01*
X0118519Y0092027D02*
X0116400Y0092027D01*
X0116400Y0091029D02*
X0118634Y0091029D01*
X0119154Y0090030D02*
X0116400Y0090030D01*
X0116400Y0089032D02*
X0120635Y0089032D01*
X0122365Y0089032D02*
X0123200Y0089032D01*
X0123200Y0088033D02*
X0116400Y0088033D01*
X0116400Y0087034D02*
X0123200Y0087034D01*
X0123200Y0086036D02*
X0116400Y0086036D01*
X0116400Y0085037D02*
X0123200Y0085037D01*
X0123200Y0084039D02*
X0116400Y0084039D01*
X0116400Y0083040D02*
X0123200Y0083040D01*
X0123200Y0082042D02*
X0116400Y0082042D01*
X0116400Y0081043D02*
X0123200Y0081043D01*
X0123234Y0080045D02*
X0116400Y0080045D01*
X0116400Y0079046D02*
X0124232Y0079046D01*
X0125231Y0078048D02*
X0116400Y0078048D01*
X0116400Y0077049D02*
X0126229Y0077049D01*
X0127228Y0076051D02*
X0116400Y0076051D01*
X0116400Y0075052D02*
X0128226Y0075052D01*
X0129500Y0075900D02*
X0131900Y0075900D01*
X0134651Y0077049D02*
X0146192Y0077049D01*
X0144736Y0078048D02*
X0133968Y0078048D01*
X0134881Y0076051D02*
X0162428Y0076051D01*
X0163426Y0075052D02*
X0134776Y0075052D01*
X0134270Y0074054D02*
X0164425Y0074054D01*
X0164800Y0073055D02*
X0132822Y0073055D01*
X0130978Y0073055D02*
X0116400Y0073055D01*
X0116400Y0072057D02*
X0164800Y0072057D01*
X0164800Y0071058D02*
X0116400Y0071058D01*
X0116400Y0070060D02*
X0164800Y0070060D01*
X0164800Y0069061D02*
X0116031Y0069061D01*
X0115630Y0068063D02*
X0164697Y0068063D01*
X0163721Y0067064D02*
X0116629Y0067064D01*
X0117627Y0066066D02*
X0163319Y0066066D01*
X0163319Y0065067D02*
X0118626Y0065067D01*
X0119624Y0064069D02*
X0163666Y0064069D01*
X0164514Y0063070D02*
X0120623Y0063070D01*
X0121621Y0062072D02*
X0125100Y0062072D01*
X0124419Y0061073D02*
X0122478Y0061073D01*
X0123477Y0060075D02*
X0124253Y0060075D01*
X0124475Y0059076D02*
X0124491Y0059076D01*
X0121814Y0056081D02*
X0081450Y0056081D01*
X0080452Y0055082D02*
X0122812Y0055082D01*
X0120815Y0057079D02*
X0082449Y0057079D01*
X0083448Y0058078D02*
X0119817Y0058078D01*
X0118677Y0059076D02*
X0084446Y0059076D01*
X0085445Y0060075D02*
X0117678Y0060075D01*
X0116680Y0061073D02*
X0086993Y0061073D01*
X0086910Y0060990D02*
X0087610Y0061690D01*
X0087989Y0062605D01*
X0087989Y0063595D01*
X0087610Y0064510D01*
X0086910Y0065210D01*
X0085995Y0065589D01*
X0085005Y0065589D01*
X0084090Y0065210D01*
X0083390Y0064510D01*
X0083011Y0063595D01*
X0083011Y0063581D01*
X0076430Y0057000D01*
X0074743Y0057000D01*
X0074721Y0057053D01*
X0073653Y0058121D01*
X0072256Y0058700D01*
X0065144Y0058700D01*
X0063747Y0058121D01*
X0062679Y0057053D01*
X0062100Y0055656D01*
X0062100Y0054144D01*
X0062679Y0052747D01*
X0063747Y0051679D01*
X0065144Y0051100D01*
X0072256Y0051100D01*
X0073653Y0051679D01*
X0074721Y0052747D01*
X0074743Y0052800D01*
X0078170Y0052800D01*
X0079400Y0054030D01*
X0085981Y0060611D01*
X0085995Y0060611D01*
X0086910Y0060990D01*
X0087768Y0062072D02*
X0115681Y0062072D01*
X0114683Y0063070D02*
X0087989Y0063070D01*
X0087793Y0064069D02*
X0113684Y0064069D01*
X0112686Y0065067D02*
X0087053Y0065067D01*
X0083947Y0065067D02*
X0080837Y0065067D01*
X0079839Y0064069D02*
X0083207Y0064069D01*
X0082500Y0063070D02*
X0078840Y0063070D01*
X0080503Y0061073D02*
X0046503Y0061073D01*
X0046344Y0060075D02*
X0079505Y0060075D01*
X0078506Y0059076D02*
X0046184Y0059076D01*
X0046025Y0058078D02*
X0050025Y0058078D01*
X0050041Y0058097D02*
X0049994Y0058040D01*
X0049788Y0057985D01*
X0049718Y0058011D01*
X0049496Y0057907D01*
X0049259Y0057844D01*
X0049222Y0057779D01*
X0049029Y0057689D01*
X0048956Y0057702D01*
X0048755Y0057562D01*
X0048533Y0057458D01*
X0048508Y0057388D01*
X0048333Y0057266D01*
X0048259Y0057266D01*
X0048085Y0057093D01*
X0047885Y0056952D01*
X0047872Y0056879D01*
X0047721Y0056728D01*
X0047648Y0056715D01*
X0047507Y0056515D01*
X0047334Y0056341D01*
X0047334Y0056267D01*
X0047212Y0056092D01*
X0047142Y0056067D01*
X0047038Y0055845D01*
X0046898Y0055644D01*
X0046911Y0055571D01*
X0046821Y0055378D01*
X0046756Y0055341D01*
X0046693Y0055104D01*
X0046589Y0054882D01*
X0046615Y0054812D01*
X0046560Y0054606D01*
X0046503Y0054558D01*
X0046481Y0054314D01*
X0046418Y0054078D01*
X0046455Y0054013D01*
X0046436Y0053801D01*
X0046389Y0053744D01*
X0046410Y0053500D01*
X0046389Y0053256D01*
X0046436Y0053199D01*
X0046455Y0052987D01*
X0046418Y0052922D01*
X0046481Y0052686D01*
X0046503Y0052441D01*
X0046560Y0052394D01*
X0046615Y0052188D01*
X0046589Y0052118D01*
X0046693Y0051896D01*
X0046756Y0051659D01*
X0046821Y0051622D01*
X0046911Y0051429D01*
X0046898Y0051356D01*
X0047038Y0051155D01*
X0047142Y0050933D01*
X0047212Y0050908D01*
X0047334Y0050733D01*
X0047334Y0050659D01*
X0047507Y0050485D01*
X0047648Y0050285D01*
X0047721Y0050272D01*
X0047872Y0050121D01*
X0047885Y0050048D01*
X0048085Y0049907D01*
X0048259Y0049734D01*
X0048333Y0049734D01*
X0048508Y0049612D01*
X0048533Y0049542D01*
X0048755Y0049438D01*
X0048956Y0049298D01*
X0049029Y0049311D01*
X0049222Y0049221D01*
X0049259Y0049156D01*
X0049496Y0049093D01*
X0049718Y0048989D01*
X0049788Y0049015D01*
X0049994Y0048960D01*
X0050041Y0048903D01*
X0050286Y0048881D01*
X0050522Y0048818D01*
X0050587Y0048855D01*
X0050799Y0048836D01*
X0050856Y0048789D01*
X0051100Y0048810D01*
X0051344Y0048789D01*
X0051401Y0048836D01*
X0051613Y0048855D01*
X0051678Y0048818D01*
X0051914Y0048881D01*
X0052158Y0048903D01*
X0052206Y0048960D01*
X0052412Y0049015D01*
X0052482Y0048989D01*
X0052704Y0049093D01*
X0052941Y0049156D01*
X0052978Y0049221D01*
X0053171Y0049311D01*
X0053244Y0049298D01*
X0053445Y0049438D01*
X0053667Y0049542D01*
X0053692Y0049612D01*
X0053867Y0049734D01*
X0053941Y0049734D01*
X0054115Y0049907D01*
X0054315Y0050048D01*
X0054328Y0050121D01*
X0054479Y0050272D01*
X0054552Y0050285D01*
X0054693Y0050485D01*
X0054866Y0050659D01*
X0054866Y0050733D01*
X0054988Y0050908D01*
X0055058Y0050933D01*
X0055162Y0051155D01*
X0055302Y0051356D01*
X0055289Y0051429D01*
X0055379Y0051622D01*
X0055444Y0051659D01*
X0055507Y0051896D01*
X0055611Y0052118D01*
X0055585Y0052188D01*
X0055640Y0052394D01*
X0055697Y0052441D01*
X0055719Y0052686D01*
X0055782Y0052922D01*
X0055745Y0052987D01*
X0055764Y0053199D01*
X0055811Y0053256D01*
X0055790Y0053500D01*
X0055811Y0053744D01*
X0055764Y0053801D01*
X0055745Y0054013D01*
X0055782Y0054078D01*
X0055719Y0054314D01*
X0055697Y0054558D01*
X0055640Y0054606D01*
X0055585Y0054812D01*
X0055611Y0054882D01*
X0055507Y0055104D01*
X0055444Y0055341D01*
X0055379Y0055378D01*
X0055289Y0055571D01*
X0055302Y0055644D01*
X0055162Y0055845D01*
X0055058Y0056067D01*
X0054988Y0056092D01*
X0054866Y0056267D01*
X0054866Y0056341D01*
X0054693Y0056515D01*
X0054552Y0056715D01*
X0054479Y0056728D01*
X0054328Y0056879D01*
X0054315Y0056952D01*
X0054115Y0057093D01*
X0053941Y0057266D01*
X0053867Y0057266D01*
X0053692Y0057388D01*
X0053667Y0057458D01*
X0053445Y0057562D01*
X0053244Y0057702D01*
X0053171Y0057689D01*
X0052978Y0057779D01*
X0052941Y0057844D01*
X0052704Y0057907D01*
X0052482Y0058011D01*
X0052412Y0057985D01*
X0052206Y0058040D01*
X0052158Y0058097D01*
X0051914Y0058119D01*
X0051678Y0058182D01*
X0051613Y0058145D01*
X0051401Y0058164D01*
X0051344Y0058211D01*
X0051100Y0058190D01*
X0050856Y0058211D01*
X0050799Y0058164D01*
X0050587Y0058145D01*
X0050522Y0058182D01*
X0050286Y0058119D01*
X0050041Y0058097D01*
X0052175Y0058078D02*
X0063704Y0058078D01*
X0062705Y0057079D02*
X0054134Y0057079D01*
X0055021Y0056081D02*
X0062276Y0056081D01*
X0062100Y0055082D02*
X0055517Y0055082D01*
X0055780Y0054084D02*
X0062125Y0054084D01*
X0062539Y0053085D02*
X0055754Y0053085D01*
X0055596Y0052087D02*
X0063339Y0052087D01*
X0055130Y0051088D02*
X0183972Y0051088D01*
X0183700Y0052087D02*
X0074061Y0052087D01*
X0078455Y0053085D02*
X0183700Y0053085D01*
X0184043Y0054084D02*
X0079453Y0054084D01*
X0076509Y0057079D02*
X0074695Y0057079D01*
X0073696Y0058078D02*
X0077508Y0058078D01*
X0074046Y0062072D02*
X0081502Y0062072D01*
X0081836Y0066066D02*
X0111687Y0066066D01*
X0111492Y0066262D02*
X0111492Y0066262D01*
X0110689Y0067064D02*
X0082834Y0067064D01*
X0083833Y0068063D02*
X0109690Y0068063D01*
X0108692Y0069061D02*
X0084831Y0069061D01*
X0085830Y0070060D02*
X0107693Y0070060D01*
X0111636Y0072057D02*
X0112200Y0072057D01*
X0112200Y0073055D02*
X0110638Y0073055D01*
X0109639Y0074054D02*
X0112200Y0074054D01*
X0112200Y0075052D02*
X0082000Y0075052D01*
X0082000Y0074054D02*
X0083884Y0074054D01*
X0082886Y0073055D02*
X0082000Y0073055D01*
X0082000Y0076051D02*
X0101133Y0076051D01*
X0100391Y0077049D02*
X0082000Y0077049D01*
X0082000Y0078048D02*
X0100119Y0078048D01*
X0100182Y0079046D02*
X0082816Y0079046D01*
X0085061Y0080045D02*
X0100629Y0080045D01*
X0101933Y0081043D02*
X0085806Y0081043D01*
X0086081Y0082042D02*
X0100127Y0082042D01*
X0098961Y0083040D02*
X0086020Y0083040D01*
X0085577Y0084039D02*
X0098547Y0084039D01*
X0098519Y0085037D02*
X0085200Y0085037D01*
X0085200Y0086036D02*
X0098827Y0086036D01*
X0099619Y0087034D02*
X0085200Y0087034D01*
X0085200Y0088033D02*
X0104700Y0088033D01*
X0104700Y0087034D02*
X0103381Y0087034D01*
X0104700Y0089032D02*
X0102047Y0089032D01*
X0102684Y0090030D02*
X0104700Y0090030D01*
X0104700Y0091029D02*
X0102881Y0091029D01*
X0102743Y0092027D02*
X0104700Y0092027D01*
X0104700Y0093026D02*
X0102190Y0093026D01*
X0100631Y0094024D02*
X0104700Y0094024D01*
X0104700Y0095023D02*
X0099900Y0095023D01*
X0096700Y0095023D02*
X0086800Y0095023D01*
X0086800Y0096021D02*
X0096700Y0096021D01*
X0096700Y0097020D02*
X0086800Y0097020D01*
X0086800Y0098018D02*
X0096700Y0098018D01*
X0096700Y0099017D02*
X0086800Y0099017D01*
X0086800Y0100015D02*
X0096700Y0100015D01*
X0096700Y0101014D02*
X0086800Y0101014D01*
X0086800Y0102012D02*
X0096700Y0102012D01*
X0096700Y0103011D02*
X0086800Y0103011D01*
X0086800Y0104009D02*
X0096700Y0104009D01*
X0096700Y0105008D02*
X0086800Y0105008D01*
X0086800Y0106006D02*
X0096700Y0106006D01*
X0096700Y0107005D02*
X0086800Y0107005D01*
X0086800Y0108003D02*
X0096700Y0108003D01*
X0096700Y0109002D02*
X0086800Y0109002D01*
X0086800Y0110000D02*
X0096700Y0110000D01*
X0096700Y0110999D02*
X0086800Y0110999D01*
X0086800Y0111997D02*
X0096935Y0111997D01*
X0097933Y0112996D02*
X0086800Y0112996D01*
X0089158Y0113994D02*
X0098932Y0113994D01*
X0099930Y0114993D02*
X0090409Y0114993D01*
X0090833Y0115991D02*
X0100929Y0115991D01*
X0101927Y0116990D02*
X0090881Y0116990D01*
X0090593Y0117988D02*
X0102926Y0117988D01*
X0103100Y0118987D02*
X0090000Y0118987D01*
X0090000Y0119985D02*
X0103100Y0119985D01*
X0103100Y0120984D02*
X0090000Y0120984D01*
X0090000Y0121982D02*
X0103100Y0121982D01*
X0103100Y0122981D02*
X0090000Y0122981D01*
X0090000Y0123979D02*
X0103100Y0123979D01*
X0103100Y0124978D02*
X0090000Y0124978D01*
X0090000Y0125976D02*
X0103100Y0125976D01*
X0103100Y0126975D02*
X0090000Y0126975D01*
X0090000Y0127973D02*
X0103100Y0127973D01*
X0103100Y0128972D02*
X0090000Y0128972D01*
X0090000Y0129970D02*
X0103100Y0129970D01*
X0103100Y0130969D02*
X0090000Y0130969D01*
X0090000Y0131968D02*
X0103100Y0131968D01*
X0103100Y0132966D02*
X0090000Y0132966D01*
X0090000Y0133965D02*
X0103100Y0133965D01*
X0103100Y0134963D02*
X0090000Y0134963D01*
X0090000Y0135962D02*
X0103100Y0135962D01*
X0103100Y0136960D02*
X0090000Y0136960D01*
X0090000Y0137959D02*
X0103100Y0137959D01*
X0103100Y0138957D02*
X0090000Y0138957D01*
X0090000Y0139956D02*
X0103100Y0139956D01*
X0103100Y0140954D02*
X0090000Y0140954D01*
X0090000Y0141953D02*
X0103100Y0141953D01*
X0103100Y0142951D02*
X0090000Y0142951D01*
X0090000Y0143950D02*
X0103100Y0143950D01*
X0103100Y0144948D02*
X0090000Y0144948D01*
X0090000Y0145947D02*
X0103100Y0145947D01*
X0103100Y0146945D02*
X0090000Y0146945D01*
X0090000Y0147944D02*
X0103100Y0147944D01*
X0103479Y0148942D02*
X0090000Y0148942D01*
X0090000Y0149941D02*
X0104478Y0149941D01*
X0105476Y0150939D02*
X0090000Y0150939D01*
X0090000Y0151938D02*
X0106475Y0151938D01*
X0107474Y0152936D02*
X0090000Y0152936D01*
X0090000Y0153935D02*
X0108472Y0153935D01*
X0108547Y0154933D02*
X0090000Y0154933D01*
X0090000Y0155932D02*
X0108547Y0155932D01*
X0108547Y0156930D02*
X0090000Y0156930D01*
X0090000Y0157929D02*
X0108547Y0157929D01*
X0108547Y0158927D02*
X0090000Y0158927D01*
X0090896Y0159926D02*
X0152205Y0159926D01*
X0153203Y0160924D02*
X0091894Y0160924D01*
X0092893Y0161923D02*
X0223605Y0161923D01*
X0223740Y0162921D02*
X0093891Y0162921D01*
X0094890Y0163920D02*
X0223876Y0163920D01*
X0224012Y0164918D02*
X0095888Y0164918D01*
X0096887Y0165917D02*
X0224148Y0165917D01*
X0224284Y0166915D02*
X0097885Y0166915D01*
X0098884Y0167914D02*
X0224420Y0167914D01*
X0224555Y0168912D02*
X0099882Y0168912D01*
X0100881Y0169911D02*
X0224691Y0169911D01*
X0224827Y0170909D02*
X0101879Y0170909D01*
X0102878Y0171908D02*
X0224963Y0171908D01*
X0225099Y0172906D02*
X0103876Y0172906D01*
X0104875Y0173905D02*
X0225234Y0173905D01*
X0225370Y0174903D02*
X0105873Y0174903D01*
X0108118Y0175902D02*
X0134882Y0175902D01*
X0134053Y0176901D02*
X0108947Y0176901D01*
X0110881Y0185887D02*
X0127319Y0185887D01*
X0127647Y0186886D02*
X0110881Y0186886D01*
X0110471Y0187884D02*
X0128468Y0187884D01*
X0128500Y0188883D02*
X0109500Y0188883D01*
X0109500Y0189881D02*
X0128500Y0189881D01*
X0128500Y0190880D02*
X0109500Y0190880D01*
X0108585Y0191878D02*
X0128500Y0191878D01*
X0128500Y0192877D02*
X0107586Y0192877D01*
X0106588Y0193875D02*
X0128930Y0193875D01*
X0129928Y0194874D02*
X0105589Y0194874D01*
X0104590Y0195872D02*
X0130927Y0195872D01*
X0131319Y0196871D02*
X0103592Y0196871D01*
X0102593Y0197869D02*
X0131558Y0197869D01*
X0132252Y0198868D02*
X0101595Y0198868D01*
X0100596Y0199866D02*
X0157604Y0199866D01*
X0158602Y0200865D02*
X0099598Y0200865D01*
X0098068Y0197869D02*
X0083681Y0197869D01*
X0083666Y0196871D02*
X0099067Y0196871D01*
X0100065Y0195872D02*
X0083252Y0195872D01*
X0082150Y0194874D02*
X0101064Y0194874D01*
X0102062Y0193875D02*
X0042206Y0193875D01*
X0042122Y0194874D02*
X0079250Y0194874D01*
X0078148Y0195872D02*
X0042213Y0195872D01*
X0042543Y0196871D02*
X0077734Y0196871D01*
X0077719Y0197869D02*
X0042872Y0197869D01*
X0043418Y0198868D02*
X0078040Y0198868D01*
X0078850Y0199866D02*
X0044208Y0199866D01*
X0045228Y0200865D02*
X0081802Y0200865D01*
X0099073Y0184889D02*
X0044003Y0184889D01*
X0043803Y0185887D02*
X0100439Y0185887D01*
X0102561Y0185887D02*
X0104919Y0185887D01*
X0104919Y0186886D02*
X0043604Y0186886D01*
X0043404Y0187884D02*
X0105329Y0187884D01*
X0106300Y0188883D02*
X0043205Y0188883D01*
X0043005Y0189881D02*
X0106056Y0189881D01*
X0105058Y0190880D02*
X0042805Y0190880D01*
X0042606Y0191878D02*
X0104059Y0191878D01*
X0103061Y0192877D02*
X0042406Y0192877D01*
X0044203Y0183890D02*
X0098601Y0183890D01*
X0098322Y0182892D02*
X0044402Y0182892D01*
X0044549Y0181893D02*
X0097323Y0181893D01*
X0096325Y0180895D02*
X0044688Y0180895D01*
X0044827Y0179896D02*
X0095326Y0179896D01*
X0094328Y0178898D02*
X0044965Y0178898D01*
X0045104Y0177899D02*
X0093329Y0177899D01*
X0092331Y0176901D02*
X0045243Y0176901D01*
X0045382Y0175902D02*
X0091332Y0175902D01*
X0090334Y0174903D02*
X0045520Y0174903D01*
X0045659Y0173905D02*
X0048688Y0173905D01*
X0047077Y0172906D02*
X0045798Y0172906D01*
X0045937Y0171908D02*
X0046268Y0171908D01*
X0051912Y0173905D02*
X0089335Y0173905D01*
X0088337Y0172906D02*
X0053523Y0172906D01*
X0054332Y0171908D02*
X0087338Y0171908D01*
X0086340Y0170909D02*
X0054798Y0170909D01*
X0054954Y0169911D02*
X0085341Y0169911D01*
X0084343Y0168912D02*
X0054979Y0168912D01*
X0054715Y0167914D02*
X0083344Y0167914D01*
X0082346Y0166915D02*
X0054210Y0166915D01*
X0053328Y0165917D02*
X0081800Y0165917D01*
X0081800Y0164918D02*
X0051372Y0164918D01*
X0049228Y0164918D02*
X0046908Y0164918D01*
X0047047Y0163920D02*
X0081800Y0163920D01*
X0081800Y0162921D02*
X0047186Y0162921D01*
X0047324Y0161923D02*
X0081800Y0161923D01*
X0081800Y0160924D02*
X0078669Y0160924D01*
X0078669Y0159926D02*
X0081800Y0159926D01*
X0081800Y0158927D02*
X0078669Y0158927D01*
X0078669Y0157929D02*
X0081800Y0157929D01*
X0081800Y0156930D02*
X0078669Y0156930D01*
X0078669Y0155932D02*
X0081800Y0155932D01*
X0081800Y0154933D02*
X0078669Y0154933D01*
X0078669Y0153935D02*
X0081800Y0153935D01*
X0081800Y0152936D02*
X0078669Y0152936D01*
X0078669Y0151938D02*
X0081800Y0151938D01*
X0081800Y0150939D02*
X0078669Y0150939D01*
X0078669Y0149941D02*
X0081800Y0149941D01*
X0081800Y0148942D02*
X0078669Y0148942D01*
X0078669Y0147944D02*
X0081800Y0147944D01*
X0081800Y0146945D02*
X0078669Y0146945D01*
X0078669Y0145947D02*
X0081800Y0145947D01*
X0081800Y0144948D02*
X0078669Y0144948D01*
X0078669Y0143950D02*
X0081800Y0143950D01*
X0081800Y0142951D02*
X0078669Y0142951D01*
X0078669Y0141953D02*
X0081800Y0141953D01*
X0081800Y0140954D02*
X0078669Y0140954D01*
X0078669Y0139956D02*
X0081800Y0139956D01*
X0081800Y0138957D02*
X0078669Y0138957D01*
X0078669Y0137959D02*
X0081800Y0137959D01*
X0081800Y0136960D02*
X0078669Y0136960D01*
X0078669Y0135962D02*
X0081800Y0135962D01*
X0081800Y0134963D02*
X0078669Y0134963D01*
X0078669Y0133965D02*
X0081800Y0133965D01*
X0081800Y0132966D02*
X0078669Y0132966D01*
X0078669Y0131968D02*
X0081800Y0131968D01*
X0081800Y0130969D02*
X0078669Y0130969D01*
X0078669Y0129970D02*
X0081800Y0129970D01*
X0081800Y0128972D02*
X0078669Y0128972D01*
X0078669Y0127973D02*
X0081800Y0127973D01*
X0081800Y0126975D02*
X0078669Y0126975D01*
X0078669Y0125976D02*
X0081800Y0125976D01*
X0081800Y0124978D02*
X0078669Y0124978D01*
X0078669Y0123979D02*
X0081800Y0123979D01*
X0081800Y0122981D02*
X0078669Y0122981D01*
X0078669Y0121982D02*
X0081800Y0121982D01*
X0081800Y0120984D02*
X0078669Y0120984D01*
X0078669Y0119985D02*
X0081800Y0119985D01*
X0081800Y0118987D02*
X0068417Y0118987D01*
X0071544Y0117988D02*
X0081800Y0117988D01*
X0081800Y0116990D02*
X0073273Y0116990D01*
X0074996Y0115991D02*
X0081800Y0115991D01*
X0081800Y0114993D02*
X0075922Y0114993D01*
X0076849Y0113994D02*
X0081800Y0113994D01*
X0082234Y0112996D02*
X0077775Y0112996D01*
X0078524Y0111997D02*
X0082600Y0111997D01*
X0082600Y0110999D02*
X0079005Y0110999D01*
X0079486Y0110000D02*
X0082600Y0110000D01*
X0082600Y0109002D02*
X0079967Y0109002D01*
X0080448Y0108003D02*
X0082600Y0108003D01*
X0082600Y0107005D02*
X0080611Y0107005D01*
X0080762Y0106006D02*
X0082600Y0106006D01*
X0082600Y0105008D02*
X0080912Y0105008D01*
X0081063Y0104009D02*
X0082600Y0104009D01*
X0082600Y0103011D02*
X0081187Y0103011D01*
X0081036Y0102012D02*
X0082600Y0102012D01*
X0082600Y0101014D02*
X0080886Y0101014D01*
X0080735Y0100015D02*
X0082600Y0100015D01*
X0082600Y0099017D02*
X0080585Y0099017D01*
X0080362Y0098018D02*
X0082600Y0098018D01*
X0082600Y0097020D02*
X0079881Y0097020D01*
X0079400Y0096021D02*
X0082600Y0096021D01*
X0082600Y0095023D02*
X0078919Y0095023D01*
X0078438Y0094024D02*
X0082600Y0094024D01*
X0082600Y0093026D02*
X0077610Y0093026D01*
X0076683Y0092027D02*
X0081857Y0092027D01*
X0081000Y0091029D02*
X0075757Y0091029D01*
X0074694Y0090030D02*
X0081000Y0090030D01*
X0081000Y0089032D02*
X0072964Y0089032D01*
X0071235Y0088033D02*
X0081000Y0088033D01*
X0081000Y0087034D02*
X0067635Y0087034D01*
X0069046Y0085578D02*
X0069649Y0085885D01*
X0070293Y0086094D01*
X0070900Y0086190D01*
X0070900Y0079500D01*
X0071700Y0079500D01*
X0075600Y0079500D01*
X0075600Y0082238D01*
X0075494Y0082907D01*
X0075285Y0083551D01*
X0074978Y0084154D01*
X0074580Y0084701D01*
X0074101Y0085180D01*
X0073554Y0085578D01*
X0072951Y0085885D01*
X0072307Y0086094D01*
X0071700Y0086190D01*
X0071700Y0079500D01*
X0071700Y0078700D01*
X0075600Y0078700D01*
X0075600Y0075962D01*
X0075494Y0075293D01*
X0075285Y0074649D01*
X0074978Y0074046D01*
X0074580Y0073499D01*
X0074101Y0073020D01*
X0073554Y0072622D01*
X0072951Y0072315D01*
X0072307Y0072106D01*
X0071700Y0072010D01*
X0071700Y0078700D01*
X0070900Y0078700D01*
X0070900Y0072010D01*
X0070293Y0072106D01*
X0069649Y0072315D01*
X0069046Y0072622D01*
X0068499Y0073020D01*
X0068020Y0073499D01*
X0067622Y0074046D01*
X0067315Y0074649D01*
X0067106Y0075293D01*
X0067000Y0075962D01*
X0067000Y0078700D01*
X0070900Y0078700D01*
X0070900Y0079500D01*
X0067000Y0079500D01*
X0067000Y0082238D01*
X0067106Y0082907D01*
X0067315Y0083551D01*
X0067622Y0084154D01*
X0068020Y0084701D01*
X0068499Y0085180D01*
X0069046Y0085578D01*
X0068356Y0085037D02*
X0063537Y0085037D01*
X0063453Y0085121D02*
X0062056Y0085700D01*
X0060544Y0085700D01*
X0059147Y0085121D01*
X0058079Y0084053D01*
X0057500Y0082656D01*
X0057500Y0075544D01*
X0058079Y0074147D01*
X0059147Y0073079D01*
X0060544Y0072500D01*
X0062056Y0072500D01*
X0063453Y0073079D01*
X0064521Y0074147D01*
X0065100Y0075544D01*
X0065100Y0082656D01*
X0064521Y0084053D01*
X0063453Y0085121D01*
X0064527Y0084039D02*
X0067564Y0084039D01*
X0067149Y0083040D02*
X0064941Y0083040D01*
X0065100Y0082042D02*
X0067000Y0082042D01*
X0067000Y0081043D02*
X0065100Y0081043D01*
X0065100Y0080045D02*
X0067000Y0080045D01*
X0067000Y0078048D02*
X0065100Y0078048D01*
X0065100Y0079046D02*
X0070900Y0079046D01*
X0071700Y0079046D02*
X0077800Y0079046D01*
X0077800Y0078048D02*
X0075600Y0078048D01*
X0075600Y0077049D02*
X0077800Y0077049D01*
X0077800Y0076051D02*
X0075600Y0076051D01*
X0075416Y0075052D02*
X0077800Y0075052D01*
X0077800Y0074054D02*
X0074982Y0074054D01*
X0074136Y0073055D02*
X0077800Y0073055D01*
X0077800Y0072057D02*
X0071997Y0072057D01*
X0071700Y0072057D02*
X0070900Y0072057D01*
X0070603Y0072057D02*
X0047696Y0072057D01*
X0047795Y0073055D02*
X0059203Y0073055D01*
X0058172Y0074054D02*
X0047894Y0074054D01*
X0047994Y0075052D02*
X0057704Y0075052D01*
X0057500Y0076051D02*
X0048093Y0076051D01*
X0048192Y0077049D02*
X0057500Y0077049D01*
X0057500Y0078048D02*
X0048291Y0078048D01*
X0048390Y0079046D02*
X0057500Y0079046D01*
X0057500Y0080045D02*
X0048489Y0080045D01*
X0048589Y0081043D02*
X0057500Y0081043D01*
X0057500Y0082042D02*
X0048688Y0082042D01*
X0048787Y0083040D02*
X0057659Y0083040D01*
X0058073Y0084039D02*
X0048886Y0084039D01*
X0048985Y0085037D02*
X0059063Y0085037D01*
X0060975Y0087034D02*
X0049166Y0087034D01*
X0049206Y0088033D02*
X0058431Y0088033D01*
X0056173Y0089032D02*
X0049246Y0089032D01*
X0049285Y0090030D02*
X0054921Y0090030D01*
X0053669Y0091029D02*
X0049325Y0091029D01*
X0049365Y0092027D02*
X0052502Y0092027D01*
X0051822Y0093026D02*
X0049404Y0093026D01*
X0049444Y0094024D02*
X0051141Y0094024D01*
X0050460Y0095023D02*
X0049484Y0095023D01*
X0049523Y0096021D02*
X0049809Y0096021D01*
X0049084Y0086036D02*
X0070114Y0086036D01*
X0070900Y0086036D02*
X0071700Y0086036D01*
X0072486Y0086036D02*
X0081000Y0086036D01*
X0081000Y0085037D02*
X0074244Y0085037D01*
X0075036Y0084039D02*
X0080623Y0084039D01*
X0080180Y0083040D02*
X0075451Y0083040D01*
X0075600Y0082042D02*
X0079872Y0082042D01*
X0078874Y0081043D02*
X0075600Y0081043D01*
X0075600Y0080045D02*
X0077875Y0080045D01*
X0071700Y0080045D02*
X0070900Y0080045D01*
X0070900Y0081043D02*
X0071700Y0081043D01*
X0071700Y0082042D02*
X0070900Y0082042D01*
X0070900Y0083040D02*
X0071700Y0083040D01*
X0071700Y0084039D02*
X0070900Y0084039D01*
X0070900Y0085037D02*
X0071700Y0085037D01*
X0071700Y0078048D02*
X0070900Y0078048D01*
X0070900Y0077049D02*
X0071700Y0077049D01*
X0071700Y0076051D02*
X0070900Y0076051D01*
X0070900Y0075052D02*
X0071700Y0075052D01*
X0071700Y0074054D02*
X0070900Y0074054D01*
X0070900Y0073055D02*
X0071700Y0073055D01*
X0068464Y0073055D02*
X0063397Y0073055D01*
X0064428Y0074054D02*
X0067618Y0074054D01*
X0067184Y0075052D02*
X0064896Y0075052D01*
X0065100Y0076051D02*
X0067000Y0076051D01*
X0067000Y0077049D02*
X0065100Y0077049D01*
X0077800Y0071058D02*
X0047597Y0071058D01*
X0047498Y0070060D02*
X0077800Y0070060D01*
X0077800Y0069061D02*
X0047399Y0069061D01*
X0047300Y0068063D02*
X0063689Y0068063D01*
X0062690Y0067064D02*
X0047200Y0067064D01*
X0047101Y0066066D02*
X0062270Y0066066D01*
X0062100Y0065067D02*
X0047002Y0065067D01*
X0046903Y0064069D02*
X0062131Y0064069D01*
X0062545Y0063070D02*
X0046804Y0063070D01*
X0046662Y0062072D02*
X0063354Y0062072D01*
X0073711Y0068063D02*
X0077800Y0068063D01*
X0076894Y0067064D02*
X0074710Y0067064D01*
X0054323Y0050090D02*
X0184536Y0050090D01*
X0185800Y0049091D02*
X0052700Y0049091D01*
X0049500Y0049091D02*
X0044817Y0049091D01*
X0044732Y0050090D02*
X0047877Y0050090D01*
X0047070Y0051088D02*
X0044947Y0051088D01*
X0045069Y0052087D02*
X0046604Y0052087D01*
X0046446Y0053085D02*
X0045228Y0053085D01*
X0045387Y0054084D02*
X0046420Y0054084D01*
X0046683Y0055082D02*
X0045547Y0055082D01*
X0045706Y0056081D02*
X0047179Y0056081D01*
X0048066Y0057079D02*
X0045866Y0057079D01*
X0085200Y0089032D02*
X0097753Y0089032D01*
X0097116Y0090030D02*
X0085800Y0090030D01*
X0086798Y0091029D02*
X0096919Y0091029D01*
X0096710Y0092027D02*
X0086800Y0092027D01*
X0086800Y0093026D02*
X0096700Y0093026D01*
X0096700Y0094024D02*
X0086800Y0094024D01*
X0103437Y0096021D02*
X0104700Y0096021D01*
X0104700Y0097020D02*
X0104196Y0097020D01*
X0104481Y0098018D02*
X0104700Y0098018D01*
X0104700Y0099017D02*
X0104430Y0099017D01*
X0104700Y0100015D02*
X0104001Y0100015D01*
X0103724Y0101014D02*
X0103100Y0101014D01*
X0103100Y0102012D02*
X0103100Y0102012D01*
X0103100Y0103011D02*
X0103100Y0103011D01*
X0103100Y0104009D02*
X0103100Y0104009D01*
X0103100Y0105008D02*
X0103100Y0105008D01*
X0103100Y0106006D02*
X0103100Y0106006D01*
X0103100Y0107005D02*
X0103100Y0107005D01*
X0103100Y0108003D02*
X0103100Y0108003D01*
X0108700Y0107005D02*
X0109989Y0107005D01*
X0109214Y0106006D02*
X0108700Y0106006D01*
X0108700Y0105008D02*
X0108919Y0105008D01*
X0108959Y0104009D02*
X0108700Y0104009D01*
X0110300Y0099017D02*
X0110614Y0099017D01*
X0110300Y0098018D02*
X0111612Y0098018D01*
X0112200Y0097020D02*
X0110300Y0097020D01*
X0110300Y0096021D02*
X0112200Y0096021D01*
X0112200Y0095023D02*
X0110300Y0095023D01*
X0110300Y0094024D02*
X0112200Y0094024D01*
X0112200Y0093026D02*
X0110300Y0093026D01*
X0110300Y0092027D02*
X0112200Y0092027D01*
X0112200Y0091029D02*
X0110300Y0091029D01*
X0110300Y0090030D02*
X0112200Y0090030D01*
X0112200Y0089032D02*
X0110300Y0089032D01*
X0110300Y0088033D02*
X0112200Y0088033D01*
X0112200Y0087034D02*
X0110300Y0087034D01*
X0110300Y0086036D02*
X0112200Y0086036D01*
X0112200Y0085037D02*
X0110300Y0085037D01*
X0110300Y0084039D02*
X0112200Y0084039D01*
X0112200Y0083040D02*
X0110300Y0083040D01*
X0110300Y0082042D02*
X0112200Y0082042D01*
X0112200Y0081043D02*
X0110300Y0081043D01*
X0110300Y0080045D02*
X0112200Y0080045D01*
X0112200Y0079046D02*
X0110109Y0079046D01*
X0109111Y0078048D02*
X0112200Y0078048D01*
X0112200Y0077049D02*
X0108112Y0077049D01*
X0105067Y0076051D02*
X0112200Y0076051D01*
X0116400Y0074054D02*
X0129530Y0074054D01*
X0130394Y0081043D02*
X0136941Y0081043D01*
X0136312Y0082042D02*
X0131858Y0082042D01*
X0132371Y0083040D02*
X0136119Y0083040D01*
X0136262Y0084039D02*
X0132481Y0084039D01*
X0132256Y0085037D02*
X0136822Y0085037D01*
X0137600Y0086036D02*
X0131580Y0086036D01*
X0131000Y0087034D02*
X0137600Y0087034D01*
X0137600Y0088033D02*
X0131000Y0088033D01*
X0131000Y0089032D02*
X0137600Y0089032D01*
X0137600Y0090030D02*
X0131846Y0090030D01*
X0132366Y0091029D02*
X0137600Y0091029D01*
X0137600Y0092027D02*
X0132481Y0092027D01*
X0132260Y0093026D02*
X0137600Y0093026D01*
X0137600Y0094024D02*
X0131592Y0094024D01*
X0129500Y0091900D02*
X0129500Y0083900D01*
X0139100Y0083100D02*
X0139100Y0095900D01*
X0153500Y0111100D01*
X0151180Y0112996D02*
X0148859Y0112996D01*
X0149857Y0113994D02*
X0152697Y0113994D01*
X0154303Y0113994D02*
X0178884Y0113994D01*
X0177886Y0114993D02*
X0150856Y0114993D01*
X0151854Y0115991D02*
X0176887Y0115991D01*
X0175889Y0116990D02*
X0152853Y0116990D01*
X0153851Y0117988D02*
X0174890Y0117988D01*
X0173892Y0118987D02*
X0154850Y0118987D01*
X0155848Y0119985D02*
X0172893Y0119985D01*
X0171895Y0120984D02*
X0156847Y0120984D01*
X0154318Y0122981D02*
X0137244Y0122981D01*
X0138242Y0123979D02*
X0155317Y0123979D01*
X0155347Y0124978D02*
X0139241Y0124978D01*
X0140239Y0125976D02*
X0155347Y0125976D01*
X0155347Y0126975D02*
X0141238Y0126975D01*
X0142236Y0127973D02*
X0155347Y0127973D01*
X0155347Y0128972D02*
X0142300Y0128972D01*
X0142300Y0129970D02*
X0162908Y0129970D01*
X0163253Y0128972D02*
X0163907Y0128972D01*
X0163253Y0127973D02*
X0164905Y0127973D01*
X0165904Y0126975D02*
X0163253Y0126975D01*
X0163253Y0125976D02*
X0166902Y0125976D01*
X0167901Y0124978D02*
X0163253Y0124978D01*
X0163253Y0123979D02*
X0168899Y0123979D01*
X0169898Y0122981D02*
X0163253Y0122981D01*
X0162902Y0121982D02*
X0170896Y0121982D01*
X0173142Y0123979D02*
X0176800Y0123979D01*
X0176800Y0122981D02*
X0174140Y0122981D01*
X0175139Y0121982D02*
X0176800Y0121982D01*
X0176800Y0120984D02*
X0176137Y0120984D01*
X0178300Y0119900D02*
X0185500Y0112700D01*
X0185500Y0102300D01*
X0187900Y0099900D01*
X0187900Y0095100D01*
X0184700Y0091900D01*
X0181940Y0093026D02*
X0172896Y0093026D01*
X0171897Y0094024D02*
X0182608Y0094024D01*
X0182961Y0095023D02*
X0170899Y0095023D01*
X0169900Y0096021D02*
X0182086Y0096021D01*
X0181719Y0097020D02*
X0168902Y0097020D01*
X0168600Y0098018D02*
X0181719Y0098018D01*
X0181600Y0099017D02*
X0168600Y0099017D01*
X0169336Y0100015D02*
X0181600Y0100015D01*
X0181600Y0101014D02*
X0170335Y0101014D01*
X0171333Y0102012D02*
X0181600Y0102012D01*
X0181600Y0103011D02*
X0172332Y0103011D01*
X0173330Y0104009D02*
X0181600Y0104009D01*
X0181600Y0105008D02*
X0174329Y0105008D01*
X0175587Y0106006D02*
X0181600Y0106006D01*
X0181600Y0107005D02*
X0176821Y0107005D01*
X0177238Y0108003D02*
X0181600Y0108003D01*
X0181600Y0109002D02*
X0177281Y0109002D01*
X0176988Y0110000D02*
X0181600Y0110000D01*
X0181600Y0110999D02*
X0176217Y0110999D01*
X0174300Y0108700D02*
X0174300Y0107100D01*
X0167100Y0099900D01*
X0167100Y0096700D01*
X0175100Y0088700D01*
X0189500Y0088700D01*
X0187566Y0091029D02*
X0194869Y0091029D01*
X0193702Y0092027D02*
X0187681Y0092027D01*
X0187947Y0093026D02*
X0193022Y0093026D01*
X0192341Y0094024D02*
X0188945Y0094024D01*
X0189400Y0095023D02*
X0191660Y0095023D01*
X0191009Y0096021D02*
X0189400Y0096021D01*
X0189400Y0097020D02*
X0190701Y0097020D01*
X0190393Y0098018D02*
X0189400Y0098018D01*
X0189400Y0099017D02*
X0190085Y0099017D01*
X0189777Y0100015D02*
X0189400Y0100015D01*
X0189584Y0101014D02*
X0188908Y0101014D01*
X0189584Y0102012D02*
X0187909Y0102012D01*
X0187000Y0103011D02*
X0189584Y0103011D01*
X0189584Y0104009D02*
X0187000Y0104009D01*
X0187000Y0105008D02*
X0189584Y0105008D01*
X0189722Y0106006D02*
X0187000Y0106006D01*
X0187000Y0107005D02*
X0190030Y0107005D01*
X0190338Y0108003D02*
X0187000Y0108003D01*
X0187000Y0109002D02*
X0190646Y0109002D01*
X0190954Y0110000D02*
X0187000Y0110000D01*
X0187000Y0110999D02*
X0191538Y0110999D01*
X0192219Y0111997D02*
X0187000Y0111997D01*
X0187000Y0112996D02*
X0192900Y0112996D01*
X0193581Y0113994D02*
X0186327Y0113994D01*
X0185328Y0114993D02*
X0194645Y0114993D01*
X0195897Y0115991D02*
X0184330Y0115991D01*
X0183331Y0116990D02*
X0197149Y0116990D01*
X0199176Y0117988D02*
X0182333Y0117988D01*
X0181334Y0118987D02*
X0201720Y0118987D01*
X0193131Y0119985D02*
X0180336Y0119985D01*
X0179800Y0120984D02*
X0193131Y0120984D01*
X0193131Y0121982D02*
X0179800Y0121982D01*
X0179800Y0122981D02*
X0193131Y0122981D01*
X0193131Y0123979D02*
X0179800Y0123979D01*
X0179800Y0124978D02*
X0193131Y0124978D01*
X0193131Y0125976D02*
X0179800Y0125976D01*
X0179800Y0126975D02*
X0193131Y0126975D01*
X0193131Y0127973D02*
X0179800Y0127973D01*
X0179800Y0128972D02*
X0193131Y0128972D01*
X0193131Y0129970D02*
X0179800Y0129970D01*
X0179800Y0130969D02*
X0193131Y0130969D01*
X0193131Y0131968D02*
X0179800Y0131968D01*
X0179800Y0132966D02*
X0193131Y0132966D01*
X0193131Y0133965D02*
X0179800Y0133965D01*
X0179800Y0134963D02*
X0193131Y0134963D01*
X0193131Y0135962D02*
X0179800Y0135962D01*
X0179800Y0136960D02*
X0193131Y0136960D01*
X0193131Y0137959D02*
X0179800Y0137959D01*
X0179800Y0138957D02*
X0193131Y0138957D01*
X0193131Y0139956D02*
X0179800Y0139956D01*
X0179800Y0140954D02*
X0193131Y0140954D01*
X0193131Y0141953D02*
X0179800Y0141953D01*
X0179800Y0142951D02*
X0193131Y0142951D01*
X0193131Y0143950D02*
X0179800Y0143950D01*
X0179800Y0144948D02*
X0193131Y0144948D01*
X0193131Y0145947D02*
X0179800Y0145947D01*
X0179800Y0146945D02*
X0193131Y0146945D01*
X0193131Y0147944D02*
X0179800Y0147944D01*
X0179800Y0148942D02*
X0193131Y0148942D01*
X0193131Y0149941D02*
X0179800Y0149941D01*
X0179800Y0150939D02*
X0193131Y0150939D01*
X0193131Y0151938D02*
X0179800Y0151938D01*
X0179800Y0152936D02*
X0193131Y0152936D01*
X0193131Y0153935D02*
X0179800Y0153935D01*
X0179788Y0154933D02*
X0193131Y0154933D01*
X0193131Y0155932D02*
X0178790Y0155932D01*
X0177791Y0156930D02*
X0193131Y0156930D01*
X0193131Y0157929D02*
X0176793Y0157929D01*
X0175794Y0158927D02*
X0193131Y0158927D01*
X0193131Y0159926D02*
X0174795Y0159926D01*
X0173797Y0160924D02*
X0193131Y0160924D01*
X0178300Y0154300D02*
X0178300Y0119900D01*
X0176800Y0124978D02*
X0172143Y0124978D01*
X0171145Y0125976D02*
X0176800Y0125976D01*
X0176800Y0126975D02*
X0170146Y0126975D01*
X0169148Y0127973D02*
X0176800Y0127973D01*
X0176800Y0128972D02*
X0168149Y0128972D01*
X0167151Y0129970D02*
X0176800Y0129970D01*
X0176800Y0130969D02*
X0166152Y0130969D01*
X0165154Y0131968D02*
X0176800Y0131968D01*
X0176800Y0132966D02*
X0164155Y0132966D01*
X0163157Y0133965D02*
X0176800Y0133965D01*
X0176800Y0134963D02*
X0162158Y0134963D01*
X0160700Y0134300D02*
X0183100Y0111900D01*
X0183100Y0099100D01*
X0184700Y0097500D01*
X0181719Y0092027D02*
X0173894Y0092027D01*
X0174893Y0091029D02*
X0181834Y0091029D01*
X0173640Y0084039D02*
X0170682Y0084039D01*
X0169684Y0085037D02*
X0172641Y0085037D01*
X0171643Y0086036D02*
X0168685Y0086036D01*
X0167687Y0087034D02*
X0170644Y0087034D01*
X0169646Y0088033D02*
X0155183Y0088033D01*
X0153896Y0089032D02*
X0168647Y0089032D01*
X0167649Y0090030D02*
X0145400Y0090030D01*
X0145400Y0089032D02*
X0151504Y0089032D01*
X0150217Y0088033D02*
X0145400Y0088033D01*
X0145400Y0087034D02*
X0149778Y0087034D01*
X0149719Y0086036D02*
X0145400Y0086036D01*
X0145400Y0085037D02*
X0149996Y0085037D01*
X0150745Y0084039D02*
X0145710Y0084039D01*
X0146509Y0083040D02*
X0153311Y0083040D01*
X0152919Y0082042D02*
X0149174Y0082042D01*
X0149853Y0081043D02*
X0152919Y0081043D01*
X0153276Y0080045D02*
X0150081Y0080045D01*
X0149973Y0079046D02*
X0154138Y0079046D01*
X0157662Y0079046D02*
X0158519Y0079046D01*
X0158524Y0080045D02*
X0158665Y0080045D01*
X0158881Y0081043D02*
X0159228Y0081043D01*
X0157500Y0083100D02*
X0165500Y0083100D01*
X0173500Y0075100D01*
X0184700Y0075100D01*
X0186871Y0073055D02*
X0188129Y0073055D01*
X0187507Y0074054D02*
X0187493Y0074054D01*
X0186317Y0072057D02*
X0188800Y0072057D01*
X0188800Y0071058D02*
X0187281Y0071058D01*
X0187681Y0070060D02*
X0188800Y0070060D01*
X0188800Y0069061D02*
X0187681Y0069061D01*
X0187331Y0068063D02*
X0188800Y0068063D01*
X0188800Y0067064D02*
X0186480Y0067064D01*
X0186179Y0066066D02*
X0169281Y0066066D01*
X0169281Y0065067D02*
X0184693Y0065067D01*
X0184037Y0064069D02*
X0168934Y0064069D01*
X0168086Y0063070D02*
X0183700Y0063070D01*
X0183700Y0062072D02*
X0143500Y0062072D01*
X0144181Y0061073D02*
X0183978Y0061073D01*
X0184551Y0060075D02*
X0144347Y0060075D01*
X0144109Y0059076D02*
X0171448Y0059076D01*
X0173111Y0055082D02*
X0184708Y0055082D01*
X0190300Y0062500D02*
X0190300Y0075100D01*
X0191100Y0079900D02*
X0195100Y0075900D01*
X0195100Y0067900D01*
X0184700Y0069500D02*
X0174300Y0069500D01*
X0171669Y0068063D02*
X0167903Y0068063D01*
X0167800Y0069061D02*
X0171319Y0069061D01*
X0171319Y0070060D02*
X0167800Y0070060D01*
X0167800Y0071058D02*
X0171719Y0071058D01*
X0172683Y0072057D02*
X0167800Y0072057D01*
X0167800Y0073055D02*
X0182529Y0073055D01*
X0183083Y0072057D02*
X0175917Y0072057D01*
X0176881Y0071058D02*
X0182119Y0071058D01*
X0182920Y0067064D02*
X0176080Y0067064D01*
X0172520Y0067064D02*
X0168879Y0067064D01*
X0166300Y0065500D02*
X0166300Y0074300D01*
X0161500Y0079100D01*
X0164481Y0079046D02*
X0167432Y0079046D01*
X0168431Y0078048D02*
X0164673Y0078048D01*
X0165672Y0077049D02*
X0169429Y0077049D01*
X0170428Y0076051D02*
X0166670Y0076051D01*
X0167669Y0075052D02*
X0171426Y0075052D01*
X0172425Y0074054D02*
X0167800Y0074054D01*
X0166434Y0080045D02*
X0164335Y0080045D01*
X0163772Y0081043D02*
X0165435Y0081043D01*
X0159335Y0077049D02*
X0148008Y0077049D01*
X0149464Y0078048D02*
X0158709Y0078048D01*
X0155900Y0081500D02*
X0157500Y0083100D01*
X0152700Y0086300D02*
X0166300Y0086300D01*
X0174300Y0078300D01*
X0181500Y0078300D01*
X0183100Y0079900D01*
X0191100Y0079900D01*
X0186342Y0082042D02*
X0172679Y0082042D01*
X0171681Y0083040D02*
X0174638Y0083040D01*
X0173678Y0081043D02*
X0182122Y0081043D01*
X0181124Y0080045D02*
X0174676Y0080045D01*
X0166650Y0091029D02*
X0145400Y0091029D01*
X0145400Y0092027D02*
X0165652Y0092027D01*
X0164653Y0093026D02*
X0145400Y0093026D01*
X0145400Y0094024D02*
X0163655Y0094024D01*
X0162656Y0095023D02*
X0145400Y0095023D01*
X0145400Y0096021D02*
X0161658Y0096021D01*
X0161600Y0097020D02*
X0146341Y0097020D01*
X0147339Y0098018D02*
X0161600Y0098018D01*
X0161600Y0099017D02*
X0148338Y0099017D01*
X0149336Y0100015D02*
X0161600Y0100015D01*
X0161600Y0101014D02*
X0155135Y0101014D01*
X0156133Y0102012D02*
X0161600Y0102012D01*
X0161600Y0103011D02*
X0157132Y0103011D01*
X0158130Y0104009D02*
X0161600Y0104009D01*
X0161600Y0105008D02*
X0161224Y0105008D01*
X0159100Y0107100D02*
X0154300Y0102300D01*
X0149500Y0102300D01*
X0143900Y0096700D01*
X0143900Y0083900D01*
X0147100Y0079900D01*
X0144264Y0081043D02*
X0141259Y0081043D01*
X0141888Y0082042D02*
X0143466Y0082042D01*
X0142638Y0083040D02*
X0142081Y0083040D01*
X0141938Y0084039D02*
X0142400Y0084039D01*
X0142400Y0085037D02*
X0141378Y0085037D01*
X0140600Y0086036D02*
X0142400Y0086036D01*
X0142400Y0087034D02*
X0140600Y0087034D01*
X0140600Y0088033D02*
X0142400Y0088033D01*
X0142400Y0089032D02*
X0140600Y0089032D01*
X0140600Y0090030D02*
X0142400Y0090030D01*
X0142400Y0091029D02*
X0140600Y0091029D01*
X0140600Y0092027D02*
X0142400Y0092027D01*
X0142400Y0093026D02*
X0140600Y0093026D01*
X0140600Y0094024D02*
X0142400Y0094024D01*
X0142400Y0095023D02*
X0140600Y0095023D01*
X0141281Y0096021D02*
X0142400Y0096021D01*
X0142400Y0097020D02*
X0142227Y0097020D01*
X0141932Y0103011D02*
X0143770Y0103011D01*
X0146081Y0106006D02*
X0146608Y0106006D01*
X0146035Y0107005D02*
X0147554Y0107005D01*
X0148500Y0108003D02*
X0145613Y0108003D01*
X0144367Y0109002D02*
X0149446Y0109002D01*
X0150392Y0110000D02*
X0129063Y0110000D01*
X0126535Y0111997D02*
X0126260Y0111997D01*
X0127259Y0112996D02*
X0127533Y0112996D01*
X0128257Y0113994D02*
X0145332Y0113994D01*
X0146330Y0114993D02*
X0129256Y0114993D01*
X0130254Y0115991D02*
X0147329Y0115991D01*
X0148327Y0116990D02*
X0131253Y0116990D01*
X0132251Y0117988D02*
X0149326Y0117988D01*
X0150324Y0118987D02*
X0133250Y0118987D01*
X0134248Y0119985D02*
X0151323Y0119985D01*
X0152321Y0120984D02*
X0135247Y0120984D01*
X0136245Y0121982D02*
X0153320Y0121982D01*
X0161910Y0130969D02*
X0142300Y0130969D01*
X0142300Y0131968D02*
X0150017Y0131968D01*
X0149226Y0132966D02*
X0142300Y0132966D01*
X0142300Y0133965D02*
X0148919Y0133965D01*
X0148948Y0134963D02*
X0142300Y0134963D01*
X0142300Y0135962D02*
X0149362Y0135962D01*
X0150532Y0136960D02*
X0142300Y0136960D01*
X0142300Y0137959D02*
X0176800Y0137959D01*
X0176800Y0138957D02*
X0142300Y0138957D01*
X0142300Y0139956D02*
X0176800Y0139956D01*
X0176800Y0140954D02*
X0142300Y0140954D01*
X0142300Y0141953D02*
X0176800Y0141953D01*
X0176800Y0142951D02*
X0142300Y0142951D01*
X0142300Y0143950D02*
X0176800Y0143950D01*
X0176800Y0144948D02*
X0142300Y0144948D01*
X0142300Y0145947D02*
X0176800Y0145947D01*
X0176800Y0146945D02*
X0142300Y0146945D01*
X0142300Y0147944D02*
X0176800Y0147944D01*
X0176800Y0148942D02*
X0142300Y0148942D01*
X0142300Y0149941D02*
X0176800Y0149941D01*
X0176800Y0150939D02*
X0142300Y0150939D01*
X0143000Y0151938D02*
X0155743Y0151938D01*
X0155347Y0152936D02*
X0143999Y0152936D01*
X0144997Y0153935D02*
X0155347Y0153935D01*
X0152700Y0158300D02*
X0154300Y0159900D01*
X0172700Y0159900D01*
X0178300Y0154300D01*
X0176544Y0153935D02*
X0163253Y0153935D01*
X0163253Y0154933D02*
X0175545Y0154933D01*
X0174547Y0155932D02*
X0163253Y0155932D01*
X0163253Y0156930D02*
X0173548Y0156930D01*
X0172550Y0157929D02*
X0163253Y0157929D01*
X0163253Y0152936D02*
X0176800Y0152936D01*
X0176800Y0151938D02*
X0162857Y0151938D01*
X0152700Y0158300D02*
X0119100Y0158300D01*
X0118300Y0157500D01*
X0118300Y0151900D01*
X0119100Y0151100D01*
X0123100Y0151100D01*
X0121042Y0148942D02*
X0108005Y0148942D01*
X0107006Y0147944D02*
X0124987Y0147944D01*
X0124709Y0146945D02*
X0124271Y0146945D01*
X0125500Y0145500D02*
X0127900Y0148700D01*
X0125500Y0145500D02*
X0125500Y0139100D01*
X0126300Y0138300D01*
X0137500Y0138300D01*
X0135623Y0135962D02*
X0135570Y0135962D01*
X0135681Y0134963D02*
X0139100Y0134963D01*
X0139100Y0133965D02*
X0135456Y0133965D01*
X0134782Y0132966D02*
X0139100Y0132966D01*
X0139100Y0131968D02*
X0106300Y0131968D01*
X0106300Y0132966D02*
X0130618Y0132966D01*
X0132700Y0135100D02*
X0122300Y0135100D01*
X0119900Y0137500D01*
X0119900Y0142300D01*
X0122300Y0144700D01*
X0119590Y0145947D02*
X0106300Y0145947D01*
X0106300Y0146945D02*
X0120329Y0146945D01*
X0119319Y0144948D02*
X0106300Y0144948D01*
X0106300Y0143950D02*
X0119384Y0143950D01*
X0118430Y0142951D02*
X0106300Y0142951D01*
X0106300Y0141953D02*
X0118400Y0141953D01*
X0118400Y0140954D02*
X0106300Y0140954D01*
X0106300Y0139956D02*
X0118400Y0139956D01*
X0118400Y0138957D02*
X0106300Y0138957D01*
X0106300Y0137959D02*
X0118400Y0137959D01*
X0118400Y0136960D02*
X0106300Y0136960D01*
X0106300Y0135962D02*
X0119317Y0135962D01*
X0120316Y0134963D02*
X0106300Y0134963D01*
X0106300Y0133965D02*
X0121314Y0133965D01*
X0116453Y0128972D02*
X0138709Y0128972D01*
X0139100Y0129970D02*
X0106300Y0129970D01*
X0106300Y0128972D02*
X0108547Y0128972D01*
X0108547Y0127973D02*
X0106300Y0127973D01*
X0106300Y0126975D02*
X0108547Y0126975D01*
X0108547Y0125976D02*
X0106300Y0125976D01*
X0106300Y0124978D02*
X0108547Y0124978D01*
X0108517Y0123979D02*
X0106300Y0123979D01*
X0106300Y0122981D02*
X0107518Y0122981D01*
X0106520Y0121982D02*
X0106300Y0121982D01*
X0109048Y0119985D02*
X0129723Y0119985D01*
X0128724Y0118987D02*
X0108700Y0118987D01*
X0108700Y0117988D02*
X0127726Y0117988D01*
X0126727Y0116990D02*
X0108700Y0116990D01*
X0108700Y0115991D02*
X0125729Y0115991D01*
X0130721Y0120984D02*
X0110047Y0120984D01*
X0116102Y0121982D02*
X0131720Y0121982D01*
X0132718Y0122981D02*
X0116453Y0122981D01*
X0116453Y0123979D02*
X0133717Y0123979D01*
X0134715Y0124978D02*
X0116453Y0124978D01*
X0116453Y0125976D02*
X0135714Y0125976D01*
X0136712Y0126975D02*
X0116453Y0126975D01*
X0116453Y0127973D02*
X0137711Y0127973D01*
X0139100Y0130969D02*
X0106300Y0130969D01*
X0108700Y0114993D02*
X0108730Y0114993D01*
X0107100Y0084039D02*
X0106302Y0084039D01*
X0107100Y0083040D02*
X0104039Y0083040D01*
X0102873Y0082042D02*
X0107100Y0082042D01*
X0107100Y0081043D02*
X0104267Y0081043D01*
X0105571Y0080045D02*
X0106582Y0080045D01*
X0128540Y0062072D02*
X0140060Y0062072D01*
X0139380Y0061073D02*
X0129220Y0061073D01*
X0129387Y0060075D02*
X0139213Y0060075D01*
X0139451Y0059076D02*
X0129149Y0059076D01*
X0164902Y0097020D02*
X0165600Y0097020D01*
X0165600Y0098018D02*
X0164600Y0098018D01*
X0164600Y0099017D02*
X0165600Y0099017D01*
X0165600Y0100015D02*
X0164600Y0100015D01*
X0164600Y0101014D02*
X0166092Y0101014D01*
X0167091Y0102012D02*
X0164600Y0102012D01*
X0164600Y0103011D02*
X0168089Y0103011D01*
X0169088Y0104009D02*
X0164600Y0104009D01*
X0164600Y0105008D02*
X0170086Y0105008D01*
X0171085Y0106006D02*
X0164600Y0106006D01*
X0164600Y0107005D02*
X0171779Y0107005D01*
X0171362Y0108003D02*
X0165019Y0108003D01*
X0165789Y0109002D02*
X0171319Y0109002D01*
X0171612Y0110000D02*
X0166081Y0110000D01*
X0166037Y0110999D02*
X0172383Y0110999D01*
X0165619Y0111997D02*
X0180881Y0111997D01*
X0179883Y0112996D02*
X0164382Y0112996D01*
X0150645Y0111997D02*
X0147860Y0111997D01*
X0146861Y0110999D02*
X0150519Y0110999D01*
X0153783Y0131968D02*
X0160911Y0131968D01*
X0160700Y0134300D02*
X0151900Y0134300D01*
X0153268Y0136960D02*
X0176800Y0136960D01*
X0176800Y0135962D02*
X0154438Y0135962D01*
X0118138Y0149941D02*
X0109003Y0149941D01*
X0110002Y0150939D02*
X0117139Y0150939D01*
X0116800Y0151938D02*
X0116057Y0151938D01*
X0116453Y0152936D02*
X0116800Y0152936D01*
X0116800Y0153935D02*
X0116453Y0153935D01*
X0116453Y0154933D02*
X0116800Y0154933D01*
X0116800Y0155932D02*
X0116453Y0155932D01*
X0116453Y0156930D02*
X0116800Y0156930D01*
X0116800Y0157929D02*
X0116453Y0157929D01*
X0116453Y0158927D02*
X0117606Y0158927D01*
X0138518Y0175902D02*
X0225506Y0175902D01*
X0225642Y0176901D02*
X0191446Y0176901D01*
X0192445Y0177899D02*
X0225778Y0177899D01*
X0225914Y0178898D02*
X0193443Y0178898D01*
X0194442Y0179896D02*
X0226049Y0179896D01*
X0226185Y0180895D02*
X0195440Y0180895D01*
X0196439Y0181893D02*
X0226321Y0181893D01*
X0226457Y0182892D02*
X0196900Y0182892D01*
X0196900Y0183890D02*
X0226593Y0183890D01*
X0226790Y0184889D02*
X0196900Y0184889D01*
X0196900Y0185887D02*
X0226986Y0185887D01*
X0227183Y0186886D02*
X0220578Y0186886D01*
X0221657Y0187884D02*
X0227380Y0187884D01*
X0227576Y0188883D02*
X0222071Y0188883D01*
X0222081Y0189881D02*
X0227773Y0189881D01*
X0227970Y0190880D02*
X0221755Y0190880D01*
X0220938Y0191878D02*
X0228166Y0191878D01*
X0228363Y0192877D02*
X0219586Y0192877D01*
X0218588Y0193875D02*
X0228560Y0193875D01*
X0228756Y0194874D02*
X0217589Y0194874D01*
X0216590Y0195872D02*
X0228913Y0195872D01*
X0228879Y0196871D02*
X0215592Y0196871D01*
X0214593Y0197869D02*
X0228614Y0197869D01*
X0228349Y0198868D02*
X0213595Y0198868D01*
X0212596Y0199866D02*
X0227652Y0199866D01*
X0226820Y0200865D02*
X0211598Y0200865D01*
X0210068Y0197869D02*
X0160132Y0197869D01*
X0159133Y0196871D02*
X0211067Y0196871D01*
X0212065Y0195872D02*
X0159100Y0195872D01*
X0159100Y0194874D02*
X0213064Y0194874D01*
X0214062Y0193875D02*
X0159100Y0193875D01*
X0159586Y0192877D02*
X0176731Y0192877D01*
X0175733Y0191878D02*
X0160585Y0191878D01*
X0158056Y0189881D02*
X0132100Y0189881D01*
X0132100Y0188883D02*
X0159055Y0188883D01*
X0161268Y0187884D02*
X0132132Y0187884D01*
X0132953Y0186886D02*
X0160447Y0186886D01*
X0160119Y0185887D02*
X0133281Y0185887D01*
X0132100Y0190880D02*
X0157058Y0190880D01*
X0156059Y0191878D02*
X0132100Y0191878D01*
X0133022Y0192877D02*
X0155900Y0192877D01*
X0155900Y0193875D02*
X0135270Y0193875D01*
X0136690Y0194874D02*
X0155900Y0194874D01*
X0155900Y0195872D02*
X0137184Y0195872D01*
X0137281Y0196871D02*
X0155900Y0196871D01*
X0155900Y0197869D02*
X0137042Y0197869D01*
X0136348Y0198868D02*
X0156605Y0198868D01*
X0194269Y0192877D02*
X0215061Y0192877D01*
X0216059Y0191878D02*
X0195267Y0191878D01*
X0196266Y0190880D02*
X0216445Y0190880D01*
X0216119Y0189881D02*
X0196900Y0189881D01*
X0196900Y0188883D02*
X0216129Y0188883D01*
X0216543Y0187884D02*
X0196900Y0187884D01*
X0196900Y0186886D02*
X0217622Y0186886D01*
X0225392Y0201863D02*
X0046852Y0201863D01*
X0046769Y0165917D02*
X0047272Y0165917D01*
X0047463Y0160924D02*
X0048142Y0160924D01*
X0048142Y0159926D02*
X0047602Y0159926D01*
X0047741Y0158927D02*
X0048142Y0158927D01*
X0048142Y0157929D02*
X0047821Y0157929D01*
X0047900Y0156930D02*
X0048142Y0156930D01*
X0048142Y0155932D02*
X0047978Y0155932D01*
X0048057Y0154933D02*
X0048142Y0154933D01*
X0048136Y0153935D02*
X0048142Y0153935D01*
X0195284Y0085037D02*
X0215656Y0085037D01*
X0214232Y0084039D02*
X0196282Y0084039D01*
X0199375Y0083040D02*
X0213435Y0083040D01*
X0208835Y0087034D02*
X0222148Y0087034D01*
X0222088Y0088033D02*
X0212435Y0088033D01*
X0214164Y0089032D02*
X0222046Y0089032D01*
X0222003Y0090030D02*
X0215894Y0090030D01*
X0216957Y0091029D02*
X0221961Y0091029D01*
X0221918Y0092027D02*
X0217883Y0092027D01*
X0218810Y0093026D02*
X0221875Y0093026D01*
X0221833Y0094024D02*
X0219638Y0094024D01*
X0220119Y0095023D02*
X0221790Y0095023D01*
X0221748Y0096021D02*
X0220600Y0096021D01*
X0221081Y0097020D02*
X0221705Y0097020D01*
X0221663Y0098018D02*
X0221562Y0098018D01*
X0217933Y0066066D02*
X0212667Y0066066D01*
X0213672Y0065067D02*
X0216928Y0065067D01*
X0216404Y0064069D02*
X0214196Y0064069D01*
X0214500Y0063070D02*
X0216100Y0063070D01*
X0216100Y0062072D02*
X0214500Y0062072D01*
X0214255Y0061073D02*
X0216345Y0061073D01*
X0216786Y0060075D02*
X0213814Y0060075D01*
X0212816Y0059076D02*
X0217784Y0059076D01*
X0201500Y0180700D02*
X0197500Y0180700D01*
D20*
X0079100Y0116700D03*
X0085500Y0063100D03*
X0059100Y0178300D03*
M02*
