G75*
%MOIN*%
%OFA0B0*%
%FSLAX25Y25*%
%IPPOS*%
%LPD*%
%AMOC8*
5,1,8,0,0,1.08239X$1,22.5*
%
%ADD10C,0.04146*%
%ADD11C,0.12611*%
%ADD12C,0.06400*%
%ADD13R,0.06706X0.06706*%
%ADD14C,0.07200*%
%ADD15C,0.00500*%
%ADD16C,0.04762*%
%ADD17C,0.03778*%
D10*
X0126820Y0060161D03*
X0141780Y0060161D03*
D11*
X0205900Y0103100D03*
X0064700Y0103100D03*
D12*
X0061300Y0081900D02*
X0061300Y0076300D01*
X0071300Y0076300D02*
X0071300Y0081900D01*
X0071500Y0064900D02*
X0065900Y0064900D01*
X0065900Y0054900D02*
X0071500Y0054900D01*
X0187500Y0052500D02*
X0193100Y0052500D01*
X0193100Y0062500D02*
X0187500Y0062500D01*
D13*
X0159300Y0125700D03*
X0159300Y0155700D03*
X0112500Y0155700D03*
X0112500Y0125700D03*
D14*
X0200300Y0062500D03*
X0210300Y0062500D03*
X0220300Y0062500D03*
X0220300Y0052500D03*
X0210300Y0052500D03*
X0200300Y0052500D03*
D15*
X0048569Y0050484D02*
X0048084Y0050969D01*
X0047690Y0051531D01*
X0047400Y0052153D01*
X0047223Y0052816D01*
X0047163Y0053500D01*
X0047223Y0054184D01*
X0047400Y0054847D01*
X0047690Y0055469D01*
X0048084Y0056031D01*
X0048569Y0056516D01*
X0049131Y0056910D01*
X0049753Y0057200D01*
X0050416Y0057377D01*
X0051100Y0057437D01*
X0051784Y0057377D01*
X0052447Y0057200D01*
X0053069Y0056910D01*
X0053631Y0056516D01*
X0054116Y0056031D01*
X0054510Y0055469D01*
X0054800Y0054847D01*
X0054977Y0054184D01*
X0055037Y0053500D01*
X0054977Y0052816D01*
X0054800Y0052153D01*
X0054510Y0051531D01*
X0054116Y0050969D01*
X0053631Y0050484D01*
X0053069Y0050090D01*
X0052447Y0049800D01*
X0051784Y0049623D01*
X0051100Y0049563D01*
X0050416Y0049623D01*
X0049753Y0049800D01*
X0049131Y0050090D01*
X0048569Y0050484D01*
X0048476Y0050578D02*
X0053724Y0050578D01*
X0054191Y0051076D02*
X0048009Y0051076D01*
X0047670Y0051575D02*
X0054530Y0051575D01*
X0054762Y0052073D02*
X0047438Y0052073D01*
X0047288Y0052572D02*
X0054912Y0052572D01*
X0054999Y0053070D02*
X0047201Y0053070D01*
X0047169Y0053569D02*
X0055031Y0053569D01*
X0054987Y0054067D02*
X0047213Y0054067D01*
X0047325Y0054566D02*
X0054875Y0054566D01*
X0054698Y0055064D02*
X0047502Y0055064D01*
X0047756Y0055563D02*
X0054444Y0055563D01*
X0054085Y0056061D02*
X0048115Y0056061D01*
X0048632Y0056560D02*
X0053568Y0056560D01*
X0052749Y0057058D02*
X0049451Y0057058D01*
X0049156Y0050079D02*
X0053044Y0050079D01*
X0051302Y0049581D02*
X0050898Y0049581D01*
X0050300Y0165563D02*
X0049616Y0165623D01*
X0048953Y0165800D01*
X0048331Y0166090D01*
X0047769Y0166484D01*
X0047284Y0166969D01*
X0046890Y0167531D01*
X0046600Y0168153D01*
X0046423Y0168816D01*
X0046363Y0169500D01*
X0046423Y0170184D01*
X0046600Y0170847D01*
X0046890Y0171469D01*
X0047284Y0172031D01*
X0047769Y0172516D01*
X0048331Y0172910D01*
X0048953Y0173200D01*
X0049616Y0173377D01*
X0050300Y0173437D01*
X0050984Y0173377D01*
X0051647Y0173200D01*
X0052269Y0172910D01*
X0052831Y0172516D01*
X0053316Y0172031D01*
X0053710Y0171469D01*
X0054000Y0170847D01*
X0054177Y0170184D01*
X0054237Y0169500D01*
X0054177Y0168816D01*
X0054000Y0168153D01*
X0053710Y0167531D01*
X0053316Y0166969D01*
X0052831Y0166484D01*
X0052269Y0166090D01*
X0051647Y0165800D01*
X0050984Y0165623D01*
X0050300Y0165563D01*
X0049202Y0165734D02*
X0051398Y0165734D01*
X0052471Y0166232D02*
X0048129Y0166232D01*
X0047523Y0166731D02*
X0053077Y0166731D01*
X0053498Y0167229D02*
X0047102Y0167229D01*
X0046799Y0167728D02*
X0053801Y0167728D01*
X0054019Y0168226D02*
X0046581Y0168226D01*
X0046447Y0168725D02*
X0054153Y0168725D01*
X0054213Y0169223D02*
X0046387Y0169223D01*
X0046382Y0169722D02*
X0054218Y0169722D01*
X0054167Y0170220D02*
X0046433Y0170220D01*
X0046566Y0170719D02*
X0054034Y0170719D01*
X0053827Y0171217D02*
X0046773Y0171217D01*
X0047064Y0171716D02*
X0053536Y0171716D01*
X0053132Y0172214D02*
X0047468Y0172214D01*
X0048051Y0172713D02*
X0052549Y0172713D01*
X0051602Y0173211D02*
X0048998Y0173211D01*
X0214090Y0082669D02*
X0214484Y0083231D01*
X0214969Y0083716D01*
X0215531Y0084110D01*
X0216153Y0084400D01*
X0216816Y0084577D01*
X0217500Y0084637D01*
X0218184Y0084577D01*
X0218847Y0084400D01*
X0219469Y0084110D01*
X0220031Y0083716D01*
X0220516Y0083231D01*
X0220910Y0082669D01*
X0221200Y0082047D01*
X0221377Y0081384D01*
X0221437Y0080700D01*
X0221377Y0080016D01*
X0221200Y0079353D01*
X0220910Y0078731D01*
X0220516Y0078169D01*
X0220031Y0077684D01*
X0219469Y0077290D01*
X0218847Y0077000D01*
X0218184Y0076823D01*
X0217500Y0076763D01*
X0216816Y0076823D01*
X0216153Y0077000D01*
X0215531Y0077290D01*
X0214969Y0077684D01*
X0214484Y0078169D01*
X0214090Y0078731D01*
X0213800Y0079353D01*
X0213623Y0080016D01*
X0213563Y0080700D01*
X0213623Y0081384D01*
X0213800Y0082047D01*
X0214090Y0082669D01*
X0214004Y0082482D02*
X0220996Y0082482D01*
X0221216Y0081984D02*
X0213784Y0081984D01*
X0213650Y0081485D02*
X0221350Y0081485D01*
X0221412Y0080987D02*
X0213588Y0080987D01*
X0213582Y0080488D02*
X0221418Y0080488D01*
X0221370Y0079990D02*
X0213630Y0079990D01*
X0213763Y0079491D02*
X0221237Y0079491D01*
X0221031Y0078993D02*
X0213969Y0078993D01*
X0214257Y0078494D02*
X0220743Y0078494D01*
X0220342Y0077996D02*
X0214658Y0077996D01*
X0215236Y0077497D02*
X0219764Y0077497D01*
X0218840Y0076999D02*
X0216160Y0076999D01*
X0214309Y0082981D02*
X0220691Y0082981D01*
X0220267Y0083479D02*
X0214733Y0083479D01*
X0215344Y0083978D02*
X0219656Y0083978D01*
X0218560Y0084476D02*
X0216440Y0084476D01*
D16*
X0213500Y0086300D03*
X0203100Y0077500D03*
X0197500Y0080700D03*
X0190300Y0075100D03*
X0184700Y0075100D03*
X0184700Y0069500D03*
X0174300Y0069500D03*
X0166300Y0065500D03*
X0152700Y0066300D03*
X0161500Y0079100D03*
X0155900Y0081500D03*
X0152700Y0086300D03*
X0147100Y0079900D03*
X0139100Y0083100D03*
X0131900Y0075900D03*
X0129500Y0083900D03*
X0129500Y0091900D03*
X0121500Y0091900D03*
X0119900Y0102300D03*
X0126300Y0103900D03*
X0111900Y0104700D03*
X0101500Y0098300D03*
X0099900Y0091100D03*
X0101500Y0084700D03*
X0103100Y0078300D03*
X0083100Y0082300D03*
X0087900Y0116700D03*
X0093500Y0143900D03*
X0110354Y0145554D03*
X0122300Y0144700D03*
X0127900Y0148700D03*
X0123100Y0151100D03*
X0127100Y0162300D03*
X0136700Y0178300D03*
X0130300Y0185500D03*
X0134300Y0196700D03*
X0107900Y0186300D03*
X0101500Y0183100D03*
X0106300Y0178300D03*
X0098300Y0191900D03*
X0080700Y0197500D03*
X0051100Y0190300D03*
X0099900Y0163900D03*
X0132700Y0135100D03*
X0137500Y0138300D03*
X0132700Y0127900D03*
X0151900Y0134300D03*
X0172700Y0136700D03*
X0183100Y0127900D03*
X0163100Y0110300D03*
X0159100Y0107100D03*
X0153500Y0111100D03*
X0143100Y0106300D03*
X0174300Y0108700D03*
X0184700Y0097500D03*
X0184700Y0091900D03*
X0188700Y0083900D03*
X0201500Y0071900D03*
X0126300Y0048700D03*
X0162300Y0165500D03*
X0163100Y0185500D03*
X0163900Y0195900D03*
X0175100Y0188700D03*
X0190300Y0184700D03*
X0201500Y0180700D03*
X0200700Y0191900D03*
X0219100Y0189500D03*
X0190300Y0169500D03*
D17*
X0079100Y0116700D03*
X0085500Y0063100D03*
X0059100Y0178300D03*
M02*
