G75*
%MOIN*%
%OFA0B0*%
%FSLAX25Y25*%
%IPPOS*%
%LPD*%
%AMOC8*
5,1,8,0,0,1.08239X$1,22.5*
%
%ADD10C,0.00500*%
%ADD11C,0.01200*%
%ADD12C,0.00600*%
%ADD13R,0.05512X0.00787*%
%ADD14C,0.00800*%
%ADD15C,0.01433*%
%ADD16C,0.00300*%
%ADD17C,0.00295*%
D10*
X0049046Y0054401D02*
X0049797Y0053650D01*
X0050547Y0053650D01*
X0051298Y0054401D01*
X0051298Y0055902D01*
X0052049Y0056653D01*
X0052799Y0056653D01*
X0053550Y0055902D01*
X0053550Y0054401D01*
X0052799Y0053650D01*
X0049797Y0056653D02*
X0049046Y0055902D01*
X0049046Y0054401D01*
X0052799Y0058254D02*
X0053550Y0059005D01*
X0053550Y0059755D01*
X0052799Y0060506D01*
X0049046Y0060506D01*
X0049046Y0061256D02*
X0049046Y0059755D01*
X0050547Y0062858D02*
X0049046Y0064359D01*
X0053550Y0064359D01*
X0053550Y0062858D02*
X0053550Y0065860D01*
X0088394Y0103163D02*
X0100206Y0103163D01*
X0100206Y0111037D01*
X0088394Y0111037D01*
X0088394Y0103163D01*
X0106252Y0060015D02*
X0112748Y0060015D01*
X0112748Y0049385D01*
X0106252Y0049385D01*
X0106252Y0060015D01*
X0113648Y0049594D02*
X0115550Y0049594D01*
X0115550Y0048960D02*
X0115550Y0050228D01*
X0114282Y0048960D02*
X0113648Y0049594D01*
X0113648Y0048018D02*
X0113648Y0047384D01*
X0113648Y0047701D02*
X0115233Y0047701D01*
X0115550Y0047384D01*
X0115550Y0047067D01*
X0115233Y0046750D01*
X0153323Y0153140D02*
X0153323Y0154091D01*
X0153640Y0154408D01*
X0154908Y0154408D01*
X0155225Y0154091D01*
X0155225Y0153140D01*
X0153323Y0153140D01*
X0153640Y0155350D02*
X0153323Y0155667D01*
X0153323Y0156301D01*
X0153640Y0156618D01*
X0153957Y0156618D01*
X0155225Y0155350D01*
X0155225Y0156618D01*
X0157374Y0200587D02*
X0156809Y0200768D01*
X0156240Y0200936D01*
X0155666Y0201089D01*
X0155090Y0201229D01*
X0154510Y0201356D01*
X0153927Y0201468D01*
X0153342Y0201567D01*
X0152755Y0201651D01*
X0152165Y0201722D01*
X0151575Y0201778D01*
X0150983Y0201821D01*
X0150390Y0201849D01*
X0149797Y0201863D01*
X0149203Y0201863D01*
X0148610Y0201849D01*
X0148017Y0201821D01*
X0147425Y0201778D01*
X0146835Y0201722D01*
X0146245Y0201651D01*
X0145658Y0201567D01*
X0145073Y0201468D01*
X0144490Y0201356D01*
X0143910Y0201229D01*
X0143334Y0201089D01*
X0142760Y0200936D01*
X0142191Y0200768D01*
X0141626Y0200587D01*
X0157374Y0200587D01*
X0160524Y0200587D01*
X0160524Y0191925D01*
X0153437Y0191925D01*
X0153437Y0190350D01*
X0145563Y0190350D01*
X0145563Y0191925D01*
X0138476Y0191925D01*
X0138476Y0200587D01*
X0141626Y0200587D01*
X0132524Y0200587D02*
X0132524Y0191925D01*
X0125437Y0191925D01*
X0125437Y0190350D01*
X0117563Y0190350D01*
X0117563Y0191925D01*
X0110476Y0191925D01*
X0110476Y0200587D01*
X0113626Y0200587D01*
X0129374Y0200587D01*
X0132524Y0200587D01*
X0129374Y0200587D02*
X0128809Y0200768D01*
X0128240Y0200936D01*
X0127666Y0201089D01*
X0127090Y0201229D01*
X0126510Y0201356D01*
X0125927Y0201468D01*
X0125342Y0201567D01*
X0124755Y0201651D01*
X0124165Y0201722D01*
X0123575Y0201778D01*
X0122983Y0201821D01*
X0122390Y0201849D01*
X0121797Y0201863D01*
X0121203Y0201863D01*
X0120610Y0201849D01*
X0120017Y0201821D01*
X0119425Y0201778D01*
X0118835Y0201722D01*
X0118245Y0201651D01*
X0117658Y0201567D01*
X0117073Y0201468D01*
X0116490Y0201356D01*
X0115910Y0201229D01*
X0115334Y0201089D01*
X0114760Y0200936D01*
X0114191Y0200768D01*
X0113626Y0200587D01*
X0178435Y0172877D02*
X0178435Y0170975D01*
X0179386Y0170975D01*
X0179703Y0171292D01*
X0179703Y0172560D01*
X0179386Y0172877D01*
X0178435Y0172877D01*
X0180645Y0172243D02*
X0181279Y0172877D01*
X0181279Y0170975D01*
X0180645Y0170975D02*
X0181913Y0170975D01*
X0182855Y0171292D02*
X0183172Y0170975D01*
X0183806Y0170975D01*
X0184123Y0171292D01*
X0184123Y0171609D01*
X0183806Y0171926D01*
X0183489Y0171926D01*
X0183806Y0171926D02*
X0184123Y0172243D01*
X0184123Y0172560D01*
X0183806Y0172877D01*
X0183172Y0172877D01*
X0182855Y0172560D01*
X0182701Y0164077D02*
X0182067Y0164077D01*
X0181750Y0163760D01*
X0181750Y0163443D01*
X0182067Y0163126D01*
X0183018Y0163126D01*
X0183018Y0163760D02*
X0182701Y0164077D01*
X0183018Y0163760D02*
X0183018Y0162492D01*
X0182701Y0162175D01*
X0182067Y0162175D01*
X0181750Y0162492D01*
X0180808Y0162492D02*
X0180808Y0163760D01*
X0180491Y0164077D01*
X0179540Y0164077D01*
X0179540Y0162175D01*
X0180491Y0162175D01*
X0180808Y0162492D01*
D11*
X0150048Y0063311D02*
X0146111Y0063311D01*
X0150048Y0063311D02*
X0150048Y0059374D01*
X0150048Y0047563D02*
X0150048Y0043626D01*
X0122489Y0063311D02*
X0118552Y0063311D01*
X0118580Y0063240D02*
X0118580Y0059374D01*
X0118552Y0059374D01*
X0118552Y0047563D02*
X0118552Y0043626D01*
D12*
X0109500Y0052731D02*
X0111075Y0056669D01*
X0107925Y0056669D01*
X0109500Y0052731D01*
X0090289Y0053955D02*
X0090289Y0049845D01*
X0090289Y0046672D02*
X0090289Y0046302D01*
X0083911Y0046302D01*
X0083911Y0046672D01*
X0083911Y0049845D02*
X0083911Y0050215D01*
X0083911Y0053585D02*
X0083911Y0053955D01*
X0083911Y0057128D02*
X0083911Y0057498D01*
X0090289Y0057498D01*
X0090289Y0057128D01*
X0062300Y0054400D02*
X0062300Y0065400D01*
X0062298Y0065460D01*
X0062293Y0065521D01*
X0062284Y0065580D01*
X0062271Y0065639D01*
X0062255Y0065698D01*
X0062235Y0065755D01*
X0062212Y0065810D01*
X0062185Y0065865D01*
X0062156Y0065917D01*
X0062123Y0065968D01*
X0062087Y0066017D01*
X0062049Y0066063D01*
X0062007Y0066107D01*
X0061963Y0066149D01*
X0061917Y0066187D01*
X0061868Y0066223D01*
X0061817Y0066256D01*
X0061765Y0066285D01*
X0061710Y0066312D01*
X0061655Y0066335D01*
X0061598Y0066355D01*
X0061539Y0066371D01*
X0061480Y0066384D01*
X0061421Y0066393D01*
X0061360Y0066398D01*
X0061300Y0066400D01*
X0055300Y0066400D01*
X0055240Y0066398D01*
X0055179Y0066393D01*
X0055120Y0066384D01*
X0055061Y0066371D01*
X0055002Y0066355D01*
X0054945Y0066335D01*
X0054890Y0066312D01*
X0054835Y0066285D01*
X0054783Y0066256D01*
X0054732Y0066223D01*
X0054683Y0066187D01*
X0054637Y0066149D01*
X0054593Y0066107D01*
X0054551Y0066063D01*
X0054513Y0066017D01*
X0054477Y0065968D01*
X0054444Y0065917D01*
X0054415Y0065865D01*
X0054388Y0065810D01*
X0054365Y0065755D01*
X0054345Y0065698D01*
X0054329Y0065639D01*
X0054316Y0065580D01*
X0054307Y0065521D01*
X0054302Y0065460D01*
X0054300Y0065400D01*
X0054300Y0054400D01*
X0054302Y0054340D01*
X0054307Y0054279D01*
X0054316Y0054220D01*
X0054329Y0054161D01*
X0054345Y0054102D01*
X0054365Y0054045D01*
X0054388Y0053990D01*
X0054415Y0053935D01*
X0054444Y0053883D01*
X0054477Y0053832D01*
X0054513Y0053783D01*
X0054551Y0053737D01*
X0054593Y0053693D01*
X0054637Y0053651D01*
X0054683Y0053613D01*
X0054732Y0053577D01*
X0054783Y0053544D01*
X0054835Y0053515D01*
X0054890Y0053488D01*
X0054945Y0053465D01*
X0055002Y0053445D01*
X0055061Y0053429D01*
X0055120Y0053416D01*
X0055179Y0053407D01*
X0055240Y0053402D01*
X0055300Y0053400D01*
X0061300Y0053400D01*
X0061360Y0053402D01*
X0061421Y0053407D01*
X0061480Y0053416D01*
X0061539Y0053429D01*
X0061598Y0053445D01*
X0061655Y0053465D01*
X0061710Y0053488D01*
X0061765Y0053515D01*
X0061817Y0053544D01*
X0061868Y0053577D01*
X0061917Y0053613D01*
X0061963Y0053651D01*
X0062007Y0053693D01*
X0062049Y0053737D01*
X0062087Y0053783D01*
X0062123Y0053832D01*
X0062156Y0053883D01*
X0062185Y0053935D01*
X0062212Y0053990D01*
X0062235Y0054045D01*
X0062255Y0054102D01*
X0062271Y0054161D01*
X0062284Y0054220D01*
X0062293Y0054279D01*
X0062298Y0054340D01*
X0062300Y0054400D01*
X0051200Y0103100D02*
X0051204Y0103431D01*
X0051216Y0103762D01*
X0051237Y0104093D01*
X0051265Y0104423D01*
X0051302Y0104753D01*
X0051346Y0105081D01*
X0051399Y0105408D01*
X0051459Y0105734D01*
X0051528Y0106058D01*
X0051605Y0106380D01*
X0051689Y0106701D01*
X0051781Y0107019D01*
X0051881Y0107335D01*
X0051989Y0107648D01*
X0052105Y0107959D01*
X0052228Y0108266D01*
X0052358Y0108571D01*
X0052496Y0108872D01*
X0052641Y0109170D01*
X0052794Y0109464D01*
X0052954Y0109754D01*
X0053121Y0110040D01*
X0053294Y0110322D01*
X0053475Y0110600D01*
X0053663Y0110873D01*
X0053857Y0111142D01*
X0054057Y0111406D01*
X0054264Y0111664D01*
X0054478Y0111918D01*
X0054697Y0112166D01*
X0054923Y0112409D01*
X0055154Y0112646D01*
X0055391Y0112877D01*
X0055634Y0113103D01*
X0055882Y0113322D01*
X0056136Y0113536D01*
X0056394Y0113743D01*
X0056658Y0113943D01*
X0056927Y0114137D01*
X0057200Y0114325D01*
X0057478Y0114506D01*
X0057760Y0114679D01*
X0058046Y0114846D01*
X0058336Y0115006D01*
X0058630Y0115159D01*
X0058928Y0115304D01*
X0059229Y0115442D01*
X0059534Y0115572D01*
X0059841Y0115695D01*
X0060152Y0115811D01*
X0060465Y0115919D01*
X0060781Y0116019D01*
X0061099Y0116111D01*
X0061420Y0116195D01*
X0061742Y0116272D01*
X0062066Y0116341D01*
X0062392Y0116401D01*
X0062719Y0116454D01*
X0063047Y0116498D01*
X0063377Y0116535D01*
X0063707Y0116563D01*
X0064038Y0116584D01*
X0064369Y0116596D01*
X0064700Y0116600D01*
X0065031Y0116596D01*
X0065362Y0116584D01*
X0065693Y0116563D01*
X0066023Y0116535D01*
X0066353Y0116498D01*
X0066681Y0116454D01*
X0067008Y0116401D01*
X0067334Y0116341D01*
X0067658Y0116272D01*
X0067980Y0116195D01*
X0068301Y0116111D01*
X0068619Y0116019D01*
X0068935Y0115919D01*
X0069248Y0115811D01*
X0069559Y0115695D01*
X0069866Y0115572D01*
X0070171Y0115442D01*
X0070472Y0115304D01*
X0070770Y0115159D01*
X0071064Y0115006D01*
X0071354Y0114846D01*
X0071640Y0114679D01*
X0071922Y0114506D01*
X0072200Y0114325D01*
X0072473Y0114137D01*
X0072742Y0113943D01*
X0073006Y0113743D01*
X0073264Y0113536D01*
X0073518Y0113322D01*
X0073766Y0113103D01*
X0074009Y0112877D01*
X0074246Y0112646D01*
X0074477Y0112409D01*
X0074703Y0112166D01*
X0074922Y0111918D01*
X0075136Y0111664D01*
X0075343Y0111406D01*
X0075543Y0111142D01*
X0075737Y0110873D01*
X0075925Y0110600D01*
X0076106Y0110322D01*
X0076279Y0110040D01*
X0076446Y0109754D01*
X0076606Y0109464D01*
X0076759Y0109170D01*
X0076904Y0108872D01*
X0077042Y0108571D01*
X0077172Y0108266D01*
X0077295Y0107959D01*
X0077411Y0107648D01*
X0077519Y0107335D01*
X0077619Y0107019D01*
X0077711Y0106701D01*
X0077795Y0106380D01*
X0077872Y0106058D01*
X0077941Y0105734D01*
X0078001Y0105408D01*
X0078054Y0105081D01*
X0078098Y0104753D01*
X0078135Y0104423D01*
X0078163Y0104093D01*
X0078184Y0103762D01*
X0078196Y0103431D01*
X0078200Y0103100D01*
X0078196Y0102769D01*
X0078184Y0102438D01*
X0078163Y0102107D01*
X0078135Y0101777D01*
X0078098Y0101447D01*
X0078054Y0101119D01*
X0078001Y0100792D01*
X0077941Y0100466D01*
X0077872Y0100142D01*
X0077795Y0099820D01*
X0077711Y0099499D01*
X0077619Y0099181D01*
X0077519Y0098865D01*
X0077411Y0098552D01*
X0077295Y0098241D01*
X0077172Y0097934D01*
X0077042Y0097629D01*
X0076904Y0097328D01*
X0076759Y0097030D01*
X0076606Y0096736D01*
X0076446Y0096446D01*
X0076279Y0096160D01*
X0076106Y0095878D01*
X0075925Y0095600D01*
X0075737Y0095327D01*
X0075543Y0095058D01*
X0075343Y0094794D01*
X0075136Y0094536D01*
X0074922Y0094282D01*
X0074703Y0094034D01*
X0074477Y0093791D01*
X0074246Y0093554D01*
X0074009Y0093323D01*
X0073766Y0093097D01*
X0073518Y0092878D01*
X0073264Y0092664D01*
X0073006Y0092457D01*
X0072742Y0092257D01*
X0072473Y0092063D01*
X0072200Y0091875D01*
X0071922Y0091694D01*
X0071640Y0091521D01*
X0071354Y0091354D01*
X0071064Y0091194D01*
X0070770Y0091041D01*
X0070472Y0090896D01*
X0070171Y0090758D01*
X0069866Y0090628D01*
X0069559Y0090505D01*
X0069248Y0090389D01*
X0068935Y0090281D01*
X0068619Y0090181D01*
X0068301Y0090089D01*
X0067980Y0090005D01*
X0067658Y0089928D01*
X0067334Y0089859D01*
X0067008Y0089799D01*
X0066681Y0089746D01*
X0066353Y0089702D01*
X0066023Y0089665D01*
X0065693Y0089637D01*
X0065362Y0089616D01*
X0065031Y0089604D01*
X0064700Y0089600D01*
X0064369Y0089604D01*
X0064038Y0089616D01*
X0063707Y0089637D01*
X0063377Y0089665D01*
X0063047Y0089702D01*
X0062719Y0089746D01*
X0062392Y0089799D01*
X0062066Y0089859D01*
X0061742Y0089928D01*
X0061420Y0090005D01*
X0061099Y0090089D01*
X0060781Y0090181D01*
X0060465Y0090281D01*
X0060152Y0090389D01*
X0059841Y0090505D01*
X0059534Y0090628D01*
X0059229Y0090758D01*
X0058928Y0090896D01*
X0058630Y0091041D01*
X0058336Y0091194D01*
X0058046Y0091354D01*
X0057760Y0091521D01*
X0057478Y0091694D01*
X0057200Y0091875D01*
X0056927Y0092063D01*
X0056658Y0092257D01*
X0056394Y0092457D01*
X0056136Y0092664D01*
X0055882Y0092878D01*
X0055634Y0093097D01*
X0055391Y0093323D01*
X0055154Y0093554D01*
X0054923Y0093791D01*
X0054697Y0094034D01*
X0054478Y0094282D01*
X0054264Y0094536D01*
X0054057Y0094794D01*
X0053857Y0095058D01*
X0053663Y0095327D01*
X0053475Y0095600D01*
X0053294Y0095878D01*
X0053121Y0096160D01*
X0052954Y0096446D01*
X0052794Y0096736D01*
X0052641Y0097030D01*
X0052496Y0097328D01*
X0052358Y0097629D01*
X0052228Y0097934D01*
X0052105Y0098241D01*
X0051989Y0098552D01*
X0051881Y0098865D01*
X0051781Y0099181D01*
X0051689Y0099499D01*
X0051605Y0099820D01*
X0051528Y0100142D01*
X0051459Y0100466D01*
X0051399Y0100792D01*
X0051346Y0101119D01*
X0051302Y0101447D01*
X0051265Y0101777D01*
X0051237Y0102107D01*
X0051216Y0102438D01*
X0051204Y0102769D01*
X0051200Y0103100D01*
X0132901Y0108700D02*
X0133396Y0109195D01*
X0132901Y0108700D02*
X0133396Y0108205D01*
X0151215Y0124893D02*
X0154185Y0124893D01*
X0153195Y0128004D02*
X0152700Y0128499D01*
X0152205Y0128004D01*
X0172004Y0109195D02*
X0172499Y0108700D01*
X0172004Y0108205D01*
X0153195Y0089396D02*
X0152700Y0088901D01*
X0152205Y0089396D01*
X0192400Y0103100D02*
X0192404Y0103431D01*
X0192416Y0103762D01*
X0192437Y0104093D01*
X0192465Y0104423D01*
X0192502Y0104753D01*
X0192546Y0105081D01*
X0192599Y0105408D01*
X0192659Y0105734D01*
X0192728Y0106058D01*
X0192805Y0106380D01*
X0192889Y0106701D01*
X0192981Y0107019D01*
X0193081Y0107335D01*
X0193189Y0107648D01*
X0193305Y0107959D01*
X0193428Y0108266D01*
X0193558Y0108571D01*
X0193696Y0108872D01*
X0193841Y0109170D01*
X0193994Y0109464D01*
X0194154Y0109754D01*
X0194321Y0110040D01*
X0194494Y0110322D01*
X0194675Y0110600D01*
X0194863Y0110873D01*
X0195057Y0111142D01*
X0195257Y0111406D01*
X0195464Y0111664D01*
X0195678Y0111918D01*
X0195897Y0112166D01*
X0196123Y0112409D01*
X0196354Y0112646D01*
X0196591Y0112877D01*
X0196834Y0113103D01*
X0197082Y0113322D01*
X0197336Y0113536D01*
X0197594Y0113743D01*
X0197858Y0113943D01*
X0198127Y0114137D01*
X0198400Y0114325D01*
X0198678Y0114506D01*
X0198960Y0114679D01*
X0199246Y0114846D01*
X0199536Y0115006D01*
X0199830Y0115159D01*
X0200128Y0115304D01*
X0200429Y0115442D01*
X0200734Y0115572D01*
X0201041Y0115695D01*
X0201352Y0115811D01*
X0201665Y0115919D01*
X0201981Y0116019D01*
X0202299Y0116111D01*
X0202620Y0116195D01*
X0202942Y0116272D01*
X0203266Y0116341D01*
X0203592Y0116401D01*
X0203919Y0116454D01*
X0204247Y0116498D01*
X0204577Y0116535D01*
X0204907Y0116563D01*
X0205238Y0116584D01*
X0205569Y0116596D01*
X0205900Y0116600D01*
X0206231Y0116596D01*
X0206562Y0116584D01*
X0206893Y0116563D01*
X0207223Y0116535D01*
X0207553Y0116498D01*
X0207881Y0116454D01*
X0208208Y0116401D01*
X0208534Y0116341D01*
X0208858Y0116272D01*
X0209180Y0116195D01*
X0209501Y0116111D01*
X0209819Y0116019D01*
X0210135Y0115919D01*
X0210448Y0115811D01*
X0210759Y0115695D01*
X0211066Y0115572D01*
X0211371Y0115442D01*
X0211672Y0115304D01*
X0211970Y0115159D01*
X0212264Y0115006D01*
X0212554Y0114846D01*
X0212840Y0114679D01*
X0213122Y0114506D01*
X0213400Y0114325D01*
X0213673Y0114137D01*
X0213942Y0113943D01*
X0214206Y0113743D01*
X0214464Y0113536D01*
X0214718Y0113322D01*
X0214966Y0113103D01*
X0215209Y0112877D01*
X0215446Y0112646D01*
X0215677Y0112409D01*
X0215903Y0112166D01*
X0216122Y0111918D01*
X0216336Y0111664D01*
X0216543Y0111406D01*
X0216743Y0111142D01*
X0216937Y0110873D01*
X0217125Y0110600D01*
X0217306Y0110322D01*
X0217479Y0110040D01*
X0217646Y0109754D01*
X0217806Y0109464D01*
X0217959Y0109170D01*
X0218104Y0108872D01*
X0218242Y0108571D01*
X0218372Y0108266D01*
X0218495Y0107959D01*
X0218611Y0107648D01*
X0218719Y0107335D01*
X0218819Y0107019D01*
X0218911Y0106701D01*
X0218995Y0106380D01*
X0219072Y0106058D01*
X0219141Y0105734D01*
X0219201Y0105408D01*
X0219254Y0105081D01*
X0219298Y0104753D01*
X0219335Y0104423D01*
X0219363Y0104093D01*
X0219384Y0103762D01*
X0219396Y0103431D01*
X0219400Y0103100D01*
X0219396Y0102769D01*
X0219384Y0102438D01*
X0219363Y0102107D01*
X0219335Y0101777D01*
X0219298Y0101447D01*
X0219254Y0101119D01*
X0219201Y0100792D01*
X0219141Y0100466D01*
X0219072Y0100142D01*
X0218995Y0099820D01*
X0218911Y0099499D01*
X0218819Y0099181D01*
X0218719Y0098865D01*
X0218611Y0098552D01*
X0218495Y0098241D01*
X0218372Y0097934D01*
X0218242Y0097629D01*
X0218104Y0097328D01*
X0217959Y0097030D01*
X0217806Y0096736D01*
X0217646Y0096446D01*
X0217479Y0096160D01*
X0217306Y0095878D01*
X0217125Y0095600D01*
X0216937Y0095327D01*
X0216743Y0095058D01*
X0216543Y0094794D01*
X0216336Y0094536D01*
X0216122Y0094282D01*
X0215903Y0094034D01*
X0215677Y0093791D01*
X0215446Y0093554D01*
X0215209Y0093323D01*
X0214966Y0093097D01*
X0214718Y0092878D01*
X0214464Y0092664D01*
X0214206Y0092457D01*
X0213942Y0092257D01*
X0213673Y0092063D01*
X0213400Y0091875D01*
X0213122Y0091694D01*
X0212840Y0091521D01*
X0212554Y0091354D01*
X0212264Y0091194D01*
X0211970Y0091041D01*
X0211672Y0090896D01*
X0211371Y0090758D01*
X0211066Y0090628D01*
X0210759Y0090505D01*
X0210448Y0090389D01*
X0210135Y0090281D01*
X0209819Y0090181D01*
X0209501Y0090089D01*
X0209180Y0090005D01*
X0208858Y0089928D01*
X0208534Y0089859D01*
X0208208Y0089799D01*
X0207881Y0089746D01*
X0207553Y0089702D01*
X0207223Y0089665D01*
X0206893Y0089637D01*
X0206562Y0089616D01*
X0206231Y0089604D01*
X0205900Y0089600D01*
X0205569Y0089604D01*
X0205238Y0089616D01*
X0204907Y0089637D01*
X0204577Y0089665D01*
X0204247Y0089702D01*
X0203919Y0089746D01*
X0203592Y0089799D01*
X0203266Y0089859D01*
X0202942Y0089928D01*
X0202620Y0090005D01*
X0202299Y0090089D01*
X0201981Y0090181D01*
X0201665Y0090281D01*
X0201352Y0090389D01*
X0201041Y0090505D01*
X0200734Y0090628D01*
X0200429Y0090758D01*
X0200128Y0090896D01*
X0199830Y0091041D01*
X0199536Y0091194D01*
X0199246Y0091354D01*
X0198960Y0091521D01*
X0198678Y0091694D01*
X0198400Y0091875D01*
X0198127Y0092063D01*
X0197858Y0092257D01*
X0197594Y0092457D01*
X0197336Y0092664D01*
X0197082Y0092878D01*
X0196834Y0093097D01*
X0196591Y0093323D01*
X0196354Y0093554D01*
X0196123Y0093791D01*
X0195897Y0094034D01*
X0195678Y0094282D01*
X0195464Y0094536D01*
X0195257Y0094794D01*
X0195057Y0095058D01*
X0194863Y0095327D01*
X0194675Y0095600D01*
X0194494Y0095878D01*
X0194321Y0096160D01*
X0194154Y0096446D01*
X0193994Y0096736D01*
X0193841Y0097030D01*
X0193696Y0097328D01*
X0193558Y0097629D01*
X0193428Y0097934D01*
X0193305Y0098241D01*
X0193189Y0098552D01*
X0193081Y0098865D01*
X0192981Y0099181D01*
X0192889Y0099499D01*
X0192805Y0099820D01*
X0192728Y0100142D01*
X0192659Y0100466D01*
X0192599Y0100792D01*
X0192546Y0101119D01*
X0192502Y0101447D01*
X0192465Y0101777D01*
X0192437Y0102107D01*
X0192416Y0102438D01*
X0192404Y0102769D01*
X0192400Y0103100D01*
X0209897Y0176221D02*
X0215507Y0176221D01*
X0215507Y0188379D02*
X0209897Y0188379D01*
D13*
X0109500Y0052338D03*
D14*
X0099590Y0063467D02*
X0097031Y0063467D01*
X0099590Y0063467D02*
X0103133Y0067010D01*
X0103133Y0084333D01*
X0097031Y0084333D01*
X0088369Y0084333D02*
X0082267Y0084333D01*
X0082267Y0067010D01*
X0085810Y0063467D01*
X0088369Y0063467D01*
X0096440Y0065239D02*
X0096651Y0065333D01*
X0096859Y0065432D01*
X0097066Y0065537D01*
X0097269Y0065646D01*
X0097470Y0065761D01*
X0097668Y0065880D01*
X0097863Y0066004D01*
X0098054Y0066133D01*
X0098243Y0066266D01*
X0098428Y0066404D01*
X0098610Y0066547D01*
X0098788Y0066694D01*
X0098963Y0066845D01*
X0099134Y0067000D01*
X0099301Y0067160D01*
X0099464Y0067323D01*
X0099623Y0067491D01*
X0099778Y0067662D01*
X0099928Y0067838D01*
X0100075Y0068016D01*
X0100216Y0068199D01*
X0100354Y0068385D01*
X0100486Y0068574D01*
X0100615Y0068766D01*
X0100738Y0068961D01*
X0100856Y0069159D01*
X0100970Y0069361D01*
X0101079Y0069564D01*
X0101182Y0069771D01*
X0101281Y0069980D01*
X0101374Y0070191D01*
X0101463Y0070405D01*
X0101546Y0070620D01*
X0101623Y0070838D01*
X0101695Y0071057D01*
X0101762Y0071278D01*
X0101824Y0071501D01*
X0101880Y0071725D01*
X0101930Y0071951D01*
X0101975Y0072177D01*
X0102015Y0072405D01*
X0102049Y0072633D01*
X0102077Y0072863D01*
X0102099Y0073092D01*
X0102116Y0073323D01*
X0102128Y0073554D01*
X0102133Y0073784D01*
X0102133Y0074016D01*
X0102128Y0074246D01*
X0102116Y0074477D01*
X0102099Y0074708D01*
X0102077Y0074937D01*
X0102049Y0075167D01*
X0102015Y0075395D01*
X0101975Y0075623D01*
X0101930Y0075849D01*
X0101880Y0076075D01*
X0101824Y0076299D01*
X0101762Y0076522D01*
X0101695Y0076743D01*
X0101623Y0076962D01*
X0101546Y0077180D01*
X0101463Y0077395D01*
X0101374Y0077609D01*
X0101281Y0077820D01*
X0101182Y0078029D01*
X0101079Y0078236D01*
X0100970Y0078439D01*
X0100856Y0078641D01*
X0100738Y0078839D01*
X0100615Y0079034D01*
X0100486Y0079226D01*
X0100354Y0079415D01*
X0100216Y0079601D01*
X0100075Y0079784D01*
X0099928Y0079962D01*
X0099778Y0080138D01*
X0099623Y0080309D01*
X0099464Y0080477D01*
X0099301Y0080640D01*
X0099134Y0080800D01*
X0098963Y0080955D01*
X0098788Y0081106D01*
X0098610Y0081253D01*
X0098428Y0081396D01*
X0098243Y0081534D01*
X0098054Y0081667D01*
X0097863Y0081796D01*
X0097668Y0081920D01*
X0097470Y0082039D01*
X0097269Y0082154D01*
X0097066Y0082263D01*
X0096859Y0082368D01*
X0096651Y0082467D01*
X0096440Y0082561D01*
X0088960Y0082561D02*
X0088749Y0082467D01*
X0088541Y0082368D01*
X0088334Y0082263D01*
X0088131Y0082154D01*
X0087930Y0082039D01*
X0087732Y0081920D01*
X0087537Y0081796D01*
X0087346Y0081667D01*
X0087157Y0081534D01*
X0086972Y0081396D01*
X0086790Y0081253D01*
X0086612Y0081106D01*
X0086437Y0080955D01*
X0086266Y0080800D01*
X0086099Y0080640D01*
X0085936Y0080477D01*
X0085777Y0080309D01*
X0085622Y0080138D01*
X0085472Y0079962D01*
X0085325Y0079784D01*
X0085184Y0079601D01*
X0085046Y0079415D01*
X0084914Y0079226D01*
X0084785Y0079034D01*
X0084662Y0078839D01*
X0084544Y0078641D01*
X0084430Y0078439D01*
X0084321Y0078236D01*
X0084218Y0078029D01*
X0084119Y0077820D01*
X0084026Y0077609D01*
X0083937Y0077395D01*
X0083854Y0077180D01*
X0083777Y0076962D01*
X0083705Y0076743D01*
X0083638Y0076522D01*
X0083576Y0076299D01*
X0083520Y0076075D01*
X0083470Y0075849D01*
X0083425Y0075623D01*
X0083385Y0075395D01*
X0083351Y0075167D01*
X0083323Y0074937D01*
X0083301Y0074708D01*
X0083284Y0074477D01*
X0083272Y0074246D01*
X0083267Y0074016D01*
X0083267Y0073784D01*
X0083272Y0073554D01*
X0083284Y0073323D01*
X0083301Y0073092D01*
X0083323Y0072863D01*
X0083351Y0072633D01*
X0083385Y0072405D01*
X0083425Y0072177D01*
X0083470Y0071951D01*
X0083520Y0071725D01*
X0083576Y0071501D01*
X0083638Y0071278D01*
X0083705Y0071057D01*
X0083777Y0070838D01*
X0083854Y0070620D01*
X0083937Y0070405D01*
X0084026Y0070191D01*
X0084119Y0069980D01*
X0084218Y0069771D01*
X0084321Y0069564D01*
X0084430Y0069361D01*
X0084544Y0069159D01*
X0084662Y0068961D01*
X0084785Y0068766D01*
X0084914Y0068574D01*
X0085046Y0068385D01*
X0085184Y0068199D01*
X0085325Y0068016D01*
X0085472Y0067838D01*
X0085622Y0067662D01*
X0085777Y0067491D01*
X0085936Y0067323D01*
X0086099Y0067160D01*
X0086266Y0067000D01*
X0086437Y0066845D01*
X0086612Y0066694D01*
X0086790Y0066547D01*
X0086972Y0066404D01*
X0087157Y0066266D01*
X0087346Y0066133D01*
X0087537Y0066004D01*
X0087732Y0065880D01*
X0087930Y0065761D01*
X0088131Y0065646D01*
X0088334Y0065537D01*
X0088541Y0065432D01*
X0088749Y0065333D01*
X0088960Y0065239D01*
X0058401Y0103100D02*
X0058403Y0103258D01*
X0058409Y0103416D01*
X0058419Y0103574D01*
X0058433Y0103732D01*
X0058451Y0103889D01*
X0058472Y0104046D01*
X0058498Y0104202D01*
X0058528Y0104358D01*
X0058561Y0104513D01*
X0058599Y0104666D01*
X0058640Y0104819D01*
X0058685Y0104971D01*
X0058734Y0105122D01*
X0058787Y0105271D01*
X0058843Y0105419D01*
X0058903Y0105565D01*
X0058967Y0105710D01*
X0059035Y0105853D01*
X0059106Y0105995D01*
X0059180Y0106135D01*
X0059258Y0106272D01*
X0059340Y0106408D01*
X0059424Y0106542D01*
X0059513Y0106673D01*
X0059604Y0106802D01*
X0059699Y0106929D01*
X0059796Y0107054D01*
X0059897Y0107176D01*
X0060001Y0107295D01*
X0060108Y0107412D01*
X0060218Y0107526D01*
X0060331Y0107637D01*
X0060446Y0107746D01*
X0060564Y0107851D01*
X0060685Y0107953D01*
X0060808Y0108053D01*
X0060934Y0108149D01*
X0061062Y0108242D01*
X0061192Y0108332D01*
X0061325Y0108418D01*
X0061460Y0108502D01*
X0061596Y0108581D01*
X0061735Y0108658D01*
X0061876Y0108730D01*
X0062018Y0108800D01*
X0062162Y0108865D01*
X0062308Y0108927D01*
X0062455Y0108985D01*
X0062604Y0109040D01*
X0062754Y0109091D01*
X0062905Y0109138D01*
X0063057Y0109181D01*
X0063210Y0109220D01*
X0063365Y0109256D01*
X0063520Y0109287D01*
X0063676Y0109315D01*
X0063832Y0109339D01*
X0063989Y0109359D01*
X0064147Y0109375D01*
X0064304Y0109387D01*
X0064463Y0109395D01*
X0064621Y0109399D01*
X0064779Y0109399D01*
X0064937Y0109395D01*
X0065096Y0109387D01*
X0065253Y0109375D01*
X0065411Y0109359D01*
X0065568Y0109339D01*
X0065724Y0109315D01*
X0065880Y0109287D01*
X0066035Y0109256D01*
X0066190Y0109220D01*
X0066343Y0109181D01*
X0066495Y0109138D01*
X0066646Y0109091D01*
X0066796Y0109040D01*
X0066945Y0108985D01*
X0067092Y0108927D01*
X0067238Y0108865D01*
X0067382Y0108800D01*
X0067524Y0108730D01*
X0067665Y0108658D01*
X0067804Y0108581D01*
X0067940Y0108502D01*
X0068075Y0108418D01*
X0068208Y0108332D01*
X0068338Y0108242D01*
X0068466Y0108149D01*
X0068592Y0108053D01*
X0068715Y0107953D01*
X0068836Y0107851D01*
X0068954Y0107746D01*
X0069069Y0107637D01*
X0069182Y0107526D01*
X0069292Y0107412D01*
X0069399Y0107295D01*
X0069503Y0107176D01*
X0069604Y0107054D01*
X0069701Y0106929D01*
X0069796Y0106802D01*
X0069887Y0106673D01*
X0069976Y0106542D01*
X0070060Y0106408D01*
X0070142Y0106272D01*
X0070220Y0106135D01*
X0070294Y0105995D01*
X0070365Y0105853D01*
X0070433Y0105710D01*
X0070497Y0105565D01*
X0070557Y0105419D01*
X0070613Y0105271D01*
X0070666Y0105122D01*
X0070715Y0104971D01*
X0070760Y0104819D01*
X0070801Y0104666D01*
X0070839Y0104513D01*
X0070872Y0104358D01*
X0070902Y0104202D01*
X0070928Y0104046D01*
X0070949Y0103889D01*
X0070967Y0103732D01*
X0070981Y0103574D01*
X0070991Y0103416D01*
X0070997Y0103258D01*
X0070999Y0103100D01*
X0070997Y0102942D01*
X0070991Y0102784D01*
X0070981Y0102626D01*
X0070967Y0102468D01*
X0070949Y0102311D01*
X0070928Y0102154D01*
X0070902Y0101998D01*
X0070872Y0101842D01*
X0070839Y0101687D01*
X0070801Y0101534D01*
X0070760Y0101381D01*
X0070715Y0101229D01*
X0070666Y0101078D01*
X0070613Y0100929D01*
X0070557Y0100781D01*
X0070497Y0100635D01*
X0070433Y0100490D01*
X0070365Y0100347D01*
X0070294Y0100205D01*
X0070220Y0100065D01*
X0070142Y0099928D01*
X0070060Y0099792D01*
X0069976Y0099658D01*
X0069887Y0099527D01*
X0069796Y0099398D01*
X0069701Y0099271D01*
X0069604Y0099146D01*
X0069503Y0099024D01*
X0069399Y0098905D01*
X0069292Y0098788D01*
X0069182Y0098674D01*
X0069069Y0098563D01*
X0068954Y0098454D01*
X0068836Y0098349D01*
X0068715Y0098247D01*
X0068592Y0098147D01*
X0068466Y0098051D01*
X0068338Y0097958D01*
X0068208Y0097868D01*
X0068075Y0097782D01*
X0067940Y0097698D01*
X0067804Y0097619D01*
X0067665Y0097542D01*
X0067524Y0097470D01*
X0067382Y0097400D01*
X0067238Y0097335D01*
X0067092Y0097273D01*
X0066945Y0097215D01*
X0066796Y0097160D01*
X0066646Y0097109D01*
X0066495Y0097062D01*
X0066343Y0097019D01*
X0066190Y0096980D01*
X0066035Y0096944D01*
X0065880Y0096913D01*
X0065724Y0096885D01*
X0065568Y0096861D01*
X0065411Y0096841D01*
X0065253Y0096825D01*
X0065096Y0096813D01*
X0064937Y0096805D01*
X0064779Y0096801D01*
X0064621Y0096801D01*
X0064463Y0096805D01*
X0064304Y0096813D01*
X0064147Y0096825D01*
X0063989Y0096841D01*
X0063832Y0096861D01*
X0063676Y0096885D01*
X0063520Y0096913D01*
X0063365Y0096944D01*
X0063210Y0096980D01*
X0063057Y0097019D01*
X0062905Y0097062D01*
X0062754Y0097109D01*
X0062604Y0097160D01*
X0062455Y0097215D01*
X0062308Y0097273D01*
X0062162Y0097335D01*
X0062018Y0097400D01*
X0061876Y0097470D01*
X0061735Y0097542D01*
X0061596Y0097619D01*
X0061460Y0097698D01*
X0061325Y0097782D01*
X0061192Y0097868D01*
X0061062Y0097958D01*
X0060934Y0098051D01*
X0060808Y0098147D01*
X0060685Y0098247D01*
X0060564Y0098349D01*
X0060446Y0098454D01*
X0060331Y0098563D01*
X0060218Y0098674D01*
X0060108Y0098788D01*
X0060001Y0098905D01*
X0059897Y0099024D01*
X0059796Y0099146D01*
X0059699Y0099271D01*
X0059604Y0099398D01*
X0059513Y0099527D01*
X0059424Y0099658D01*
X0059340Y0099792D01*
X0059258Y0099928D01*
X0059180Y0100065D01*
X0059106Y0100205D01*
X0059035Y0100347D01*
X0058967Y0100490D01*
X0058903Y0100635D01*
X0058843Y0100781D01*
X0058787Y0100929D01*
X0058734Y0101078D01*
X0058685Y0101229D01*
X0058640Y0101381D01*
X0058599Y0101534D01*
X0058561Y0101687D01*
X0058528Y0101842D01*
X0058498Y0101998D01*
X0058472Y0102154D01*
X0058451Y0102311D01*
X0058433Y0102468D01*
X0058419Y0102626D01*
X0058409Y0102784D01*
X0058403Y0102942D01*
X0058401Y0103100D01*
X0101283Y0125119D02*
X0101283Y0127481D01*
X0108566Y0132796D02*
X0116834Y0132796D01*
X0124117Y0127481D02*
X0124117Y0125119D01*
X0116834Y0119804D02*
X0108566Y0119804D01*
X0144950Y0145100D02*
X0152450Y0145100D01*
X0141900Y0164950D02*
X0141900Y0172450D01*
X0141900Y0173750D02*
X0141900Y0181250D01*
X0171500Y0181250D02*
X0171500Y0173750D01*
X0171500Y0172450D02*
X0171500Y0164950D01*
X0110700Y0164950D02*
X0110700Y0172450D01*
X0110700Y0173750D02*
X0110700Y0181250D01*
X0079500Y0181250D02*
X0079500Y0173750D01*
X0079500Y0172450D02*
X0079500Y0164950D01*
X0072511Y0170889D02*
X0072511Y0194511D01*
X0048889Y0194511D01*
X0048889Y0170889D01*
X0072511Y0170889D01*
X0053810Y0182700D02*
X0053812Y0182869D01*
X0053818Y0183038D01*
X0053829Y0183207D01*
X0053843Y0183375D01*
X0053862Y0183543D01*
X0053885Y0183711D01*
X0053911Y0183878D01*
X0053942Y0184044D01*
X0053977Y0184210D01*
X0054016Y0184374D01*
X0054060Y0184538D01*
X0054107Y0184700D01*
X0054158Y0184861D01*
X0054213Y0185021D01*
X0054272Y0185180D01*
X0054334Y0185337D01*
X0054401Y0185492D01*
X0054472Y0185646D01*
X0054546Y0185798D01*
X0054624Y0185948D01*
X0054705Y0186096D01*
X0054790Y0186242D01*
X0054879Y0186386D01*
X0054971Y0186528D01*
X0055067Y0186667D01*
X0055166Y0186804D01*
X0055268Y0186939D01*
X0055374Y0187071D01*
X0055483Y0187200D01*
X0055595Y0187327D01*
X0055710Y0187451D01*
X0055828Y0187572D01*
X0055949Y0187690D01*
X0056073Y0187805D01*
X0056200Y0187917D01*
X0056329Y0188026D01*
X0056461Y0188132D01*
X0056596Y0188234D01*
X0056733Y0188333D01*
X0056872Y0188429D01*
X0057014Y0188521D01*
X0057158Y0188610D01*
X0057304Y0188695D01*
X0057452Y0188776D01*
X0057602Y0188854D01*
X0057754Y0188928D01*
X0057908Y0188999D01*
X0058063Y0189066D01*
X0058220Y0189128D01*
X0058379Y0189187D01*
X0058539Y0189242D01*
X0058700Y0189293D01*
X0058862Y0189340D01*
X0059026Y0189384D01*
X0059190Y0189423D01*
X0059356Y0189458D01*
X0059522Y0189489D01*
X0059689Y0189515D01*
X0059857Y0189538D01*
X0060025Y0189557D01*
X0060193Y0189571D01*
X0060362Y0189582D01*
X0060531Y0189588D01*
X0060700Y0189590D01*
X0060869Y0189588D01*
X0061038Y0189582D01*
X0061207Y0189571D01*
X0061375Y0189557D01*
X0061543Y0189538D01*
X0061711Y0189515D01*
X0061878Y0189489D01*
X0062044Y0189458D01*
X0062210Y0189423D01*
X0062374Y0189384D01*
X0062538Y0189340D01*
X0062700Y0189293D01*
X0062861Y0189242D01*
X0063021Y0189187D01*
X0063180Y0189128D01*
X0063337Y0189066D01*
X0063492Y0188999D01*
X0063646Y0188928D01*
X0063798Y0188854D01*
X0063948Y0188776D01*
X0064096Y0188695D01*
X0064242Y0188610D01*
X0064386Y0188521D01*
X0064528Y0188429D01*
X0064667Y0188333D01*
X0064804Y0188234D01*
X0064939Y0188132D01*
X0065071Y0188026D01*
X0065200Y0187917D01*
X0065327Y0187805D01*
X0065451Y0187690D01*
X0065572Y0187572D01*
X0065690Y0187451D01*
X0065805Y0187327D01*
X0065917Y0187200D01*
X0066026Y0187071D01*
X0066132Y0186939D01*
X0066234Y0186804D01*
X0066333Y0186667D01*
X0066429Y0186528D01*
X0066521Y0186386D01*
X0066610Y0186242D01*
X0066695Y0186096D01*
X0066776Y0185948D01*
X0066854Y0185798D01*
X0066928Y0185646D01*
X0066999Y0185492D01*
X0067066Y0185337D01*
X0067128Y0185180D01*
X0067187Y0185021D01*
X0067242Y0184861D01*
X0067293Y0184700D01*
X0067340Y0184538D01*
X0067384Y0184374D01*
X0067423Y0184210D01*
X0067458Y0184044D01*
X0067489Y0183878D01*
X0067515Y0183711D01*
X0067538Y0183543D01*
X0067557Y0183375D01*
X0067571Y0183207D01*
X0067582Y0183038D01*
X0067588Y0182869D01*
X0067590Y0182700D01*
X0067588Y0182531D01*
X0067582Y0182362D01*
X0067571Y0182193D01*
X0067557Y0182025D01*
X0067538Y0181857D01*
X0067515Y0181689D01*
X0067489Y0181522D01*
X0067458Y0181356D01*
X0067423Y0181190D01*
X0067384Y0181026D01*
X0067340Y0180862D01*
X0067293Y0180700D01*
X0067242Y0180539D01*
X0067187Y0180379D01*
X0067128Y0180220D01*
X0067066Y0180063D01*
X0066999Y0179908D01*
X0066928Y0179754D01*
X0066854Y0179602D01*
X0066776Y0179452D01*
X0066695Y0179304D01*
X0066610Y0179158D01*
X0066521Y0179014D01*
X0066429Y0178872D01*
X0066333Y0178733D01*
X0066234Y0178596D01*
X0066132Y0178461D01*
X0066026Y0178329D01*
X0065917Y0178200D01*
X0065805Y0178073D01*
X0065690Y0177949D01*
X0065572Y0177828D01*
X0065451Y0177710D01*
X0065327Y0177595D01*
X0065200Y0177483D01*
X0065071Y0177374D01*
X0064939Y0177268D01*
X0064804Y0177166D01*
X0064667Y0177067D01*
X0064528Y0176971D01*
X0064386Y0176879D01*
X0064242Y0176790D01*
X0064096Y0176705D01*
X0063948Y0176624D01*
X0063798Y0176546D01*
X0063646Y0176472D01*
X0063492Y0176401D01*
X0063337Y0176334D01*
X0063180Y0176272D01*
X0063021Y0176213D01*
X0062861Y0176158D01*
X0062700Y0176107D01*
X0062538Y0176060D01*
X0062374Y0176016D01*
X0062210Y0175977D01*
X0062044Y0175942D01*
X0061878Y0175911D01*
X0061711Y0175885D01*
X0061543Y0175862D01*
X0061375Y0175843D01*
X0061207Y0175829D01*
X0061038Y0175818D01*
X0060869Y0175812D01*
X0060700Y0175810D01*
X0060531Y0175812D01*
X0060362Y0175818D01*
X0060193Y0175829D01*
X0060025Y0175843D01*
X0059857Y0175862D01*
X0059689Y0175885D01*
X0059522Y0175911D01*
X0059356Y0175942D01*
X0059190Y0175977D01*
X0059026Y0176016D01*
X0058862Y0176060D01*
X0058700Y0176107D01*
X0058539Y0176158D01*
X0058379Y0176213D01*
X0058220Y0176272D01*
X0058063Y0176334D01*
X0057908Y0176401D01*
X0057754Y0176472D01*
X0057602Y0176546D01*
X0057452Y0176624D01*
X0057304Y0176705D01*
X0057158Y0176790D01*
X0057014Y0176879D01*
X0056872Y0176971D01*
X0056733Y0177067D01*
X0056596Y0177166D01*
X0056461Y0177268D01*
X0056329Y0177374D01*
X0056200Y0177483D01*
X0056073Y0177595D01*
X0055949Y0177710D01*
X0055828Y0177828D01*
X0055710Y0177949D01*
X0055595Y0178073D01*
X0055483Y0178200D01*
X0055374Y0178329D01*
X0055268Y0178461D01*
X0055166Y0178596D01*
X0055067Y0178733D01*
X0054971Y0178872D01*
X0054879Y0179014D01*
X0054790Y0179158D01*
X0054705Y0179304D01*
X0054624Y0179452D01*
X0054546Y0179602D01*
X0054472Y0179754D01*
X0054401Y0179908D01*
X0054334Y0180063D01*
X0054272Y0180220D01*
X0054213Y0180379D01*
X0054158Y0180539D01*
X0054107Y0180700D01*
X0054060Y0180862D01*
X0054016Y0181026D01*
X0053977Y0181190D01*
X0053942Y0181356D01*
X0053911Y0181522D01*
X0053885Y0181689D01*
X0053862Y0181857D01*
X0053843Y0182025D01*
X0053829Y0182193D01*
X0053818Y0182362D01*
X0053812Y0182531D01*
X0053810Y0182700D01*
X0155350Y0064700D02*
X0162850Y0064700D01*
X0199601Y0103100D02*
X0199603Y0103258D01*
X0199609Y0103416D01*
X0199619Y0103574D01*
X0199633Y0103732D01*
X0199651Y0103889D01*
X0199672Y0104046D01*
X0199698Y0104202D01*
X0199728Y0104358D01*
X0199761Y0104513D01*
X0199799Y0104666D01*
X0199840Y0104819D01*
X0199885Y0104971D01*
X0199934Y0105122D01*
X0199987Y0105271D01*
X0200043Y0105419D01*
X0200103Y0105565D01*
X0200167Y0105710D01*
X0200235Y0105853D01*
X0200306Y0105995D01*
X0200380Y0106135D01*
X0200458Y0106272D01*
X0200540Y0106408D01*
X0200624Y0106542D01*
X0200713Y0106673D01*
X0200804Y0106802D01*
X0200899Y0106929D01*
X0200996Y0107054D01*
X0201097Y0107176D01*
X0201201Y0107295D01*
X0201308Y0107412D01*
X0201418Y0107526D01*
X0201531Y0107637D01*
X0201646Y0107746D01*
X0201764Y0107851D01*
X0201885Y0107953D01*
X0202008Y0108053D01*
X0202134Y0108149D01*
X0202262Y0108242D01*
X0202392Y0108332D01*
X0202525Y0108418D01*
X0202660Y0108502D01*
X0202796Y0108581D01*
X0202935Y0108658D01*
X0203076Y0108730D01*
X0203218Y0108800D01*
X0203362Y0108865D01*
X0203508Y0108927D01*
X0203655Y0108985D01*
X0203804Y0109040D01*
X0203954Y0109091D01*
X0204105Y0109138D01*
X0204257Y0109181D01*
X0204410Y0109220D01*
X0204565Y0109256D01*
X0204720Y0109287D01*
X0204876Y0109315D01*
X0205032Y0109339D01*
X0205189Y0109359D01*
X0205347Y0109375D01*
X0205504Y0109387D01*
X0205663Y0109395D01*
X0205821Y0109399D01*
X0205979Y0109399D01*
X0206137Y0109395D01*
X0206296Y0109387D01*
X0206453Y0109375D01*
X0206611Y0109359D01*
X0206768Y0109339D01*
X0206924Y0109315D01*
X0207080Y0109287D01*
X0207235Y0109256D01*
X0207390Y0109220D01*
X0207543Y0109181D01*
X0207695Y0109138D01*
X0207846Y0109091D01*
X0207996Y0109040D01*
X0208145Y0108985D01*
X0208292Y0108927D01*
X0208438Y0108865D01*
X0208582Y0108800D01*
X0208724Y0108730D01*
X0208865Y0108658D01*
X0209004Y0108581D01*
X0209140Y0108502D01*
X0209275Y0108418D01*
X0209408Y0108332D01*
X0209538Y0108242D01*
X0209666Y0108149D01*
X0209792Y0108053D01*
X0209915Y0107953D01*
X0210036Y0107851D01*
X0210154Y0107746D01*
X0210269Y0107637D01*
X0210382Y0107526D01*
X0210492Y0107412D01*
X0210599Y0107295D01*
X0210703Y0107176D01*
X0210804Y0107054D01*
X0210901Y0106929D01*
X0210996Y0106802D01*
X0211087Y0106673D01*
X0211176Y0106542D01*
X0211260Y0106408D01*
X0211342Y0106272D01*
X0211420Y0106135D01*
X0211494Y0105995D01*
X0211565Y0105853D01*
X0211633Y0105710D01*
X0211697Y0105565D01*
X0211757Y0105419D01*
X0211813Y0105271D01*
X0211866Y0105122D01*
X0211915Y0104971D01*
X0211960Y0104819D01*
X0212001Y0104666D01*
X0212039Y0104513D01*
X0212072Y0104358D01*
X0212102Y0104202D01*
X0212128Y0104046D01*
X0212149Y0103889D01*
X0212167Y0103732D01*
X0212181Y0103574D01*
X0212191Y0103416D01*
X0212197Y0103258D01*
X0212199Y0103100D01*
X0212197Y0102942D01*
X0212191Y0102784D01*
X0212181Y0102626D01*
X0212167Y0102468D01*
X0212149Y0102311D01*
X0212128Y0102154D01*
X0212102Y0101998D01*
X0212072Y0101842D01*
X0212039Y0101687D01*
X0212001Y0101534D01*
X0211960Y0101381D01*
X0211915Y0101229D01*
X0211866Y0101078D01*
X0211813Y0100929D01*
X0211757Y0100781D01*
X0211697Y0100635D01*
X0211633Y0100490D01*
X0211565Y0100347D01*
X0211494Y0100205D01*
X0211420Y0100065D01*
X0211342Y0099928D01*
X0211260Y0099792D01*
X0211176Y0099658D01*
X0211087Y0099527D01*
X0210996Y0099398D01*
X0210901Y0099271D01*
X0210804Y0099146D01*
X0210703Y0099024D01*
X0210599Y0098905D01*
X0210492Y0098788D01*
X0210382Y0098674D01*
X0210269Y0098563D01*
X0210154Y0098454D01*
X0210036Y0098349D01*
X0209915Y0098247D01*
X0209792Y0098147D01*
X0209666Y0098051D01*
X0209538Y0097958D01*
X0209408Y0097868D01*
X0209275Y0097782D01*
X0209140Y0097698D01*
X0209004Y0097619D01*
X0208865Y0097542D01*
X0208724Y0097470D01*
X0208582Y0097400D01*
X0208438Y0097335D01*
X0208292Y0097273D01*
X0208145Y0097215D01*
X0207996Y0097160D01*
X0207846Y0097109D01*
X0207695Y0097062D01*
X0207543Y0097019D01*
X0207390Y0096980D01*
X0207235Y0096944D01*
X0207080Y0096913D01*
X0206924Y0096885D01*
X0206768Y0096861D01*
X0206611Y0096841D01*
X0206453Y0096825D01*
X0206296Y0096813D01*
X0206137Y0096805D01*
X0205979Y0096801D01*
X0205821Y0096801D01*
X0205663Y0096805D01*
X0205504Y0096813D01*
X0205347Y0096825D01*
X0205189Y0096841D01*
X0205032Y0096861D01*
X0204876Y0096885D01*
X0204720Y0096913D01*
X0204565Y0096944D01*
X0204410Y0096980D01*
X0204257Y0097019D01*
X0204105Y0097062D01*
X0203954Y0097109D01*
X0203804Y0097160D01*
X0203655Y0097215D01*
X0203508Y0097273D01*
X0203362Y0097335D01*
X0203218Y0097400D01*
X0203076Y0097470D01*
X0202935Y0097542D01*
X0202796Y0097619D01*
X0202660Y0097698D01*
X0202525Y0097782D01*
X0202392Y0097868D01*
X0202262Y0097958D01*
X0202134Y0098051D01*
X0202008Y0098147D01*
X0201885Y0098247D01*
X0201764Y0098349D01*
X0201646Y0098454D01*
X0201531Y0098563D01*
X0201418Y0098674D01*
X0201308Y0098788D01*
X0201201Y0098905D01*
X0201097Y0099024D01*
X0200996Y0099146D01*
X0200899Y0099271D01*
X0200804Y0099398D01*
X0200713Y0099527D01*
X0200624Y0099658D01*
X0200540Y0099792D01*
X0200458Y0099928D01*
X0200380Y0100065D01*
X0200306Y0100205D01*
X0200235Y0100347D01*
X0200167Y0100490D01*
X0200103Y0100635D01*
X0200043Y0100781D01*
X0199987Y0100929D01*
X0199934Y0101078D01*
X0199885Y0101229D01*
X0199840Y0101381D01*
X0199799Y0101534D01*
X0199761Y0101687D01*
X0199728Y0101842D01*
X0199698Y0101998D01*
X0199672Y0102154D01*
X0199651Y0102311D01*
X0199633Y0102468D01*
X0199619Y0102626D01*
X0199609Y0102784D01*
X0199603Y0102942D01*
X0199601Y0103100D01*
D15*
X0120771Y0127087D03*
D16*
X0144416Y0134710D02*
X0148851Y0134710D01*
X0147742Y0133601D02*
X0145524Y0135819D01*
X0146633Y0136928D02*
X0146633Y0132493D01*
X0145524Y0133601D02*
X0147742Y0135819D01*
D17*
X0132259Y0156846D02*
X0132261Y0156880D01*
X0132267Y0156914D01*
X0132277Y0156947D01*
X0132290Y0156978D01*
X0132308Y0157008D01*
X0132328Y0157036D01*
X0132352Y0157061D01*
X0132378Y0157083D01*
X0132406Y0157101D01*
X0132437Y0157117D01*
X0132469Y0157129D01*
X0132503Y0157137D01*
X0132537Y0157141D01*
X0132571Y0157141D01*
X0132605Y0157137D01*
X0132639Y0157129D01*
X0132671Y0157117D01*
X0132701Y0157101D01*
X0132730Y0157083D01*
X0132756Y0157061D01*
X0132780Y0157036D01*
X0132800Y0157008D01*
X0132818Y0156978D01*
X0132831Y0156947D01*
X0132841Y0156914D01*
X0132847Y0156880D01*
X0132849Y0156846D01*
X0132847Y0156812D01*
X0132841Y0156778D01*
X0132831Y0156745D01*
X0132818Y0156714D01*
X0132800Y0156684D01*
X0132780Y0156656D01*
X0132756Y0156631D01*
X0132730Y0156609D01*
X0132702Y0156591D01*
X0132671Y0156575D01*
X0132639Y0156563D01*
X0132605Y0156555D01*
X0132571Y0156551D01*
X0132537Y0156551D01*
X0132503Y0156555D01*
X0132469Y0156563D01*
X0132437Y0156575D01*
X0132406Y0156591D01*
X0132378Y0156609D01*
X0132352Y0156631D01*
X0132328Y0156656D01*
X0132308Y0156684D01*
X0132290Y0156714D01*
X0132277Y0156745D01*
X0132267Y0156778D01*
X0132261Y0156812D01*
X0132259Y0156846D01*
M02*
