%
M48
M72
T01C0.01378
T02C0.02362
T03C0.03346
T04C0.03543
T05C0.03600
T06C0.11811
%
T01
X79100Y116700
X59100Y178300
X85500Y63100
T02
X103100Y78300
X101500Y84700
X99900Y91100
X101500Y98300
X111900Y104700
X119900Y102300
X126300Y103900
X129500Y91900
X129500Y83900
X121500Y91900
X131900Y75900
X139100Y83100
X147100Y79900
X152700Y86300
X155900Y81500
X161500Y79100
X152700Y66300
X166300Y65500
X174300Y69500
X184700Y69500
X184700Y75100
X190300Y75100
X197500Y80700
X203100Y77500
X201500Y71900
X188700Y83900
X184700Y91900
X184700Y97500
X174300Y108700
X163100Y110300
X159100Y107100
X153500Y111100
X143100Y106300
X132700Y127900
X132700Y135100
X137500Y138300
X127900Y148700
X123100Y151100
X122300Y144700
X110354Y145554
X93500Y143900
X87900Y116700
X83100Y82300
X126300Y48700
X190300Y169500
X201500Y180700
X190300Y184700
X200700Y191900
X219100Y189500
X175100Y188700
X163900Y195900
X163100Y185500
X162300Y165500
X136700Y178300
X130300Y185500
X134300Y196700
X107900Y186300
X101500Y183100
X106300Y178300
X98300Y191900
X80700Y197500
X51100Y190300
X99900Y163900
X127100Y162300
X151900Y134300
X172700Y136700
X183100Y127900
X213500Y86300
T03
X141780Y60161
X126820Y60161
T04
X200300Y62500
X210300Y62500
X220300Y62500
X220300Y52500
X210300Y52500
X200300Y52500
T05
X68700Y54900
X68700Y64900
X71300Y79100
X61300Y79100
X190300Y62500
X190300Y52500
T06
X205900Y103100
X64700Y103100
M30
