G75*
%MOIN*%
%OFA0B0*%
%FSLAX25Y25*%
%IPPOS*%
%LPD*%
%AMOC8*
5,1,8,0,0,1.08239X$1,22.5*
%
%ADD10R,0.03400X0.02000*%
%ADD11R,0.04700X0.13000*%
%ADD12R,0.02375X0.06509*%
%ADD13C,0.04146*%
%ADD14R,0.07874X0.06693*%
%ADD15R,0.10630X0.06693*%
%ADD16R,0.06706X0.05918*%
%ADD17R,0.05918X0.06706*%
%ADD18R,0.04737X0.05131*%
%ADD19R,0.05131X0.04737*%
%ADD20R,0.05603X0.04383*%
%ADD21R,0.07099X0.12611*%
%ADD22R,0.05918X0.06902*%
%ADD23C,0.12611*%
%ADD24C,0.06400*%
%ADD25R,0.06312X0.04737*%
%ADD26C,0.00500*%
%ADD27R,0.07898X0.07099*%
%ADD28R,0.07099X0.07898*%
%ADD29R,0.08280X0.06312*%
%ADD30R,0.02800X0.06600*%
%ADD31C,0.07200*%
%ADD32R,0.04343X0.04343*%
%ADD33R,0.06706X0.06706*%
%ADD34R,0.05524X0.03162*%
%ADD35R,0.05524X0.02965*%
%ADD36R,0.07100X0.05400*%
%ADD37R,0.07200X0.00600*%
%ADD38R,0.03162X0.01784*%
%ADD39R,0.03753X0.01784*%
%ADD40R,0.03398X0.04737*%
%ADD41C,0.04762*%
%ADD42C,0.03778*%
D10*
X0107100Y0081400D03*
X0107100Y0083300D03*
X0107100Y0085300D03*
X0107100Y0087300D03*
X0107100Y0089300D03*
X0107100Y0091200D03*
X0115100Y0091200D03*
X0115100Y0089300D03*
X0115100Y0087300D03*
X0115100Y0085300D03*
X0115100Y0083300D03*
X0115100Y0081400D03*
D11*
X0111100Y0086300D03*
D12*
X0129182Y0062228D03*
X0131741Y0062228D03*
X0134300Y0062228D03*
X0136859Y0062228D03*
X0139418Y0062228D03*
D13*
X0141780Y0060161D03*
X0126820Y0060161D03*
D14*
X0119796Y0051500D03*
X0148804Y0051500D03*
D15*
X0134300Y0051500D03*
D16*
X0093100Y0121760D03*
X0093100Y0129240D03*
D17*
X0094440Y0094300D03*
X0086960Y0094300D03*
D18*
X0099900Y0056046D03*
X0099900Y0049354D03*
X0154154Y0071900D03*
X0160846Y0071900D03*
X0177100Y0086554D03*
X0177100Y0093246D03*
X0139246Y0144700D03*
X0132554Y0144700D03*
X0132154Y0161900D03*
X0138846Y0161900D03*
X0146028Y0185339D03*
X0152720Y0185339D03*
X0121520Y0185610D03*
X0114828Y0185610D03*
X0092720Y0186366D03*
X0086028Y0186366D03*
X0086154Y0196300D03*
X0092846Y0196300D03*
X0189354Y0198300D03*
X0196046Y0198300D03*
X0216554Y0195900D03*
X0223246Y0195900D03*
X0216700Y0172046D03*
X0216700Y0165354D03*
D19*
X0207900Y0165354D03*
X0207900Y0172046D03*
X0207900Y0191754D03*
X0207900Y0198446D03*
X0184046Y0198300D03*
X0177354Y0198300D03*
X0169500Y0200046D03*
X0169500Y0193354D03*
X0167131Y0180720D03*
X0167131Y0174028D03*
X0183046Y0184280D03*
X0183046Y0190972D03*
X0181900Y0154846D03*
X0181900Y0148154D03*
X0157500Y0147754D03*
X0157500Y0154446D03*
X0136117Y0168280D03*
X0136117Y0174972D03*
X0126646Y0157700D03*
X0119954Y0157700D03*
X0104388Y0168280D03*
X0104388Y0174972D03*
X0105100Y0190954D03*
X0105100Y0197646D03*
X0079050Y0191817D03*
X0079050Y0185124D03*
X0064046Y0165900D03*
X0057354Y0165900D03*
X0103754Y0138300D03*
X0110446Y0138300D03*
X0116154Y0138300D03*
X0122846Y0138300D03*
X0119500Y0112846D03*
X0119500Y0106154D03*
X0114846Y0098700D03*
X0108154Y0098700D03*
X0117500Y0076046D03*
X0117500Y0069354D03*
X0110446Y0068300D03*
X0103754Y0068300D03*
X0125900Y0068954D03*
X0125900Y0075646D03*
X0139100Y0077646D03*
X0139100Y0070954D03*
X0147100Y0067754D03*
X0147100Y0074446D03*
X0168300Y0055646D03*
X0168300Y0048954D03*
D20*
X0109500Y0048253D03*
X0109500Y0061147D03*
D21*
X0092700Y0065239D03*
X0092700Y0082561D03*
D22*
X0069558Y0167050D03*
X0051842Y0167050D03*
X0051842Y0198350D03*
X0069558Y0198350D03*
D23*
X0064700Y0103100D03*
X0205900Y0103100D03*
D24*
X0193100Y0062500D02*
X0187500Y0062500D01*
X0187500Y0052500D02*
X0193100Y0052500D01*
X0071500Y0054900D02*
X0065900Y0054900D01*
X0065900Y0064900D02*
X0071500Y0064900D01*
X0071300Y0076300D02*
X0071300Y0081900D01*
X0061300Y0081900D02*
X0061300Y0076300D01*
D25*
X0165969Y0151500D03*
X0174631Y0147760D03*
X0174631Y0155240D03*
D26*
X0048416Y0046023D02*
X0047753Y0046200D01*
X0047131Y0046490D01*
X0046569Y0046884D01*
X0046084Y0047369D01*
X0045690Y0047931D01*
X0045400Y0048553D01*
X0045223Y0049216D01*
X0045163Y0049900D01*
X0045223Y0050584D01*
X0045400Y0051247D01*
X0045690Y0051869D01*
X0046084Y0052431D01*
X0046569Y0052916D01*
X0047131Y0053310D01*
X0047753Y0053600D01*
X0048416Y0053777D01*
X0049100Y0053837D01*
X0049784Y0053777D01*
X0050447Y0053600D01*
X0051069Y0053310D01*
X0051631Y0052916D01*
X0052116Y0052431D01*
X0052510Y0051869D01*
X0052800Y0051247D01*
X0052977Y0050584D01*
X0053037Y0049900D01*
X0052977Y0049216D01*
X0052800Y0048553D01*
X0052510Y0047931D01*
X0052116Y0047369D01*
X0051631Y0046884D01*
X0051069Y0046490D01*
X0050447Y0046200D01*
X0049784Y0046023D01*
X0049100Y0045963D01*
X0048416Y0046023D01*
X0048162Y0046091D02*
X0050038Y0046091D01*
X0051210Y0046590D02*
X0046990Y0046590D01*
X0046365Y0047088D02*
X0051835Y0047088D01*
X0052268Y0047587D02*
X0045932Y0047587D01*
X0045619Y0048085D02*
X0052581Y0048085D01*
X0052808Y0048584D02*
X0045392Y0048584D01*
X0045259Y0049082D02*
X0052941Y0049082D01*
X0053009Y0049581D02*
X0045191Y0049581D01*
X0045179Y0050079D02*
X0053021Y0050079D01*
X0052978Y0050578D02*
X0045222Y0050578D01*
X0045355Y0051076D02*
X0052845Y0051076D01*
X0052647Y0051575D02*
X0045553Y0051575D01*
X0045834Y0052073D02*
X0052366Y0052073D01*
X0051975Y0052572D02*
X0046225Y0052572D01*
X0046790Y0053070D02*
X0051410Y0053070D01*
X0050513Y0053569D02*
X0047687Y0053569D01*
X0098731Y0148490D02*
X0098169Y0148884D01*
X0097684Y0149369D01*
X0097290Y0149931D01*
X0097000Y0150553D01*
X0096823Y0151216D01*
X0096763Y0151900D01*
X0096823Y0152584D01*
X0097000Y0153247D01*
X0097290Y0153869D01*
X0097684Y0154431D01*
X0098169Y0154916D01*
X0098731Y0155310D01*
X0099353Y0155600D01*
X0100016Y0155777D01*
X0100700Y0155837D01*
X0101384Y0155777D01*
X0102047Y0155600D01*
X0102669Y0155310D01*
X0103231Y0154916D01*
X0103716Y0154431D01*
X0104110Y0153869D01*
X0104400Y0153247D01*
X0104577Y0152584D01*
X0104637Y0151900D01*
X0104577Y0151216D01*
X0104400Y0150553D01*
X0104110Y0149931D01*
X0103716Y0149369D01*
X0103231Y0148884D01*
X0102669Y0148490D01*
X0102047Y0148200D01*
X0101384Y0148023D01*
X0100700Y0147963D01*
X0100016Y0148023D01*
X0099353Y0148200D01*
X0098731Y0148490D01*
X0099170Y0148286D02*
X0102230Y0148286D01*
X0103088Y0148784D02*
X0098312Y0148784D01*
X0097771Y0149283D02*
X0103629Y0149283D01*
X0104004Y0149781D02*
X0097396Y0149781D01*
X0097128Y0150280D02*
X0104272Y0150280D01*
X0104460Y0150778D02*
X0096940Y0150778D01*
X0096817Y0151277D02*
X0104582Y0151277D01*
X0104626Y0151775D02*
X0096774Y0151775D01*
X0096796Y0152274D02*
X0104604Y0152274D01*
X0104527Y0152772D02*
X0096873Y0152772D01*
X0097012Y0153271D02*
X0104388Y0153271D01*
X0104156Y0153770D02*
X0097244Y0153770D01*
X0097570Y0154268D02*
X0103830Y0154268D01*
X0103380Y0154767D02*
X0098020Y0154767D01*
X0098668Y0155265D02*
X0102732Y0155265D01*
X0101435Y0155764D02*
X0099965Y0155764D01*
X0214090Y0082669D02*
X0213800Y0082047D01*
X0213623Y0081384D01*
X0213563Y0080700D01*
X0213623Y0080016D01*
X0213800Y0079353D01*
X0214090Y0078731D01*
X0214484Y0078169D01*
X0214969Y0077684D01*
X0215531Y0077290D01*
X0216153Y0077000D01*
X0216816Y0076823D01*
X0217500Y0076763D01*
X0218184Y0076823D01*
X0218847Y0077000D01*
X0219469Y0077290D01*
X0220031Y0077684D01*
X0220516Y0078169D01*
X0220910Y0078731D01*
X0221200Y0079353D01*
X0221377Y0080016D01*
X0221437Y0080700D01*
X0221377Y0081384D01*
X0221200Y0082047D01*
X0220910Y0082669D01*
X0220516Y0083231D01*
X0220031Y0083716D01*
X0219469Y0084110D01*
X0218847Y0084400D01*
X0218184Y0084577D01*
X0217500Y0084637D01*
X0216816Y0084577D01*
X0216153Y0084400D01*
X0215531Y0084110D01*
X0214969Y0083716D01*
X0214484Y0083231D01*
X0214090Y0082669D01*
X0214004Y0082482D02*
X0220996Y0082482D01*
X0221216Y0081984D02*
X0213784Y0081984D01*
X0213650Y0081485D02*
X0221350Y0081485D01*
X0221412Y0080987D02*
X0213588Y0080987D01*
X0213582Y0080488D02*
X0221418Y0080488D01*
X0221370Y0079990D02*
X0213630Y0079990D01*
X0213763Y0079491D02*
X0221237Y0079491D01*
X0221031Y0078993D02*
X0213969Y0078993D01*
X0214257Y0078494D02*
X0220743Y0078494D01*
X0220342Y0077996D02*
X0214658Y0077996D01*
X0215236Y0077497D02*
X0219764Y0077497D01*
X0218840Y0076999D02*
X0216160Y0076999D01*
X0214309Y0082981D02*
X0220691Y0082981D01*
X0220267Y0083479D02*
X0214733Y0083479D01*
X0215344Y0083978D02*
X0219656Y0083978D01*
X0218560Y0084476D02*
X0216440Y0084476D01*
D27*
X0159100Y0060298D03*
X0159100Y0049102D03*
X0148700Y0149502D03*
X0148700Y0160698D03*
D28*
X0146302Y0168700D03*
X0146302Y0177500D03*
X0157498Y0177500D03*
X0157498Y0168700D03*
X0175902Y0168700D03*
X0175902Y0177500D03*
X0187098Y0177500D03*
X0187098Y0168700D03*
X0126298Y0168700D03*
X0126298Y0177500D03*
X0115102Y0177500D03*
X0115102Y0168700D03*
X0095098Y0168700D03*
X0095098Y0177500D03*
X0083902Y0177500D03*
X0083902Y0168700D03*
D29*
X0104039Y0131024D03*
X0104039Y0121576D03*
X0121361Y0121576D03*
X0121361Y0131024D03*
D30*
G36*
X0134245Y0118528D02*
X0136225Y0120508D01*
X0140891Y0115842D01*
X0138911Y0113862D01*
X0134245Y0118528D01*
G37*
G36*
X0131982Y0116266D02*
X0133962Y0118246D01*
X0138628Y0113580D01*
X0136648Y0111600D01*
X0131982Y0116266D01*
G37*
G36*
X0129790Y0114073D02*
X0131770Y0116053D01*
X0136436Y0111387D01*
X0134456Y0109407D01*
X0129790Y0114073D01*
G37*
G36*
X0134456Y0107992D02*
X0136436Y0106012D01*
X0131770Y0101346D01*
X0129790Y0103326D01*
X0134456Y0107992D01*
G37*
G36*
X0136648Y0105800D02*
X0138628Y0103820D01*
X0133962Y0099154D01*
X0131982Y0101134D01*
X0136648Y0105800D01*
G37*
G36*
X0138911Y0103538D02*
X0140891Y0101558D01*
X0136225Y0096892D01*
X0134245Y0098872D01*
X0138911Y0103538D01*
G37*
G36*
X0141103Y0101346D02*
X0143083Y0099366D01*
X0138417Y0094700D01*
X0136437Y0096680D01*
X0141103Y0101346D01*
G37*
G36*
X0143366Y0099083D02*
X0145346Y0097103D01*
X0140680Y0092437D01*
X0138700Y0094417D01*
X0143366Y0099083D01*
G37*
G36*
X0145558Y0096891D02*
X0147538Y0094911D01*
X0142872Y0090245D01*
X0140892Y0092225D01*
X0145558Y0096891D01*
G37*
G36*
X0147820Y0094628D02*
X0149800Y0092648D01*
X0145134Y0087982D01*
X0143154Y0089962D01*
X0147820Y0094628D01*
G37*
G36*
X0150012Y0092436D02*
X0151992Y0090456D01*
X0147326Y0085790D01*
X0145346Y0087770D01*
X0150012Y0092436D01*
G37*
G36*
X0153407Y0090456D02*
X0155387Y0092436D01*
X0160053Y0087770D01*
X0158073Y0085790D01*
X0153407Y0090456D01*
G37*
G36*
X0155600Y0092648D02*
X0157580Y0094628D01*
X0162246Y0089962D01*
X0160266Y0087982D01*
X0155600Y0092648D01*
G37*
G36*
X0157862Y0094911D02*
X0159842Y0096891D01*
X0164508Y0092225D01*
X0162528Y0090245D01*
X0157862Y0094911D01*
G37*
G36*
X0160054Y0097103D02*
X0162034Y0099083D01*
X0166700Y0094417D01*
X0164720Y0092437D01*
X0160054Y0097103D01*
G37*
G36*
X0162317Y0099366D02*
X0164297Y0101346D01*
X0168963Y0096680D01*
X0166983Y0094700D01*
X0162317Y0099366D01*
G37*
G36*
X0164509Y0101558D02*
X0166489Y0103538D01*
X0171155Y0098872D01*
X0169175Y0096892D01*
X0164509Y0101558D01*
G37*
G36*
X0166772Y0103820D02*
X0168752Y0105800D01*
X0173418Y0101134D01*
X0171438Y0099154D01*
X0166772Y0103820D01*
G37*
G36*
X0168964Y0106012D02*
X0170944Y0107992D01*
X0175610Y0103326D01*
X0173630Y0101346D01*
X0168964Y0106012D01*
G37*
G36*
X0173630Y0116053D02*
X0175610Y0114073D01*
X0170944Y0109407D01*
X0168964Y0111387D01*
X0173630Y0116053D01*
G37*
G36*
X0171438Y0118246D02*
X0173418Y0116266D01*
X0168752Y0111600D01*
X0166772Y0113580D01*
X0171438Y0118246D01*
G37*
G36*
X0169175Y0120508D02*
X0171155Y0118528D01*
X0166489Y0113862D01*
X0164509Y0115842D01*
X0169175Y0120508D01*
G37*
G36*
X0166983Y0122700D02*
X0168963Y0120720D01*
X0164297Y0116054D01*
X0162317Y0118034D01*
X0166983Y0122700D01*
G37*
G36*
X0164720Y0124963D02*
X0166700Y0122983D01*
X0162034Y0118317D01*
X0160054Y0120297D01*
X0164720Y0124963D01*
G37*
G36*
X0162528Y0127155D02*
X0164508Y0125175D01*
X0159842Y0120509D01*
X0157862Y0122489D01*
X0162528Y0127155D01*
G37*
G36*
X0160266Y0129418D02*
X0162246Y0127438D01*
X0157580Y0122772D01*
X0155600Y0124752D01*
X0160266Y0129418D01*
G37*
G36*
X0158073Y0131610D02*
X0160053Y0129630D01*
X0155387Y0124964D01*
X0153407Y0126944D01*
X0158073Y0131610D01*
G37*
G36*
X0145346Y0129630D02*
X0147326Y0131610D01*
X0151992Y0126944D01*
X0150012Y0124964D01*
X0145346Y0129630D01*
G37*
G36*
X0143154Y0127438D02*
X0145134Y0129418D01*
X0149800Y0124752D01*
X0147820Y0122772D01*
X0143154Y0127438D01*
G37*
G36*
X0140892Y0125175D02*
X0142872Y0127155D01*
X0147538Y0122489D01*
X0145558Y0120509D01*
X0140892Y0125175D01*
G37*
G36*
X0138700Y0122983D02*
X0140680Y0124963D01*
X0145346Y0120297D01*
X0143366Y0118317D01*
X0138700Y0122983D01*
G37*
G36*
X0136437Y0120720D02*
X0138417Y0122700D01*
X0143083Y0118034D01*
X0141103Y0116054D01*
X0136437Y0120720D01*
G37*
D31*
X0200300Y0062500D03*
X0210300Y0062500D03*
X0220300Y0062500D03*
X0220300Y0052500D03*
X0210300Y0052500D03*
X0200300Y0052500D03*
D32*
X0149500Y0193500D03*
X0121500Y0193500D03*
D33*
X0114610Y0196650D03*
X0128390Y0196650D03*
X0142610Y0196650D03*
X0156390Y0196650D03*
D34*
X0207558Y0186040D03*
X0207558Y0182300D03*
X0207558Y0178560D03*
X0217842Y0178560D03*
X0217842Y0186040D03*
D35*
X0092218Y0055640D03*
X0092218Y0048160D03*
X0081982Y0048160D03*
X0081982Y0051900D03*
X0081982Y0055640D03*
D36*
X0058300Y0056900D03*
X0058300Y0062900D03*
D37*
X0058300Y0059900D03*
D38*
X0133065Y0151531D03*
X0133065Y0153500D03*
X0138735Y0153500D03*
X0138735Y0151531D03*
X0138735Y0155469D03*
D39*
X0133361Y0155469D03*
D40*
X0098040Y0111431D03*
X0090560Y0111431D03*
X0090560Y0103163D03*
X0094300Y0103163D03*
X0098040Y0103163D03*
D41*
X0101500Y0098300D03*
X0099900Y0091100D03*
X0101500Y0084700D03*
X0103100Y0078300D03*
X0121500Y0091900D03*
X0129500Y0091900D03*
X0129500Y0083900D03*
X0131900Y0075900D03*
X0139100Y0083100D03*
X0147100Y0079900D03*
X0152700Y0086300D03*
X0155900Y0081500D03*
X0161500Y0079100D03*
X0152700Y0066300D03*
X0166300Y0065500D03*
X0174300Y0069500D03*
X0184700Y0069500D03*
X0184700Y0075100D03*
X0190300Y0075100D03*
X0197500Y0080700D03*
X0203100Y0077500D03*
X0201500Y0071900D03*
X0188700Y0083900D03*
X0184700Y0091900D03*
X0184700Y0097500D03*
X0174300Y0108700D03*
X0163100Y0110300D03*
X0159100Y0107100D03*
X0153500Y0111100D03*
X0143100Y0106300D03*
X0126300Y0103900D03*
X0119900Y0102300D03*
X0111900Y0104700D03*
X0087900Y0116700D03*
X0093500Y0143900D03*
X0110354Y0145554D03*
X0122300Y0144700D03*
X0127900Y0148700D03*
X0123100Y0151100D03*
X0127100Y0162300D03*
X0136700Y0178300D03*
X0130300Y0185500D03*
X0134300Y0196700D03*
X0107900Y0186300D03*
X0101500Y0183100D03*
X0106300Y0178300D03*
X0098300Y0191900D03*
X0080700Y0197500D03*
X0051100Y0190300D03*
X0099900Y0163900D03*
X0132700Y0135100D03*
X0137500Y0138300D03*
X0132700Y0127900D03*
X0151900Y0134300D03*
X0172700Y0136700D03*
X0183100Y0127900D03*
X0162300Y0165500D03*
X0163100Y0185500D03*
X0163900Y0195900D03*
X0175100Y0188700D03*
X0190300Y0184700D03*
X0201500Y0180700D03*
X0200700Y0191900D03*
X0219100Y0189500D03*
X0190300Y0169500D03*
X0213500Y0086300D03*
X0126300Y0048700D03*
X0083100Y0082300D03*
D42*
X0085500Y0063100D03*
X0079100Y0116700D03*
X0059100Y0178300D03*
M02*
