<?xml version="1.0" standalone="no"?>
<!DOCTYPE svg PUBLIC "-//W3C//DTD SVG 1.1//EN"
  "http://www.w3.org/Graphics/SVG/1.1/DTD/svg11.dtd">
<svg width="49.23900032043457mm" height="41.909000396728516mm" viewBox="-24.711000442504883 -20.958999633789062 49.23900032043457 41.909000396728516" xmlns="http://www.w3.org/2000/svg" version="1.1">
	<title>svgOutput</title>
	<desc>made with tinkercad</desc>
<path d="M -22.135000228881836 19.788999557495117 L -22.444000244140625 19.642000198364258 L -22.729999542236328 19.454999923706055 L -22.974000930786133 19.239999771118164 L -23.26799964904785 18.902000427246094 L -23.378000259399414 18.740999221801758 L -23.468000411987305 18.575000762939453 L -23.541000366210938 18.39699935913086 L -23.60099983215332 18.200000762939453 L -23.69300079345703 17.72100067138672 L -23.711000442504883 17.506999969482422 L -23.68400001525879 17.191999435424805 L -23.544559478759766 16.384000778198242 L -23.386999130249023 15.470999717712402 L -23.145999908447266 14.074999809265137 L -23.145177841186523 14.069737434387207 L -22.91900062561035 12.621000289916992 L -22.707000732421875 11.12600040435791 L -22.513999938964844 9.607999801635742 L -22.3531551361084 8.192000389099121 L -22.340999603271484 8.085000038146973 L -22.241252899169922 7.087538242340088 L -22.190000534057617 6.574999809265137 L -22.06399917602539 5.0960001945495605 L -21.96299934387207 3.6649999618530273 L -21.871999740600586 1.7970000505447388 L -21.823604583740234 4.440892164675075e-17 L -21.819000244140625 -0.1710000038146972 L -21.80500030517578 -2.2039999961853027 L -21.82699966430664 -4.0960001945495605 L -21.82900047302246 -4.26800012588501 L -21.889999389648438 -6.328999996185303 L -21.98029327392578 -8.192000389099121 L -21.988000869750977 -8.35099983215332 L -22.121000289916992 -10.302000045776367 L -22.288999557495117 -12.145000457763672 L -22.475000381469727 -13.765000343322754 L -22.709999084472656 -15.652000427246094 L -22.80771827697754 -16.384000778198242 L -22.93199920654297 -17.315000534057617 L -23.077999114990234 -18.259000778198242 L -23.097999572753906 -18.485000610351562 L -23.092695236206055 -18.518768310546875 L -23.05699920654297 -18.746000289916992 L -22.988000869750977 -18.988000869750977 L -22.902000427246094 -19.183000564575195 L -22.78700065612793 -19.351999282836914 L -22.631999969482422 -19.51799964904785 L -22.44499969482422 -19.680999755859375 L -22.27400016784668 -19.79599952697754 L -22.097999572753906 -19.874000549316406 L -21.89699935913086 -19.926000595092773 L -21.003000259399414 -19.94700050354004 L -18.391000747680664 -19.95800018310547 L -16.384000778198242 -19.958173751831055 L -15.998000144958496 -19.958206176757812 L -6.810999870300293 -19.958999633789062 L 0 -19.9534912109375 L 8.027999877929688 -19.94700050354004 L 8.324999809265137 -19.836000442504883 L 8.677000045776367 -19.687999725341797 L 9.00100040435791 -19.513999938964844 L 9.295000076293945 -19.31599998474121 L 9.557000160217285 -19.097000122070312 L 9.78600025177002 -18.85700035095215 L 9.979000091552734 -18.599000930786133 L 10.13599967956543 -18.325000762939453 L 10.253000259399414 -18.035999298095703 L 10.355999946594238 -17.642000198364258 L 10.388999938964844 -17.4060001373291 L 10.413000106811523 -17.104999542236328 L 10.432699203491211 -16.384000778198242 L 10.437999725341797 -16.190000534057617 L 10.442999839782715 -14.663000106811523 L 10.442999839782715 -12.253000259399414 L 10.450891494750977 -12.25296688079834 L 10.54557991027832 -12.252565383911133 L 14.458999633789062 -12.236000061035156 L 15.496999740600586 -12.232894897460938 L 16.384000778198242 -12.230242729187012 L 18.47100067138672 -12.223999977111816 L 18.905000686645508 -12.116000175476074 L 19.208999633789062 -12.029999732971191 L 19.5 -11.925000190734863 L 19.780000686645508 -11.800999641418457 L 20.04800033569336 -11.657999992370605 L 20.30699920654297 -11.494999885559082 L 20.479999542236328 -11.367671966552734 L 20.55699920654297 -11.310999870300293 L 20.798999786376953 -11.104999542236328 L 21.034000396728516 -10.878000259399414 L 21.225000381469727 -10.666000366210938 L 21.399999618530273 -10.437000274658203 L 21.559999465942383 -10.190999984741211 L 21.70400047302246 -9.928999900817871 L 21.832000732421875 -9.651000022888184 L 21.94499969482422 -9.355999946594238 L 22.041000366210938 -9.04699993133545 L 22.1200008392334 -8.722999572753906 L 22.180999755859375 -8.326000213623047 L 22.182016372680664 -8.192000389099121 L 22.184999465942383 -7.798999786376953 L 22.125999450683594 -6.968999862670898 L 21.996000289916992 -5.664000034332275 L 21.889999389648438 -4.515999794006348 L 21.859216690063477 -4.0960001945495605 L 21.80299949645996 -3.3289999961853027 L 21.733999252319336 -2.118000030517578 L 21.68400001525879 -0.8999999761581421 L 21.660980224609375 4.440892164675075e-17 L 21.652999877929688 0.3120000064373017 L 21.64299964904785 1.5 L 21.65399932861328 2.6510000228881836 L 21.687000274658203 3.746999979019165 L 21.79400062561035 5.810999870300293 L 21.917999267578125 7.380000114440918 L 22.003000259399414 8.352999687194824 L 22.111000061035156 9.364999771118164 L 22.240999221801758 10.418000221252441 L 22.393999099731445 11.510000228881836 L 22.73979377746582 13.63916301727295 L 22.768999099731445 13.819000244140625 L 23.23900032043457 16.29599952697754 L 23.255535125732422 16.384000778198242 L 23.44700050354004 17.402999877929688 L 23.527999877929688 17.98900032043457 L 23.507999420166016 18.218000411987305 L 23.454999923706055 18.465999603271484 L 23.375999450683594 18.70400047302246 L 23.280000686645508 18.905000686645508 L 23.18000030517578 19.054000854492188 L 23.062000274658203 19.197999954223633 L 22.777000427246094 19.46500015258789 L 22.44499969482422 19.69099998474121 L 22.08300018310547 19.863000869750977 L 21.856000900268555 19.950000762939453 L 16.384000778198242 19.948991775512695 L 0.14399999380111694 19.945999145507812 L 0 19.945886611938477 L -14.549090385437012 19.934375762939453 L -15.249870300292969 19.933820724487305 L -16.384000778198242 19.932924270629883 L -17.552000045776367 19.93199920654297 L -20.479999542236328 19.916004180908203 L -20.847000122070312 19.913999557495117 L -21.559999465942383 19.899999618530273 L -21.822999954223633 19.884000778198242 L -22.135000228881836 19.788999557495117 M -16.08300018310547 -5.801000118255615 L -16.332000732421875 -6.289000034332275 L -16.384000778198242 -6.341000080108643 L -16.719999313354492 -6.677000045776367 L -17.20800018310547 -6.926000118255615 L -17.75 -7.011000156402588 L -18.29199981689453 -6.926000118255615 L -18.780000686645508 -6.677000045776367 L -19.167999267578125 -6.289000034332275 L -19.241985321044922 -6.144000053405762 L -19.41699981689453 -5.801000118255615 L -19.503000259399414 -5.258999824523926 L -19.41699981689453 -4.7170000076293945 L -19.167999267578125 -4.229000091552734 L -19.03499984741211 -4.0960001945495605 L -18.780000686645508 -3.8410000801086426 L -18.29199981689453 -3.5920000076293945 L -17.75 -3.50600004196167 L -17.20800018310547 -3.5920000076293945 L -16.719999313354492 -3.8410000801086426 L -16.46500015258789 -4.0960001945495605 L -16.384000778198242 -4.177000045776367 L -16.332000732421875 -4.229000091552734 L -16.08300018310547 -4.7170000076293945 L -15.998000144958496 -5.258999824523926 L -16.08300018310547 -5.801000118255615 M 16.70800018310547 -6.926000118255615 L 16.384000778198242 -6.760680198669434 L 16.219999313354492 -6.677000045776367 L 15.831999778747559 -6.289000034332275 L 15.583000183105469 -5.801000118255615 L 15.496999740600586 -5.258999824523926 L 15.583000183105469 -4.7170000076293945 L 15.831999778747559 -4.229000091552734 L 16.219999313354492 -3.8410000801086426 L 16.384000778198242 -3.757319688796997 L 16.70800018310547 -3.5920000076293945 L 17.25 -3.50600004196167 L 17.79199981689453 -3.5920000076293945 L 18.280000686645508 -3.8410000801086426 L 18.53499984741211 -4.0960001945495605 L 18.667999267578125 -4.229000091552734 L 18.91699981689453 -4.7170000076293945 L 19.003000259399414 -5.258999824523926 L 18.91699981689453 -5.801000118255615 L 18.741985321044922 -6.144000053405762 L 18.667999267578125 -6.289000034332275 L 18.280000686645508 -6.677000045776367 L 17.79199981689453 -6.926000118255615 L 17.25 -7.011000156402588 L 16.70800018310547 -6.926000118255615 M -14.48799991607666 1.2089999914169312 L -16.384000778198242 1.2089999914169312 L -17.583999633789062 1.2089999914169312 L -17.583999633789062 4.156000137329102 L -17.573999404907227 6.540999889373779 L -17.558000564575195 7.004000186920166 L -17.530000686645508 7.14900016784668 L -17.41900062561035 7.169000148773193 L -17.139999389648438 7.185999870300293 L -16.384000778198242 7.200592041015625 L -16.052000045776367 7.206999778747559 L -14.557999610900879 7.2270002365112305 L -14.53600025177002 7.2170000076293945 L -14.519000053405762 7.160999774932861 L -14.498000144958496 6.794000148773193 L -14.48799991607666 4.2220001220703125 L -14.48799991607666 1.2089999914169312 M 17.54199981689453 1.1670000553131104 L 16.384000778198242 1.1670000553131104 L 14.446999549865723 1.1670000553131104 L 14.446999549865723 7.193999767303467 L 16.384000778198242 7.193999767303467 L 17.54199981689453 7.193999767303467 L 17.54199981689453 1.1670000553131104 z" fill="none" stroke="rgb(0,0,255)" stroke-width="0.01mm" />
</svg>